ISO-10303-21;
HEADER;
/* Generated by software containing ST-Developer
 * from STEP Tools, Inc. (www.steptools.com) 
 */

FILE_DESCRIPTION(
/* description */ (''),
/* implementation_level */ '2;1');

FILE_NAME(
/* name */ 'right_claw_top.step',
/* time_stamp */ '2026-06-13T16:07:03-06:00',
/* author */ (''),
/* organization */ (''),
/* preprocessor_version */ 'ST-DEVELOPER v20.1',
/* originating_system */ 'Autodesk Translation Framework v15.8.0.0',
/* authorisation */ '');

FILE_SCHEMA (('AUTOMOTIVE_DESIGN { 1 0 10303 214 3 1 1 }'));
ENDSEC;

DATA;
#10=MECHANICAL_DESIGN_GEOMETRIC_PRESENTATION_REPRESENTATION('',(#13),#956);
#11=SHAPE_REPRESENTATION_RELATIONSHIP('SRR','None',#963,#12);
#12=ADVANCED_BREP_SHAPE_REPRESENTATION('',(#14),#955);
#13=STYLED_ITEM('',(#973),#14);
#14=MANIFOLD_SOLID_BREP('Body1',#542);
#15=CONICAL_SURFACE('',#573,7.45000000000001,1.27933953231703);
#16=CONICAL_SURFACE('',#605,8.05000000000003,0.785398163397455);
#17=CONICAL_SURFACE('',#609,14.,0.785398163397446);
#18=CONICAL_SURFACE('',#613,8.05000000000003,0.785398163397455);
#19=FACE_BOUND('',#85,.T.);
#20=FACE_BOUND('',#86,.T.);
#21=FACE_BOUND('',#89,.T.);
#22=FACE_BOUND('',#90,.T.);
#23=FACE_BOUND('',#91,.T.);
#24=FACE_BOUND('',#96,.T.);
#25=FACE_BOUND('',#100,.T.);
#26=FACE_BOUND('',#103,.T.);
#27=FACE_BOUND('',#106,.T.);
#28=FACE_BOUND('',#109,.T.);
#29=FACE_BOUND('',#113,.T.);
#30=PLANE('',#562);
#31=PLANE('',#563);
#32=PLANE('',#567);
#33=PLANE('',#568);
#34=PLANE('',#572);
#35=PLANE('',#576);
#36=PLANE('',#582);
#37=PLANE('',#586);
#38=PLANE('',#595);
#39=PLANE('',#601);
#40=PLANE('',#607);
#41=PLANE('',#611);
#42=PLANE('',#617);
#43=PLANE('',#620);
#44=FACE_OUTER_BOUND('',#76,.T.);
#45=FACE_OUTER_BOUND('',#77,.T.);
#46=FACE_OUTER_BOUND('',#78,.T.);
#47=FACE_OUTER_BOUND('',#79,.T.);
#48=FACE_OUTER_BOUND('',#80,.T.);
#49=FACE_OUTER_BOUND('',#81,.T.);
#50=FACE_OUTER_BOUND('',#82,.T.);
#51=FACE_OUTER_BOUND('',#83,.T.);
#52=FACE_OUTER_BOUND('',#84,.T.);
#53=FACE_OUTER_BOUND('',#87,.T.);
#54=FACE_OUTER_BOUND('',#88,.T.);
#55=FACE_OUTER_BOUND('',#92,.T.);
#56=FACE_OUTER_BOUND('',#93,.T.);
#57=FACE_OUTER_BOUND('',#94,.T.);
#58=FACE_OUTER_BOUND('',#95,.T.);
#59=FACE_OUTER_BOUND('',#97,.T.);
#60=FACE_OUTER_BOUND('',#98,.T.);
#61=FACE_OUTER_BOUND('',#99,.T.);
#62=FACE_OUTER_BOUND('',#101,.T.);
#63=FACE_OUTER_BOUND('',#102,.T.);
#64=FACE_OUTER_BOUND('',#104,.T.);
#65=FACE_OUTER_BOUND('',#105,.T.);
#66=FACE_OUTER_BOUND('',#107,.T.);
#67=FACE_OUTER_BOUND('',#108,.T.);
#68=FACE_OUTER_BOUND('',#110,.T.);
#69=FACE_OUTER_BOUND('',#111,.T.);
#70=FACE_OUTER_BOUND('',#112,.T.);
#71=FACE_OUTER_BOUND('',#114,.T.);
#72=FACE_OUTER_BOUND('',#115,.T.);
#73=FACE_OUTER_BOUND('',#116,.T.);
#74=FACE_OUTER_BOUND('',#117,.T.);
#75=FACE_OUTER_BOUND('',#118,.T.);
#76=EDGE_LOOP('',(#350,#351,#352,#353));
#77=EDGE_LOOP('',(#354,#355,#356,#357));
#78=EDGE_LOOP('',(#358,#359,#360,#361));
#79=EDGE_LOOP('',(#362,#363,#364,#365));
#80=EDGE_LOOP('',(#366,#367,#368,#369));
#81=EDGE_LOOP('',(#370,#371,#372,#373));
#82=EDGE_LOOP('',(#374,#375,#376,#377));
#83=EDGE_LOOP('',(#378,#379,#380,#381));
#84=EDGE_LOOP('',(#382,#383,#384,#385,#386,#387));
#85=EDGE_LOOP('',(#388));
#86=EDGE_LOOP('',(#389));
#87=EDGE_LOOP('',(#390,#391,#392,#393));
#88=EDGE_LOOP('',(#394,#395,#396,#397));
#89=EDGE_LOOP('',(#398));
#90=EDGE_LOOP('',(#399));
#91=EDGE_LOOP('',(#400));
#92=EDGE_LOOP('',(#401,#402,#403,#404));
#93=EDGE_LOOP('',(#405,#406,#407,#408,#409,#410,#411,#412));
#94=EDGE_LOOP('',(#413,#414,#415,#416));
#95=EDGE_LOOP('',(#417,#418,#419,#420));
#96=EDGE_LOOP('',(#421));
#97=EDGE_LOOP('',(#422,#423,#424,#425,#426,#427,#428,#429));
#98=EDGE_LOOP('',(#430,#431,#432,#433));
#99=EDGE_LOOP('',(#434,#435,#436,#437,#438,#439));
#100=EDGE_LOOP('',(#440,#441,#442,#443,#444,#445));
#101=EDGE_LOOP('',(#446,#447,#448,#449));
#102=EDGE_LOOP('',(#450,#451,#452,#453,#454,#455));
#103=EDGE_LOOP('',(#456));
#104=EDGE_LOOP('',(#457,#458,#459,#460));
#105=EDGE_LOOP('',(#461));
#106=EDGE_LOOP('',(#462));
#107=EDGE_LOOP('',(#463,#464,#465,#466));
#108=EDGE_LOOP('',(#467));
#109=EDGE_LOOP('',(#468));
#110=EDGE_LOOP('',(#469,#470,#471,#472));
#111=EDGE_LOOP('',(#473,#474,#475,#476));
#112=EDGE_LOOP('',(#477));
#113=EDGE_LOOP('',(#478));
#114=EDGE_LOOP('',(#479,#480,#481,#482));
#115=EDGE_LOOP('',(#483));
#116=EDGE_LOOP('',(#484,#485,#486,#487));
#117=EDGE_LOOP('',(#488,#489,#490,#491));
#118=EDGE_LOOP('',(#492,#493,#494,#495));
#119=LINE('',#804,#156);
#120=LINE('',#810,#157);
#121=LINE('',#815,#158);
#122=LINE('',#817,#159);
#123=LINE('',#819,#160);
#124=LINE('',#820,#161);
#125=LINE('',#823,#162);
#126=LINE('',#825,#163);
#127=LINE('',#826,#164);
#128=LINE('',#831,#165);
#129=LINE('',#835,#166);
#130=LINE('',#837,#167);
#131=LINE('',#838,#168);
#132=LINE('',#841,#169);
#133=LINE('',#843,#170);
#134=LINE('',#844,#171);
#135=LINE('',#853,#172);
#136=LINE('',#858,#173);
#137=LINE('',#867,#174);
#138=LINE('',#870,#175);
#139=LINE('',#872,#176);
#140=LINE('',#874,#177);
#141=LINE('',#876,#178);
#142=LINE('',#878,#179);
#143=LINE('',#880,#180);
#144=LINE('',#881,#181);
#145=LINE('',#886,#182);
#146=LINE('',#896,#183);
#147=LINE('',#900,#184);
#148=LINE('',#903,#185);
#149=LINE('',#907,#186);
#150=LINE('',#916,#187);
#151=LINE('',#924,#188);
#152=LINE('',#932,#189);
#153=LINE('',#938,#190);
#154=LINE('',#942,#191);
#155=LINE('',#948,#192);
#156=VECTOR('',#630,1.55);
#157=VECTOR('',#637,1.55);
#158=VECTOR('',#642,10.);
#159=VECTOR('',#643,10.);
#160=VECTOR('',#644,10.);
#161=VECTOR('',#645,10.);
#162=VECTOR('',#648,10.);
#163=VECTOR('',#649,10.);
#164=VECTOR('',#650,10.);
#165=VECTOR('',#655,10.);
#166=VECTOR('',#660,10.);
#167=VECTOR('',#661,10.);
#168=VECTOR('',#662,10.);
#169=VECTOR('',#665,10.);
#170=VECTOR('',#666,10.);
#171=VECTOR('',#667,10.);
#172=VECTOR('',#680,7.45000000000001);
#173=VECTOR('',#685,10.);
#174=VECTOR('',#696,4.95000000000001);
#175=VECTOR('',#699,10.);
#176=VECTOR('',#700,10.);
#177=VECTOR('',#701,10.);
#178=VECTOR('',#702,10.);
#179=VECTOR('',#703,10.);
#180=VECTOR('',#704,10.);
#181=VECTOR('',#705,10.);
#182=VECTOR('',#710,10.);
#183=VECTOR('',#723,10.);
#184=VECTOR('',#726,10.);
#185=VECTOR('',#729,10.);
#186=VECTOR('',#734,10.);
#187=VECTOR('',#747,10.);
#188=VECTOR('',#758,8.05000000000003);
#189=VECTOR('',#769,14.);
#190=VECTOR('',#776,8.05000000000003);
#191=VECTOR('',#781,7.55000000000002);
#192=VECTOR('',#790,5.50000000000001);
#193=CIRCLE('',#557,1.55);
#194=CIRCLE('',#558,1.55);
#195=CIRCLE('',#560,1.55);
#196=CIRCLE('',#561,1.55);
#197=CIRCLE('',#565,8.50000000000001);
#198=CIRCLE('',#566,8.50000000000001);
#199=CIRCLE('',#570,3.99999999999999);
#200=CIRCLE('',#571,3.99999999999999);
#201=CIRCLE('',#574,9.95000000000001);
#202=CIRCLE('',#575,4.95000000000001);
#203=CIRCLE('',#577,588.789910456795);
#204=CIRCLE('',#578,25.);
#205=CIRCLE('',#579,330.860013530145);
#206=CIRCLE('',#581,4.95000000000001);
#207=CIRCLE('',#584,588.789910456795);
#208=CIRCLE('',#585,588.789910456795);
#209=CIRCLE('',#587,330.860013530145);
#210=CIRCLE('',#588,25.);
#211=CIRCLE('',#589,15.);
#212=CIRCLE('',#591,330.860013530145);
#213=CIRCLE('',#592,330.860013530145);
#214=CIRCLE('',#594,588.789910456795);
#215=CIRCLE('',#596,583.569747057261);
#216=CIRCLE('',#597,58.2985091394037);
#217=CIRCLE('',#598,25.);
#218=CIRCLE('',#600,583.569747057261);
#219=CIRCLE('',#602,25.);
#220=CIRCLE('',#603,58.2985091394037);
#221=CIRCLE('',#604,8.55000000000004);
#222=CIRCLE('',#606,7.55000000000003);
#223=CIRCLE('',#608,5.50000000000001);
#224=CIRCLE('',#610,13.);
#225=CIRCLE('',#612,8.55000000000004);
#226=CIRCLE('',#614,7.55000000000003);
#227=CIRCLE('',#616,7.55000000000003);
#228=CIRCLE('',#618,5.50000000000001);
#229=VERTEX_POINT('',#801);
#230=VERTEX_POINT('',#803);
#231=VERTEX_POINT('',#807);
#232=VERTEX_POINT('',#809);
#233=VERTEX_POINT('',#813);
#234=VERTEX_POINT('',#814);
#235=VERTEX_POINT('',#816);
#236=VERTEX_POINT('',#818);
#237=VERTEX_POINT('',#822);
#238=VERTEX_POINT('',#824);
#239=VERTEX_POINT('',#828);
#240=VERTEX_POINT('',#830);
#241=VERTEX_POINT('',#834);
#242=VERTEX_POINT('',#836);
#243=VERTEX_POINT('',#840);
#244=VERTEX_POINT('',#842);
#245=VERTEX_POINT('',#850);
#246=VERTEX_POINT('',#852);
#247=VERTEX_POINT('',#856);
#248=VERTEX_POINT('',#857);
#249=VERTEX_POINT('',#859);
#250=VERTEX_POINT('',#861);
#251=VERTEX_POINT('',#865);
#252=VERTEX_POINT('',#869);
#253=VERTEX_POINT('',#871);
#254=VERTEX_POINT('',#873);
#255=VERTEX_POINT('',#875);
#256=VERTEX_POINT('',#877);
#257=VERTEX_POINT('',#879);
#258=VERTEX_POINT('',#883);
#259=VERTEX_POINT('',#885);
#260=VERTEX_POINT('',#889);
#261=VERTEX_POINT('',#892);
#262=VERTEX_POINT('',#895);
#263=VERTEX_POINT('',#897);
#264=VERTEX_POINT('',#899);
#265=VERTEX_POINT('',#901);
#266=VERTEX_POINT('',#905);
#267=VERTEX_POINT('',#909);
#268=VERTEX_POINT('',#914);
#269=VERTEX_POINT('',#920);
#270=VERTEX_POINT('',#923);
#271=VERTEX_POINT('',#927);
#272=VERTEX_POINT('',#930);
#273=VERTEX_POINT('',#934);
#274=VERTEX_POINT('',#937);
#275=VERTEX_POINT('',#941);
#276=VERTEX_POINT('',#945);
#277=EDGE_CURVE('',#229,#229,#193,.T.);
#278=EDGE_CURVE('',#229,#230,#119,.T.);
#279=EDGE_CURVE('',#230,#230,#194,.T.);
#280=EDGE_CURVE('',#231,#231,#195,.T.);
#281=EDGE_CURVE('',#231,#232,#120,.T.);
#282=EDGE_CURVE('',#232,#232,#196,.T.);
#283=EDGE_CURVE('',#233,#234,#121,.T.);
#284=EDGE_CURVE('',#233,#235,#122,.T.);
#285=EDGE_CURVE('',#235,#236,#123,.T.);
#286=EDGE_CURVE('',#234,#236,#124,.T.);
#287=EDGE_CURVE('',#237,#233,#125,.T.);
#288=EDGE_CURVE('',#237,#238,#126,.T.);
#289=EDGE_CURVE('',#238,#235,#127,.T.);
#290=EDGE_CURVE('',#239,#237,#197,.T.);
#291=EDGE_CURVE('',#239,#240,#128,.T.);
#292=EDGE_CURVE('',#240,#238,#198,.T.);
#293=EDGE_CURVE('',#241,#239,#129,.T.);
#294=EDGE_CURVE('',#241,#242,#130,.T.);
#295=EDGE_CURVE('',#242,#240,#131,.T.);
#296=EDGE_CURVE('',#243,#241,#132,.T.);
#297=EDGE_CURVE('',#243,#244,#133,.T.);
#298=EDGE_CURVE('',#244,#242,#134,.T.);
#299=EDGE_CURVE('',#234,#243,#199,.T.);
#300=EDGE_CURVE('',#236,#244,#200,.T.);
#301=EDGE_CURVE('',#245,#245,#201,.T.);
#302=EDGE_CURVE('',#245,#246,#135,.T.);
#303=EDGE_CURVE('',#246,#246,#202,.T.);
#304=EDGE_CURVE('',#247,#248,#136,.T.);
#305=EDGE_CURVE('',#249,#248,#203,.T.);
#306=EDGE_CURVE('',#249,#250,#204,.T.);
#307=EDGE_CURVE('',#250,#247,#205,.T.);
#308=EDGE_CURVE('',#251,#251,#206,.T.);
#309=EDGE_CURVE('',#251,#246,#137,.T.);
#310=EDGE_CURVE('',#248,#252,#138,.T.);
#311=EDGE_CURVE('',#253,#247,#139,.T.);
#312=EDGE_CURVE('',#254,#253,#140,.T.);
#313=EDGE_CURVE('',#255,#254,#141,.T.);
#314=EDGE_CURVE('',#256,#255,#142,.T.);
#315=EDGE_CURVE('',#257,#256,#143,.T.);
#316=EDGE_CURVE('',#252,#257,#144,.T.);
#317=EDGE_CURVE('',#258,#254,#207,.T.);
#318=EDGE_CURVE('',#259,#258,#145,.T.);
#319=EDGE_CURVE('',#259,#255,#208,.T.);
#320=EDGE_CURVE('',#253,#260,#209,.T.);
#321=EDGE_CURVE('',#260,#258,#210,.T.);
#322=EDGE_CURVE('',#261,#261,#211,.T.);
#323=EDGE_CURVE('',#250,#262,#146,.T.);
#324=EDGE_CURVE('',#263,#262,#212,.T.);
#325=EDGE_CURVE('',#264,#263,#147,.T.);
#326=EDGE_CURVE('',#265,#264,#213,.T.);
#327=EDGE_CURVE('',#265,#260,#148,.T.);
#328=EDGE_CURVE('',#266,#252,#214,.T.);
#329=EDGE_CURVE('',#249,#266,#149,.T.);
#330=EDGE_CURVE('',#257,#267,#215,.T.);
#331=EDGE_CURVE('',#267,#263,#216,.T.);
#332=EDGE_CURVE('',#262,#266,#217,.T.);
#333=EDGE_CURVE('',#268,#256,#218,.T.);
#334=EDGE_CURVE('',#268,#267,#150,.T.);
#335=EDGE_CURVE('',#259,#265,#219,.T.);
#336=EDGE_CURVE('',#264,#268,#220,.T.);
#337=EDGE_CURVE('',#269,#269,#221,.T.);
#338=EDGE_CURVE('',#269,#270,#151,.T.);
#339=EDGE_CURVE('',#270,#270,#222,.T.);
#340=EDGE_CURVE('',#271,#271,#223,.T.);
#341=EDGE_CURVE('',#272,#272,#224,.T.);
#342=EDGE_CURVE('',#272,#261,#152,.T.);
#343=EDGE_CURVE('',#273,#273,#225,.T.);
#344=EDGE_CURVE('',#273,#274,#153,.T.);
#345=EDGE_CURVE('',#274,#274,#226,.T.);
#346=EDGE_CURVE('',#274,#275,#154,.T.);
#347=EDGE_CURVE('',#275,#275,#227,.T.);
#348=EDGE_CURVE('',#276,#276,#228,.T.);
#349=EDGE_CURVE('',#276,#271,#155,.T.);
#350=ORIENTED_EDGE('',*,*,#277,.F.);
#351=ORIENTED_EDGE('',*,*,#278,.T.);
#352=ORIENTED_EDGE('',*,*,#279,.F.);
#353=ORIENTED_EDGE('',*,*,#278,.F.);
#354=ORIENTED_EDGE('',*,*,#280,.F.);
#355=ORIENTED_EDGE('',*,*,#281,.T.);
#356=ORIENTED_EDGE('',*,*,#282,.F.);
#357=ORIENTED_EDGE('',*,*,#281,.F.);
#358=ORIENTED_EDGE('',*,*,#283,.F.);
#359=ORIENTED_EDGE('',*,*,#284,.T.);
#360=ORIENTED_EDGE('',*,*,#285,.T.);
#361=ORIENTED_EDGE('',*,*,#286,.F.);
#362=ORIENTED_EDGE('',*,*,#287,.F.);
#363=ORIENTED_EDGE('',*,*,#288,.T.);
#364=ORIENTED_EDGE('',*,*,#289,.T.);
#365=ORIENTED_EDGE('',*,*,#284,.F.);
#366=ORIENTED_EDGE('',*,*,#290,.F.);
#367=ORIENTED_EDGE('',*,*,#291,.T.);
#368=ORIENTED_EDGE('',*,*,#292,.T.);
#369=ORIENTED_EDGE('',*,*,#288,.F.);
#370=ORIENTED_EDGE('',*,*,#293,.F.);
#371=ORIENTED_EDGE('',*,*,#294,.T.);
#372=ORIENTED_EDGE('',*,*,#295,.T.);
#373=ORIENTED_EDGE('',*,*,#291,.F.);
#374=ORIENTED_EDGE('',*,*,#296,.F.);
#375=ORIENTED_EDGE('',*,*,#297,.T.);
#376=ORIENTED_EDGE('',*,*,#298,.T.);
#377=ORIENTED_EDGE('',*,*,#294,.F.);
#378=ORIENTED_EDGE('',*,*,#299,.F.);
#379=ORIENTED_EDGE('',*,*,#286,.T.);
#380=ORIENTED_EDGE('',*,*,#300,.T.);
#381=ORIENTED_EDGE('',*,*,#297,.F.);
#382=ORIENTED_EDGE('',*,*,#300,.F.);
#383=ORIENTED_EDGE('',*,*,#285,.F.);
#384=ORIENTED_EDGE('',*,*,#289,.F.);
#385=ORIENTED_EDGE('',*,*,#292,.F.);
#386=ORIENTED_EDGE('',*,*,#295,.F.);
#387=ORIENTED_EDGE('',*,*,#298,.F.);
#388=ORIENTED_EDGE('',*,*,#279,.T.);
#389=ORIENTED_EDGE('',*,*,#282,.T.);
#390=ORIENTED_EDGE('',*,*,#301,.T.);
#391=ORIENTED_EDGE('',*,*,#302,.T.);
#392=ORIENTED_EDGE('',*,*,#303,.T.);
#393=ORIENTED_EDGE('',*,*,#302,.F.);
#394=ORIENTED_EDGE('',*,*,#304,.T.);
#395=ORIENTED_EDGE('',*,*,#305,.F.);
#396=ORIENTED_EDGE('',*,*,#306,.T.);
#397=ORIENTED_EDGE('',*,*,#307,.T.);
#398=ORIENTED_EDGE('',*,*,#277,.T.);
#399=ORIENTED_EDGE('',*,*,#280,.T.);
#400=ORIENTED_EDGE('',*,*,#301,.F.);
#401=ORIENTED_EDGE('',*,*,#308,.F.);
#402=ORIENTED_EDGE('',*,*,#309,.T.);
#403=ORIENTED_EDGE('',*,*,#303,.F.);
#404=ORIENTED_EDGE('',*,*,#309,.F.);
#405=ORIENTED_EDGE('',*,*,#310,.F.);
#406=ORIENTED_EDGE('',*,*,#304,.F.);
#407=ORIENTED_EDGE('',*,*,#311,.F.);
#408=ORIENTED_EDGE('',*,*,#312,.F.);
#409=ORIENTED_EDGE('',*,*,#313,.F.);
#410=ORIENTED_EDGE('',*,*,#314,.F.);
#411=ORIENTED_EDGE('',*,*,#315,.F.);
#412=ORIENTED_EDGE('',*,*,#316,.F.);
#413=ORIENTED_EDGE('',*,*,#313,.T.);
#414=ORIENTED_EDGE('',*,*,#317,.F.);
#415=ORIENTED_EDGE('',*,*,#318,.F.);
#416=ORIENTED_EDGE('',*,*,#319,.T.);
#417=ORIENTED_EDGE('',*,*,#312,.T.);
#418=ORIENTED_EDGE('',*,*,#320,.T.);
#419=ORIENTED_EDGE('',*,*,#321,.T.);
#420=ORIENTED_EDGE('',*,*,#317,.T.);
#421=ORIENTED_EDGE('',*,*,#322,.T.);
#422=ORIENTED_EDGE('',*,*,#311,.T.);
#423=ORIENTED_EDGE('',*,*,#307,.F.);
#424=ORIENTED_EDGE('',*,*,#323,.T.);
#425=ORIENTED_EDGE('',*,*,#324,.F.);
#426=ORIENTED_EDGE('',*,*,#325,.F.);
#427=ORIENTED_EDGE('',*,*,#326,.F.);
#428=ORIENTED_EDGE('',*,*,#327,.T.);
#429=ORIENTED_EDGE('',*,*,#320,.F.);
#430=ORIENTED_EDGE('',*,*,#310,.T.);
#431=ORIENTED_EDGE('',*,*,#328,.F.);
#432=ORIENTED_EDGE('',*,*,#329,.F.);
#433=ORIENTED_EDGE('',*,*,#305,.T.);
#434=ORIENTED_EDGE('',*,*,#316,.T.);
#435=ORIENTED_EDGE('',*,*,#330,.T.);
#436=ORIENTED_EDGE('',*,*,#331,.T.);
#437=ORIENTED_EDGE('',*,*,#324,.T.);
#438=ORIENTED_EDGE('',*,*,#332,.T.);
#439=ORIENTED_EDGE('',*,*,#328,.T.);
#440=ORIENTED_EDGE('',*,*,#283,.T.);
#441=ORIENTED_EDGE('',*,*,#299,.T.);
#442=ORIENTED_EDGE('',*,*,#296,.T.);
#443=ORIENTED_EDGE('',*,*,#293,.T.);
#444=ORIENTED_EDGE('',*,*,#290,.T.);
#445=ORIENTED_EDGE('',*,*,#287,.T.);
#446=ORIENTED_EDGE('',*,*,#315,.T.);
#447=ORIENTED_EDGE('',*,*,#333,.F.);
#448=ORIENTED_EDGE('',*,*,#334,.T.);
#449=ORIENTED_EDGE('',*,*,#330,.F.);
#450=ORIENTED_EDGE('',*,*,#314,.T.);
#451=ORIENTED_EDGE('',*,*,#319,.F.);
#452=ORIENTED_EDGE('',*,*,#335,.T.);
#453=ORIENTED_EDGE('',*,*,#326,.T.);
#454=ORIENTED_EDGE('',*,*,#336,.T.);
#455=ORIENTED_EDGE('',*,*,#333,.T.);
#456=ORIENTED_EDGE('',*,*,#337,.F.);
#457=ORIENTED_EDGE('',*,*,#337,.T.);
#458=ORIENTED_EDGE('',*,*,#338,.T.);
#459=ORIENTED_EDGE('',*,*,#339,.F.);
#460=ORIENTED_EDGE('',*,*,#338,.F.);
#461=ORIENTED_EDGE('',*,*,#339,.T.);
#462=ORIENTED_EDGE('',*,*,#340,.T.);
#463=ORIENTED_EDGE('',*,*,#341,.T.);
#464=ORIENTED_EDGE('',*,*,#342,.T.);
#465=ORIENTED_EDGE('',*,*,#322,.F.);
#466=ORIENTED_EDGE('',*,*,#342,.F.);
#467=ORIENTED_EDGE('',*,*,#341,.F.);
#468=ORIENTED_EDGE('',*,*,#343,.F.);
#469=ORIENTED_EDGE('',*,*,#343,.T.);
#470=ORIENTED_EDGE('',*,*,#344,.T.);
#471=ORIENTED_EDGE('',*,*,#345,.T.);
#472=ORIENTED_EDGE('',*,*,#344,.F.);
#473=ORIENTED_EDGE('',*,*,#345,.F.);
#474=ORIENTED_EDGE('',*,*,#346,.T.);
#475=ORIENTED_EDGE('',*,*,#347,.T.);
#476=ORIENTED_EDGE('',*,*,#346,.F.);
#477=ORIENTED_EDGE('',*,*,#347,.F.);
#478=ORIENTED_EDGE('',*,*,#348,.F.);
#479=ORIENTED_EDGE('',*,*,#348,.T.);
#480=ORIENTED_EDGE('',*,*,#349,.T.);
#481=ORIENTED_EDGE('',*,*,#340,.F.);
#482=ORIENTED_EDGE('',*,*,#349,.F.);
#483=ORIENTED_EDGE('',*,*,#308,.T.);
#484=ORIENTED_EDGE('',*,*,#306,.F.);
#485=ORIENTED_EDGE('',*,*,#329,.T.);
#486=ORIENTED_EDGE('',*,*,#332,.F.);
#487=ORIENTED_EDGE('',*,*,#323,.F.);
#488=ORIENTED_EDGE('',*,*,#335,.F.);
#489=ORIENTED_EDGE('',*,*,#318,.T.);
#490=ORIENTED_EDGE('',*,*,#321,.F.);
#491=ORIENTED_EDGE('',*,*,#327,.F.);
#492=ORIENTED_EDGE('',*,*,#336,.F.);
#493=ORIENTED_EDGE('',*,*,#325,.T.);
#494=ORIENTED_EDGE('',*,*,#331,.F.);
#495=ORIENTED_EDGE('',*,*,#334,.F.);
#496=CYLINDRICAL_SURFACE('',#556,1.55);
#497=CYLINDRICAL_SURFACE('',#559,1.55);
#498=CYLINDRICAL_SURFACE('',#564,8.50000000000001);
#499=CYLINDRICAL_SURFACE('',#569,3.99999999999999);
#500=CYLINDRICAL_SURFACE('',#580,4.95000000000001);
#501=CYLINDRICAL_SURFACE('',#583,588.789910456795);
#502=CYLINDRICAL_SURFACE('',#590,330.860013530144);
#503=CYLINDRICAL_SURFACE('',#593,588.789910456795);
#504=CYLINDRICAL_SURFACE('',#599,583.569747057261);
#505=CYLINDRICAL_SURFACE('',#615,7.55000000000003);
#506=CYLINDRICAL_SURFACE('',#619,5.50000000000001);
#507=CYLINDRICAL_SURFACE('',#621,25.);
#508=CYLINDRICAL_SURFACE('',#622,25.);
#509=CYLINDRICAL_SURFACE('',#623,58.2985091394037);
#510=ADVANCED_FACE('',(#44),#496,.F.);
#511=ADVANCED_FACE('',(#45),#497,.F.);
#512=ADVANCED_FACE('',(#46),#30,.F.);
#513=ADVANCED_FACE('',(#47),#31,.F.);
#514=ADVANCED_FACE('',(#48),#498,.F.);
#515=ADVANCED_FACE('',(#49),#32,.F.);
#516=ADVANCED_FACE('',(#50),#33,.F.);
#517=ADVANCED_FACE('',(#51),#499,.F.);
#518=ADVANCED_FACE('',(#52,#19,#20),#34,.T.);
#519=ADVANCED_FACE('',(#53),#15,.T.);
#520=ADVANCED_FACE('',(#54,#21,#22,#23),#35,.T.);
#521=ADVANCED_FACE('',(#55),#500,.T.);
#522=ADVANCED_FACE('',(#56),#36,.F.);
#523=ADVANCED_FACE('',(#57),#501,.F.);
#524=ADVANCED_FACE('',(#58,#24),#37,.F.);
#525=ADVANCED_FACE('',(#59),#502,.T.);
#526=ADVANCED_FACE('',(#60),#503,.F.);
#527=ADVANCED_FACE('',(#61,#25),#38,.F.);
#528=ADVANCED_FACE('',(#62),#504,.F.);
#529=ADVANCED_FACE('',(#63,#26),#39,.T.);
#530=ADVANCED_FACE('',(#64),#16,.T.);
#531=ADVANCED_FACE('',(#65,#27),#40,.F.);
#532=ADVANCED_FACE('',(#66),#17,.T.);
#533=ADVANCED_FACE('',(#67,#28),#41,.T.);
#534=ADVANCED_FACE('',(#68),#18,.F.);
#535=ADVANCED_FACE('',(#69),#505,.F.);
#536=ADVANCED_FACE('',(#70,#29),#42,.T.);
#537=ADVANCED_FACE('',(#71),#506,.F.);
#538=ADVANCED_FACE('',(#72),#43,.T.);
#539=ADVANCED_FACE('',(#73),#507,.T.);
#540=ADVANCED_FACE('',(#74),#508,.T.);
#541=ADVANCED_FACE('',(#75),#509,.F.);
#542=CLOSED_SHELL('',(#510,#511,#512,#513,#514,#515,#516,#517,#518,#519,
#520,#521,#522,#523,#524,#525,#526,#527,#528,#529,#530,#531,#532,#533,#534,
#535,#536,#537,#538,#539,#540,#541));
#543=DERIVED_UNIT_ELEMENT(#545,1.);
#544=DERIVED_UNIT_ELEMENT(#958,-3.);
#545=(
MASS_UNIT()
NAMED_UNIT(*)
SI_UNIT(.KILO.,.GRAM.)
);
#546=DERIVED_UNIT((#543,#544));
#547=MEASURE_REPRESENTATION_ITEM('density measure',
POSITIVE_RATIO_MEASURE(7850.),#546);
#548=PROPERTY_DEFINITION_REPRESENTATION(#553,#550);
#549=PROPERTY_DEFINITION_REPRESENTATION(#554,#551);
#550=REPRESENTATION('material name',(#552),#955);
#551=REPRESENTATION('density',(#547),#955);
#552=DESCRIPTIVE_REPRESENTATION_ITEM('Steel','Steel');
#553=PROPERTY_DEFINITION('material property','material name',#965);
#554=PROPERTY_DEFINITION('material property','density of part',#965);
#555=AXIS2_PLACEMENT_3D('',#799,#624,#625);
#556=AXIS2_PLACEMENT_3D('',#800,#626,#627);
#557=AXIS2_PLACEMENT_3D('',#802,#628,#629);
#558=AXIS2_PLACEMENT_3D('',#805,#631,#632);
#559=AXIS2_PLACEMENT_3D('',#806,#633,#634);
#560=AXIS2_PLACEMENT_3D('',#808,#635,#636);
#561=AXIS2_PLACEMENT_3D('',#811,#638,#639);
#562=AXIS2_PLACEMENT_3D('',#812,#640,#641);
#563=AXIS2_PLACEMENT_3D('',#821,#646,#647);
#564=AXIS2_PLACEMENT_3D('',#827,#651,#652);
#565=AXIS2_PLACEMENT_3D('',#829,#653,#654);
#566=AXIS2_PLACEMENT_3D('',#832,#656,#657);
#567=AXIS2_PLACEMENT_3D('',#833,#658,#659);
#568=AXIS2_PLACEMENT_3D('',#839,#663,#664);
#569=AXIS2_PLACEMENT_3D('',#845,#668,#669);
#570=AXIS2_PLACEMENT_3D('',#846,#670,#671);
#571=AXIS2_PLACEMENT_3D('',#847,#672,#673);
#572=AXIS2_PLACEMENT_3D('',#848,#674,#675);
#573=AXIS2_PLACEMENT_3D('',#849,#676,#677);
#574=AXIS2_PLACEMENT_3D('',#851,#678,#679);
#575=AXIS2_PLACEMENT_3D('',#854,#681,#682);
#576=AXIS2_PLACEMENT_3D('',#855,#683,#684);
#577=AXIS2_PLACEMENT_3D('',#860,#686,#687);
#578=AXIS2_PLACEMENT_3D('',#862,#688,#689);
#579=AXIS2_PLACEMENT_3D('',#863,#690,#691);
#580=AXIS2_PLACEMENT_3D('',#864,#692,#693);
#581=AXIS2_PLACEMENT_3D('',#866,#694,#695);
#582=AXIS2_PLACEMENT_3D('',#868,#697,#698);
#583=AXIS2_PLACEMENT_3D('',#882,#706,#707);
#584=AXIS2_PLACEMENT_3D('',#884,#708,#709);
#585=AXIS2_PLACEMENT_3D('',#887,#711,#712);
#586=AXIS2_PLACEMENT_3D('',#888,#713,#714);
#587=AXIS2_PLACEMENT_3D('',#890,#715,#716);
#588=AXIS2_PLACEMENT_3D('',#891,#717,#718);
#589=AXIS2_PLACEMENT_3D('',#893,#719,#720);
#590=AXIS2_PLACEMENT_3D('',#894,#721,#722);
#591=AXIS2_PLACEMENT_3D('',#898,#724,#725);
#592=AXIS2_PLACEMENT_3D('',#902,#727,#728);
#593=AXIS2_PLACEMENT_3D('',#904,#730,#731);
#594=AXIS2_PLACEMENT_3D('',#906,#732,#733);
#595=AXIS2_PLACEMENT_3D('',#908,#735,#736);
#596=AXIS2_PLACEMENT_3D('',#910,#737,#738);
#597=AXIS2_PLACEMENT_3D('',#911,#739,#740);
#598=AXIS2_PLACEMENT_3D('',#912,#741,#742);
#599=AXIS2_PLACEMENT_3D('',#913,#743,#744);
#600=AXIS2_PLACEMENT_3D('',#915,#745,#746);
#601=AXIS2_PLACEMENT_3D('',#917,#748,#749);
#602=AXIS2_PLACEMENT_3D('',#918,#750,#751);
#603=AXIS2_PLACEMENT_3D('',#919,#752,#753);
#604=AXIS2_PLACEMENT_3D('',#921,#754,#755);
#605=AXIS2_PLACEMENT_3D('',#922,#756,#757);
#606=AXIS2_PLACEMENT_3D('',#925,#759,#760);
#607=AXIS2_PLACEMENT_3D('',#926,#761,#762);
#608=AXIS2_PLACEMENT_3D('',#928,#763,#764);
#609=AXIS2_PLACEMENT_3D('',#929,#765,#766);
#610=AXIS2_PLACEMENT_3D('',#931,#767,#768);
#611=AXIS2_PLACEMENT_3D('',#933,#770,#771);
#612=AXIS2_PLACEMENT_3D('',#935,#772,#773);
#613=AXIS2_PLACEMENT_3D('',#936,#774,#775);
#614=AXIS2_PLACEMENT_3D('',#939,#777,#778);
#615=AXIS2_PLACEMENT_3D('',#940,#779,#780);
#616=AXIS2_PLACEMENT_3D('',#943,#782,#783);
#617=AXIS2_PLACEMENT_3D('',#944,#784,#785);
#618=AXIS2_PLACEMENT_3D('',#946,#786,#787);
#619=AXIS2_PLACEMENT_3D('',#947,#788,#789);
#620=AXIS2_PLACEMENT_3D('',#949,#791,#792);
#621=AXIS2_PLACEMENT_3D('',#950,#793,#794);
#622=AXIS2_PLACEMENT_3D('',#951,#795,#796);
#623=AXIS2_PLACEMENT_3D('',#952,#797,#798);
#624=DIRECTION('axis',(0.,0.,1.));
#625=DIRECTION('refdir',(1.,0.,0.));
#626=DIRECTION('center_axis',(-1.,0.,0.));
#627=DIRECTION('ref_axis',(0.,1.,0.));
#628=DIRECTION('center_axis',(-1.,0.,0.));
#629=DIRECTION('ref_axis',(0.,1.,0.));
#630=DIRECTION('',(-1.,0.,0.));
#631=DIRECTION('center_axis',(1.,0.,0.));
#632=DIRECTION('ref_axis',(0.,1.,0.));
#633=DIRECTION('center_axis',(-1.,0.,0.));
#634=DIRECTION('ref_axis',(0.,1.,0.));
#635=DIRECTION('center_axis',(-1.,0.,0.));
#636=DIRECTION('ref_axis',(0.,1.,0.));
#637=DIRECTION('',(-1.,0.,0.));
#638=DIRECTION('center_axis',(1.,0.,0.));
#639=DIRECTION('ref_axis',(0.,1.,0.));
#640=DIRECTION('center_axis',(0.,-3.58136459556504E-16,-1.));
#641=DIRECTION('ref_axis',(0.,1.,-3.58136459556504E-16));
#642=DIRECTION('',(0.,1.,-3.58136459556504E-16));
#643=DIRECTION('',(1.,0.,0.));
#644=DIRECTION('',(0.,1.,-3.58136459556504E-16));
#645=DIRECTION('',(1.,0.,0.));
#646=DIRECTION('center_axis',(0.,0.581883728138336,-0.813271988284259));
#647=DIRECTION('ref_axis',(0.,0.813271988284259,0.581883728138336));
#648=DIRECTION('',(0.,0.813271988284259,0.581883728138336));
#649=DIRECTION('',(1.,0.,0.));
#650=DIRECTION('',(0.,0.813271988284259,0.581883728138336));
#651=DIRECTION('center_axis',(1.,0.,0.));
#652=DIRECTION('ref_axis',(0.,-1.,1.30614473485312E-16));
#653=DIRECTION('center_axis',(1.,0.,0.));
#654=DIRECTION('ref_axis',(0.,-1.,1.30614473485312E-16));
#655=DIRECTION('',(1.,0.,0.));
#656=DIRECTION('center_axis',(1.,0.,0.));
#657=DIRECTION('ref_axis',(0.,-1.,1.30614473485312E-16));
#658=DIRECTION('center_axis',(0.,0.58297597542274,0.812489391979923));
#659=DIRECTION('ref_axis',(0.,-0.812489391979923,0.58297597542274));
#660=DIRECTION('',(0.,-0.812489391979923,0.58297597542274));
#661=DIRECTION('',(1.,0.,0.));
#662=DIRECTION('',(0.,-0.812489391979923,0.58297597542274));
#663=DIRECTION('center_axis',(0.,-2.86509167645204E-16,1.));
#664=DIRECTION('ref_axis',(0.,-1.,-2.86509167645204E-16));
#665=DIRECTION('',(0.,-1.,-2.86509167645204E-16));
#666=DIRECTION('',(1.,0.,0.));
#667=DIRECTION('',(0.,-1.,-2.86509167645204E-16));
#668=DIRECTION('center_axis',(1.,0.,0.));
#669=DIRECTION('ref_axis',(0.,1.,-2.02660911500301E-8));
#670=DIRECTION('center_axis',(1.,0.,0.));
#671=DIRECTION('ref_axis',(0.,-1.,0.));
#672=DIRECTION('center_axis',(1.,0.,0.));
#673=DIRECTION('ref_axis',(0.,-1.,0.));
#674=DIRECTION('center_axis',(-1.,0.,0.));
#675=DIRECTION('ref_axis',(0.,0.,1.));
#676=DIRECTION('center_axis',(-1.,0.,0.));
#677=DIRECTION('ref_axis',(0.,1.,0.));
#678=DIRECTION('center_axis',(1.,0.,0.));
#679=DIRECTION('ref_axis',(0.,1.,0.));
#680=DIRECTION('',(0.287347885566345,0.957826285221151,-1.17299889433528E-16));
#681=DIRECTION('center_axis',(-1.,0.,0.));
#682=DIRECTION('ref_axis',(0.,1.,0.));
#683=DIRECTION('center_axis',(1.,0.,0.));
#684=DIRECTION('ref_axis',(0.,1.,0.));
#685=DIRECTION('',(0.,0.,1.));
#686=DIRECTION('center_axis',(1.,0.,0.));
#687=DIRECTION('ref_axis',(0.,-0.285488172313206,-0.958382232446567));
#688=DIRECTION('center_axis',(1.,0.,0.));
#689=DIRECTION('ref_axis',(0.,1.,0.));
#690=DIRECTION('center_axis',(1.,0.,0.));
#691=DIRECTION('ref_axis',(0.,-0.115262042037506,-0.993335120523454));
#692=DIRECTION('center_axis',(1.,0.,0.));
#693=DIRECTION('ref_axis',(0.,1.,0.));
#694=DIRECTION('center_axis',(1.,0.,0.));
#695=DIRECTION('ref_axis',(0.,1.,0.));
#696=DIRECTION('',(-1.,0.,0.));
#697=DIRECTION('center_axis',(0.,-1.,0.));
#698=DIRECTION('ref_axis',(0.,0.,-1.));
#699=DIRECTION('',(-1.,0.,0.));
#700=DIRECTION('',(1.,0.,0.));
#701=DIRECTION('',(0.,0.,-1.));
#702=DIRECTION('',(-1.,0.,0.));
#703=DIRECTION('',(0.,0.,1.));
#704=DIRECTION('',(-1.,0.,0.));
#705=DIRECTION('',(0.,0.,-1.));
#706=DIRECTION('center_axis',(-1.,0.,0.));
#707=DIRECTION('ref_axis',(0.,-0.285488172313206,-0.958382232446567));
#708=DIRECTION('center_axis',(1.,0.,0.));
#709=DIRECTION('ref_axis',(0.,-0.285488172313206,-0.958382232446567));
#710=DIRECTION('',(-1.,0.,0.));
#711=DIRECTION('center_axis',(1.,0.,0.));
#712=DIRECTION('ref_axis',(0.,-0.285488172313206,-0.958382232446567));
#713=DIRECTION('center_axis',(1.,0.,0.));
#714=DIRECTION('ref_axis',(0.,1.,6.93889390390723E-18));
#715=DIRECTION('center_axis',(-1.,0.,0.));
#716=DIRECTION('ref_axis',(0.,-0.115262042037506,-0.993335120523454));
#717=DIRECTION('center_axis',(-1.,0.,0.));
#718=DIRECTION('ref_axis',(0.,1.,6.93889390390723E-18));
#719=DIRECTION('center_axis',(1.,0.,0.));
#720=DIRECTION('ref_axis',(0.,-1.,0.));
#721=DIRECTION('center_axis',(1.,0.,0.));
#722=DIRECTION('ref_axis',(0.,-0.115262042037506,-0.993335120523454));
#723=DIRECTION('',(-1.,0.,0.));
#724=DIRECTION('center_axis',(-1.,0.,0.));
#725=DIRECTION('ref_axis',(0.,-0.115262042037506,-0.993335120523454));
#726=DIRECTION('',(1.,0.,0.));
#727=DIRECTION('center_axis',(1.,0.,0.));
#728=DIRECTION('ref_axis',(0.,-0.115262042037506,-0.993335120523454));
#729=DIRECTION('',(-1.,0.,0.));
#730=DIRECTION('center_axis',(-1.,0.,0.));
#731=DIRECTION('ref_axis',(0.,-0.285488172313206,-0.958382232446567));
#732=DIRECTION('center_axis',(1.,0.,0.));
#733=DIRECTION('ref_axis',(0.,-0.285488172313206,-0.958382232446567));
#734=DIRECTION('',(-1.,0.,0.));
#735=DIRECTION('center_axis',(1.,0.,0.));
#736=DIRECTION('ref_axis',(0.,1.,0.));
#737=DIRECTION('center_axis',(-1.,0.,0.));
#738=DIRECTION('ref_axis',(0.,-0.22509691957727,-0.974336377642149));
#739=DIRECTION('center_axis',(-1.,0.,0.));
#740=DIRECTION('ref_axis',(0.,0.795318076910288,-0.606192342858041));
#741=DIRECTION('center_axis',(-1.,0.,0.));
#742=DIRECTION('ref_axis',(0.,1.,0.));
#743=DIRECTION('center_axis',(1.,0.,0.));
#744=DIRECTION('ref_axis',(0.,-0.22509691957727,-0.974336377642149));
#745=DIRECTION('center_axis',(1.,0.,0.));
#746=DIRECTION('ref_axis',(0.,-0.22509691957727,-0.974336377642149));
#747=DIRECTION('',(1.,0.,0.));
#748=DIRECTION('center_axis',(1.,0.,0.));
#749=DIRECTION('ref_axis',(0.,1.,6.93889390390723E-18));
#750=DIRECTION('center_axis',(1.,0.,0.));
#751=DIRECTION('ref_axis',(0.,1.,6.93889390390723E-18));
#752=DIRECTION('center_axis',(1.,0.,0.));
#753=DIRECTION('ref_axis',(0.,0.795318076910288,-0.606192342858041));
#754=DIRECTION('center_axis',(1.,0.,0.));
#755=DIRECTION('ref_axis',(0.,-1.,0.));
#756=DIRECTION('center_axis',(-1.,0.,0.));
#757=DIRECTION('ref_axis',(0.,-1.,0.));
#758=DIRECTION('',(0.707106781186543,-0.707106781186552,8.65956056235499E-17));
#759=DIRECTION('center_axis',(1.,0.,0.));
#760=DIRECTION('ref_axis',(0.,-1.,0.));
#761=DIRECTION('center_axis',(-1.,0.,0.));
#762=DIRECTION('ref_axis',(0.,-1.,0.));
#763=DIRECTION('center_axis',(-1.,0.,0.));
#764=DIRECTION('ref_axis',(0.,-1.,0.));
#765=DIRECTION('center_axis',(1.,0.,0.));
#766=DIRECTION('ref_axis',(0.,-1.,0.));
#767=DIRECTION('center_axis',(1.,0.,0.));
#768=DIRECTION('ref_axis',(0.,-1.,0.));
#769=DIRECTION('',(0.707106781186549,0.707106781186546,-8.65956056235491E-17));
#770=DIRECTION('center_axis',(-1.,0.,0.));
#771=DIRECTION('ref_axis',(0.,-1.,0.));
#772=DIRECTION('center_axis',(-1.,0.,0.));
#773=DIRECTION('ref_axis',(0.,-1.,0.));
#774=DIRECTION('center_axis',(-1.,0.,0.));
#775=DIRECTION('ref_axis',(0.,-1.,0.));
#776=DIRECTION('',(0.707106781186543,-0.707106781186552,8.65956056235499E-17));
#777=DIRECTION('center_axis',(1.,0.,0.));
#778=DIRECTION('ref_axis',(0.,-1.,0.));
#779=DIRECTION('center_axis',(-1.,0.,0.));
#780=DIRECTION('ref_axis',(0.,-1.,0.));
#781=DIRECTION('',(1.,0.,0.));
#782=DIRECTION('center_axis',(1.,0.,0.));
#783=DIRECTION('ref_axis',(0.,-1.,0.));
#784=DIRECTION('center_axis',(-1.,0.,0.));
#785=DIRECTION('ref_axis',(0.,-1.,0.));
#786=DIRECTION('center_axis',(-1.,0.,0.));
#787=DIRECTION('ref_axis',(0.,-1.,0.));
#788=DIRECTION('center_axis',(1.,0.,0.));
#789=DIRECTION('ref_axis',(0.,-1.,0.));
#790=DIRECTION('',(1.,0.,0.));
#791=DIRECTION('center_axis',(1.,0.,0.));
#792=DIRECTION('ref_axis',(0.,1.,0.));
#793=DIRECTION('center_axis',(-1.,0.,0.));
#794=DIRECTION('ref_axis',(0.,-0.977679747477454,0.210100717210634));
#795=DIRECTION('center_axis',(-1.,0.,0.));
#796=DIRECTION('ref_axis',(0.,-0.977679747477454,0.210100717210634));
#797=DIRECTION('center_axis',(1.,0.,0.));
#798=DIRECTION('ref_axis',(0.,0.795318076910288,-0.606192342858041));
#799=CARTESIAN_POINT('',(0.,0.,0.));
#800=CARTESIAN_POINT('Origin',(36.,239.514071024256,7.91215766071535));
#801=CARTESIAN_POINT('',(38.5,237.964071024256,7.91215766071535));
#802=CARTESIAN_POINT('Origin',(38.5,239.514071024256,7.91215766071535));
#803=CARTESIAN_POINT('',(36.,237.964071024256,7.91215766071535));
#804=CARTESIAN_POINT('',(36.,237.964071024256,7.91215766071535));
#805=CARTESIAN_POINT('Origin',(36.,239.514071024256,7.91215766071535));
#806=CARTESIAN_POINT('Origin',(36.,235.514071027559,7.91199509483193));
#807=CARTESIAN_POINT('',(38.5,233.964071027559,7.91199509483193));
#808=CARTESIAN_POINT('Origin',(38.5,235.514071027559,7.91199509483193));
#809=CARTESIAN_POINT('',(36.,233.964071027559,7.91199509483193));
#810=CARTESIAN_POINT('',(36.,233.964071027559,7.91199509483193));
#811=CARTESIAN_POINT('Origin',(36.,235.514071027559,7.91199509483193));
#812=CARTESIAN_POINT('Origin',(33.5,224.014071024256,3.91215766071539));
#813=CARTESIAN_POINT('',(33.5,224.014071024256,3.91215766071539));
#814=CARTESIAN_POINT('',(33.5,239.514070862127,3.91215766071537));
#815=CARTESIAN_POINT('',(33.5,231.451571025082,3.91215766071538));
#816=CARTESIAN_POINT('',(36.,224.014071024256,3.91215766071539));
#817=CARTESIAN_POINT('',(33.5,224.014071024256,3.91215766071539));
#818=CARTESIAN_POINT('',(36.,239.514070862127,3.91215766071537));
#819=CARTESIAN_POINT('',(36.,224.511235078482,3.91215766071539));
#820=CARTESIAN_POINT('',(33.5,239.514070862127,3.91215766071537));
#821=CARTESIAN_POINT('Origin',(33.5,219.948738930335,1.00347442926467));
#822=CARTESIAN_POINT('',(33.5,219.948738930335,1.00347442926468));
#823=CARTESIAN_POINT('',(33.5,227.847111194934,6.65463955699174));
#824=CARTESIAN_POINT('',(36.,219.948738930335,1.00347442926468));
#825=CARTESIAN_POINT('',(33.5,219.948738930335,1.00347442926468));
#826=CARTESIAN_POINT('',(36.,223.257671291632,3.37096516580322));
#827=CARTESIAN_POINT('Origin',(33.5,215.002727241161,7.91628632968241));
#828=CARTESIAN_POINT('',(33.5,219.958023032252,14.8224461615134));
#829=CARTESIAN_POINT('Origin',(33.5,215.002727241161,7.91628632968241));
#830=CARTESIAN_POINT('',(36.,219.958023032252,14.8224461615134));
#831=CARTESIAN_POINT('',(33.5,219.958023032252,14.8224461615134));
#832=CARTESIAN_POINT('Origin',(36.,215.002727241161,7.91628632968241));
#833=CARTESIAN_POINT('Origin',(33.5,224.014071024256,11.9121576607153));
#834=CARTESIAN_POINT('',(33.5,224.014071024256,11.9121576607153));
#835=CARTESIAN_POINT('',(33.5,229.871178518766,7.70957607814616));
#836=CARTESIAN_POINT('',(36.,224.014071024256,11.9121576607153));
#837=CARTESIAN_POINT('',(33.5,224.014071024256,11.9121576607153));
#838=CARTESIAN_POINT('',(36.,225.288614207096,10.9976496528951));
#839=CARTESIAN_POINT('Origin',(33.5,239.514071024256,11.9121576607153));
#840=CARTESIAN_POINT('',(33.5,239.514071024256,11.9121576607153));
#841=CARTESIAN_POINT('',(33.5,239.201571025082,11.9121576607153));
#842=CARTESIAN_POINT('',(36.,239.514071024256,11.9121576607153));
#843=CARTESIAN_POINT('',(33.5,239.514071024256,11.9121576607153));
#844=CARTESIAN_POINT('',(36.,232.261235078482,11.9121576607153));
#845=CARTESIAN_POINT('Origin',(33.5,239.514071024256,7.91215766071535));
#846=CARTESIAN_POINT('Origin',(33.5,239.514071024256,7.91215766071535));
#847=CARTESIAN_POINT('Origin',(36.,239.514071024256,7.91215766071535));
#848=CARTESIAN_POINT('Origin',(36.,225.008399132708,7.91628632968241));
#849=CARTESIAN_POINT('Origin',(39.25,215.002727241161,7.91628632968241));
#850=CARTESIAN_POINT('',(38.5,205.052727241161,7.91628632968241));
#851=CARTESIAN_POINT('Origin',(38.5,215.002727241161,7.91628632968241));
#852=CARTESIAN_POINT('',(40.,210.052727241161,7.91628632968241));
#853=CARTESIAN_POINT('',(39.25,207.552727241161,7.91628632968241));
#854=CARTESIAN_POINT('Origin',(40.,215.002727241161,7.91628632968241));
#855=CARTESIAN_POINT('Origin',(38.5,238.889071025907,7.91215766071535));
#856=CARTESIAN_POINT('',(38.5,292.099995613098,-16.9802421415413));
#857=CARTESIAN_POINT('',(38.5,292.099995613098,15.8008508166915));
#858=CARTESIAN_POINT('',(38.5,292.099995613098,7.3629514955998));
#859=CARTESIAN_POINT('',(38.5,225.223278678502,30.7316392376839));
#860=CARTESIAN_POINT('Origin',(38.5,386.738058997318,596.935254904597));
#861=CARTESIAN_POINT('',(38.5,214.947902375286,-17.083653554927));
#862=CARTESIAN_POINT('Origin',(38.5,215.002727241161,7.91628632968241));
#863=CARTESIAN_POINT('Origin',(38.5,253.083503163328,311.571217861431));
#864=CARTESIAN_POINT('Origin',(38.5,215.002727241161,7.91628632968241));
#865=CARTESIAN_POINT('',(48.5,210.052727241161,7.91628632968241));
#866=CARTESIAN_POINT('Origin',(48.5,215.002727241161,7.91628632968241));
#867=CARTESIAN_POINT('',(38.5,210.052727241161,7.91628632968241));
#868=CARTESIAN_POINT('Origin',(7.5,292.099995613098,6.81374533048425));
#869=CARTESIAN_POINT('',(33.5,292.099995613098,15.8008508166915));
#870=CARTESIAN_POINT('',(38.5,292.099995613098,15.8008508166915));
#871=CARTESIAN_POINT('',(-31.5,292.099995613098,-16.9802421415413));
#872=CARTESIAN_POINT('',(-26.5,292.099995613098,-16.980242141541));
#873=CARTESIAN_POINT('',(-31.5,292.099995613098,15.8008508166915));
#874=CARTESIAN_POINT('',(-31.5,292.099995613098,7.3629514955998));
#875=CARTESIAN_POINT('',(-26.5,292.099995613098,15.8008508166915));
#876=CARTESIAN_POINT('',(-26.5,292.099995613098,15.8008508166915));
#877=CARTESIAN_POINT('',(-26.5,292.099995613098,15.6919156137052));
#878=CARTESIAN_POINT('',(-26.5,292.099995613098,7.3629514955998));
#879=CARTESIAN_POINT('',(33.5,292.099995613098,15.6919156137052));
#880=CARTESIAN_POINT('',(-26.5,292.099995613098,15.6919156137052));
#881=CARTESIAN_POINT('',(33.5,292.099995613098,7.3629514955998));
#882=CARTESIAN_POINT('Origin',(-26.5,386.738058997318,596.935254904597));
#883=CARTESIAN_POINT('',(-31.5,225.223278678502,30.7316392376839));
#884=CARTESIAN_POINT('Origin',(-31.5,386.738058997318,596.935254904597));
#885=CARTESIAN_POINT('',(-26.5,225.223278678502,30.7316392376839));
#886=CARTESIAN_POINT('',(-26.5,225.223278678502,30.7316392376839));
#887=CARTESIAN_POINT('Origin',(-26.5,386.738058997318,596.935254904597));
#888=CARTESIAN_POINT('Origin',(-31.5,238.889071025907,7.91215766071535));
#889=CARTESIAN_POINT('',(-31.5,214.947902375286,-17.083653554927));
#890=CARTESIAN_POINT('Origin',(-31.5,253.083503163328,311.571217861431));
#891=CARTESIAN_POINT('Origin',(-31.5,215.002727241161,7.91628632968241));
#892=CARTESIAN_POINT('',(-31.5,230.002727241161,7.91628632968241));
#893=CARTESIAN_POINT('Origin',(-31.5,215.002727241161,7.91628632968241));
#894=CARTESIAN_POINT('Origin',(-26.5,253.083503163327,311.57121786143));
#895=CARTESIAN_POINT('',(33.5,214.947902375286,-17.083653554927));
#896=CARTESIAN_POINT('',(38.5,214.947902375286,-17.083653554927));
#897=CARTESIAN_POINT('',(33.5,243.383485389024,-19.1465745361747));
#898=CARTESIAN_POINT('Origin',(33.5,253.083503163328,311.571217861431));
#899=CARTESIAN_POINT('',(-26.5,243.383485389024,-19.1465745361747));
#900=CARTESIAN_POINT('',(-26.5,243.383485389024,-19.1465745361747));
#901=CARTESIAN_POINT('',(-26.5,214.947902375286,-17.083653554927));
#902=CARTESIAN_POINT('Origin',(-26.5,253.083503163328,311.571217861431));
#903=CARTESIAN_POINT('',(-26.5,214.947902375286,-17.083653554927));
#904=CARTESIAN_POINT('Origin',(38.5,386.738058997318,596.935254904597));
#905=CARTESIAN_POINT('',(33.5,225.223278678502,30.7316392376839));
#906=CARTESIAN_POINT('Origin',(33.5,386.738058997318,596.935254904597));
#907=CARTESIAN_POINT('',(38.5,225.223278678502,30.7316392376839));
#908=CARTESIAN_POINT('Origin',(33.5,238.889071025907,7.91215766071535));
#909=CARTESIAN_POINT('',(33.5,254.844911478029,23.0309360686617));
#910=CARTESIAN_POINT('Origin',(33.5,386.204663899105,591.624169517978));
#911=CARTESIAN_POINT('Origin',(33.5,196.958046296517,16.1152287776812));
#912=CARTESIAN_POINT('Origin',(33.5,215.002727241161,7.91628632968241));
#913=CARTESIAN_POINT('Origin',(-26.5,386.204663899105,591.624169517978));
#914=CARTESIAN_POINT('',(-26.5,254.844911478029,23.0309360686617));
#915=CARTESIAN_POINT('Origin',(-26.5,386.204663899105,591.624169517978));
#916=CARTESIAN_POINT('',(-26.5,254.844911478029,23.0309360686617));
#917=CARTESIAN_POINT('Origin',(-26.5,238.889071025907,7.91215766071535));
#918=CARTESIAN_POINT('Origin',(-26.5,215.002727241161,7.91628632968241));
#919=CARTESIAN_POINT('Origin',(-26.5,196.958046296517,16.1152287776812));
#920=CARTESIAN_POINT('',(-26.5,223.552727241161,7.91628632968241));
#921=CARTESIAN_POINT('Origin',(-26.5,215.002727241161,7.91628632968241));
#922=CARTESIAN_POINT('Origin',(-26.,215.002727241161,7.91628632968241));
#923=CARTESIAN_POINT('',(-25.5,222.552727241161,7.91628632968241));
#924=CARTESIAN_POINT('',(-26.,223.052727241161,7.91628632968241));
#925=CARTESIAN_POINT('Origin',(-25.5,215.002727241161,7.91628632968241));
#926=CARTESIAN_POINT('Origin',(-25.5,215.002727241161,7.91628632968241));
#927=CARTESIAN_POINT('',(-25.5,220.502727241161,7.91628632968241));
#928=CARTESIAN_POINT('Origin',(-25.5,215.002727241161,7.91628632968241));
#929=CARTESIAN_POINT('Origin',(-32.5,215.002727241161,7.91628632968241));
#930=CARTESIAN_POINT('',(-33.5,228.002727241161,7.91628632968241));
#931=CARTESIAN_POINT('Origin',(-33.5,215.002727241161,7.91628632968241));
#932=CARTESIAN_POINT('',(-32.5,229.002727241161,7.91628632968241));
#933=CARTESIAN_POINT('Origin',(-33.5,215.002727241161,7.91628632968241));
#934=CARTESIAN_POINT('',(-33.5,223.552727241161,7.91628632968241));
#935=CARTESIAN_POINT('Origin',(-33.5,215.002727241161,7.91628632968241));
#936=CARTESIAN_POINT('Origin',(-33.,215.002727241161,7.91628632968241));
#937=CARTESIAN_POINT('',(-32.5,222.552727241161,7.91628632968241));
#938=CARTESIAN_POINT('',(-33.,223.052727241161,7.91628632968241));
#939=CARTESIAN_POINT('Origin',(-32.5,215.002727241161,7.91628632968241));
#940=CARTESIAN_POINT('Origin',(-31.5,215.002727241161,7.91628632968241));
#941=CARTESIAN_POINT('',(-28.5,222.552727241161,7.91628632968241));
#942=CARTESIAN_POINT('',(-31.5,222.552727241161,7.91628632968241));
#943=CARTESIAN_POINT('Origin',(-28.5,215.002727241161,7.91628632968241));
#944=CARTESIAN_POINT('Origin',(-28.5,215.002727241161,7.91628632968241));
#945=CARTESIAN_POINT('',(-28.5,220.502727241161,7.91628632968241));
#946=CARTESIAN_POINT('Origin',(-28.5,215.002727241161,7.91628632968241));
#947=CARTESIAN_POINT('Origin',(-31.5,215.002727241161,7.91628632968241));
#948=CARTESIAN_POINT('',(-31.5,220.502727241161,7.91628632968241));
#949=CARTESIAN_POINT('Origin',(48.5,215.002727241161,7.91628632968241));
#950=CARTESIAN_POINT('Origin',(38.5,215.002727241161,7.91628632968241));
#951=CARTESIAN_POINT('Origin',(-26.5,215.002727241161,7.91628632968241));
#952=CARTESIAN_POINT('Origin',(-26.5,196.958046296517,16.1152287776812));
#953=UNCERTAINTY_MEASURE_WITH_UNIT(LENGTH_MEASURE(0.01),#957,
'DISTANCE_ACCURACY_VALUE',
'Maximum model space distance between geometric entities at asserted c
onnectivities');
#954=UNCERTAINTY_MEASURE_WITH_UNIT(LENGTH_MEASURE(0.01),#957,
'DISTANCE_ACCURACY_VALUE',
'Maximum model space distance between geometric entities at asserted c
onnectivities');
#955=(
GEOMETRIC_REPRESENTATION_CONTEXT(3)
GLOBAL_UNCERTAINTY_ASSIGNED_CONTEXT((#953))
GLOBAL_UNIT_ASSIGNED_CONTEXT((#957,#959,#960))
REPRESENTATION_CONTEXT('','3D')
);
#956=(
GEOMETRIC_REPRESENTATION_CONTEXT(3)
GLOBAL_UNCERTAINTY_ASSIGNED_CONTEXT((#954))
GLOBAL_UNIT_ASSIGNED_CONTEXT((#957,#959,#960))
REPRESENTATION_CONTEXT('','3D')
);
#957=(
LENGTH_UNIT()
NAMED_UNIT(*)
SI_UNIT(.MILLI.,.METRE.)
);
#958=(
LENGTH_UNIT()
NAMED_UNIT(*)
SI_UNIT($,.METRE.)
);
#959=(
NAMED_UNIT(*)
PLANE_ANGLE_UNIT()
SI_UNIT($,.RADIAN.)
);
#960=(
NAMED_UNIT(*)
SI_UNIT($,.STERADIAN.)
SOLID_ANGLE_UNIT()
);
#961=SHAPE_DEFINITION_REPRESENTATION(#962,#963);
#962=PRODUCT_DEFINITION_SHAPE('',$,#965);
#963=SHAPE_REPRESENTATION('',(#555),#955);
#964=PRODUCT_DEFINITION_CONTEXT('part definition',#969,'design');
#965=PRODUCT_DEFINITION('right_claw_top','right_claw_top',#966,#964);
#966=PRODUCT_DEFINITION_FORMATION('',$,#971);
#967=PRODUCT_RELATED_PRODUCT_CATEGORY('right_claw_top','right_claw_top',
(#971));
#968=APPLICATION_PROTOCOL_DEFINITION('international standard',
'automotive_design',2009,#969);
#969=APPLICATION_CONTEXT(
'Core Data for Automotive Mechanical Design Process');
#970=PRODUCT_CONTEXT('part definition',#969,'mechanical');
#971=PRODUCT('right_claw_top','right_claw_top',$,(#970));
#972=PRESENTATION_STYLE_ASSIGNMENT((#974));
#973=PRESENTATION_STYLE_ASSIGNMENT((#975));
#974=SURFACE_STYLE_USAGE(.BOTH.,#976);
#975=SURFACE_STYLE_USAGE(.BOTH.,#977);
#976=SURFACE_SIDE_STYLE('',(#978));
#977=SURFACE_SIDE_STYLE('',(#979));
#978=SURFACE_STYLE_FILL_AREA(#980);
#979=SURFACE_STYLE_FILL_AREA(#981);
#980=FILL_AREA_STYLE('Steel - Satin',(#982));
#981=FILL_AREA_STYLE('Nylon 12 (with Formlabs Fuse 1 3D Printer)',(#983));
#982=FILL_AREA_STYLE_COLOUR('Steel - Satin',#984);
#983=FILL_AREA_STYLE_COLOUR(
'Nylon 12 (with Formlabs Fuse 1 3D Printer)',#985);
#984=COLOUR_RGB('Steel - Satin',0.627450980392157,0.627450980392157,0.627450980392157);
#985=COLOUR_RGB('Nylon 12 (with Formlabs Fuse 1 3D Printer)',0.247058823529412,
0.247058823529412,0.247058823529412);
ENDSEC;
END-ISO-10303-21;
