ISO-10303-21;
HEADER;
/* Generated by software containing ST-Developer
 * from STEP Tools, Inc. (www.steptools.com) 
 */

FILE_DESCRIPTION(
/* description */ (''),
/* implementation_level */ '2;1');

FILE_NAME(
/* name */ 'right_upper_top.step',
/* time_stamp */ '2026-06-13T15:30:34-06:00',
/* author */ (''),
/* organization */ (''),
/* preprocessor_version */ 'ST-DEVELOPER v20.1',
/* originating_system */ 'Autodesk Translation Framework v15.8.0.0',
/* authorisation */ '');

FILE_SCHEMA (('AUTOMOTIVE_DESIGN { 1 0 10303 214 3 1 1 }'));
ENDSEC;

DATA;
#10=MECHANICAL_DESIGN_GEOMETRIC_PRESENTATION_REPRESENTATION('',(#13),#1263);
#11=SHAPE_REPRESENTATION_RELATIONSHIP('SRR','None',#1270,#12);
#12=ADVANCED_BREP_SHAPE_REPRESENTATION('',(#14),#1262);
#13=STYLED_ITEM('',(#1280),#14);
#14=MANIFOLD_SOLID_BREP('Body1',#701);
#15=TOROIDAL_SURFACE('',#751,8.4098815311565,2.5);
#16=TOROIDAL_SURFACE('',#756,22.5,2.5);
#17=TOROIDAL_SURFACE('',#758,7.5,2.5);
#18=TOROIDAL_SURFACE('',#763,7.49999592134804,2.5);
#19=CONICAL_SURFACE('',#743,1.875,0.785398163397448);
#20=CONICAL_SURFACE('',#772,1.875,0.785398163397448);
#21=CONICAL_SURFACE('',#775,1.875,0.785398163397448);
#22=CONICAL_SURFACE('',#784,5.45,0.785398163397449);
#23=ELLIPSE('',#729,2.50000701327275,2.5);
#24=ELLIPSE('',#741,2.50000701327275,2.5);
#25=B_SPLINE_CURVE_WITH_KNOTS('',3,(#1057,#1058,#1059,#1060,#1061,#1062,
#1063,#1064,#1065,#1066),.UNSPECIFIED.,.F.,.F.,(4,2,2,2,4),(0.0667342243109933,
0.0944066425440784,0.188813285088157,0.288042823804917,0.387272362521677),
 .UNSPECIFIED.);
#26=B_SPLINE_CURVE_WITH_KNOTS('',3,(#1075,#1076,#1077,#1078,#1079,#1080,
#1081,#1082,#1083,#1084),.UNSPECIFIED.,.F.,.F.,(4,2,2,2,4),(0.559347439743494,
0.659207488030295,0.759067536317096,0.853399030851968,0.947730525386839),
 .UNSPECIFIED.);
#27=B_SPLINE_CURVE_WITH_KNOTS('',3,(#1149,#1150,#1151,#1152,#1153,#1154,
#1155,#1156,#1157,#1158,#1159,#1160,#1161,#1162),.UNSPECIFIED.,.F.,.F.,
(4,2,2,2,2,2,4),(-0.409385735608985,-0.317338178139154,-0.222457191356697,
-0.121179817397133,-0.0608996261858991,0.,0.000789834338860896),
 .UNSPECIFIED.);
#28=B_SPLINE_CURVE_WITH_KNOTS('',3,(#1180,#1181,#1182,#1183,#1184,#1185,
#1186,#1187,#1188,#1189,#1190,#1191,#1192,#1193),.UNSPECIFIED.,.F.,.F.,
(4,2,2,2,2,2,4),(-0.404110538036652,-0.310290078642588,-0.214492574379155,
-0.114289439018043,-0.0573375132790022,0.,0.000793554556852818),
 .UNSPECIFIED.);
#29=CYLINDRICAL_SURFACE('',#726,5.);
#30=CYLINDRICAL_SURFACE('',#730,5.);
#31=CYLINDRICAL_SURFACE('',#736,2.5);
#32=CYLINDRICAL_SURFACE('',#740,2.5);
#33=CYLINDRICAL_SURFACE('',#747,2.5);
#34=CYLINDRICAL_SURFACE('',#749,2.5);
#35=CYLINDRICAL_SURFACE('',#754,2.5);
#36=CYLINDRICAL_SURFACE('',#761,2.5);
#37=CYLINDRICAL_SURFACE('',#765,2.5);
#38=CYLINDRICAL_SURFACE('',#767,25.);
#39=CYLINDRICAL_SURFACE('',#770,10.9098815311565);
#40=CYLINDRICAL_SURFACE('',#778,1.25);
#41=CYLINDRICAL_SURFACE('',#780,1.25);
#42=CYLINDRICAL_SURFACE('',#782,1.25);
#43=CYLINDRICAL_SURFACE('',#786,4.95);
#44=CYLINDRICAL_SURFACE('',#790,10.);
#45=CYLINDRICAL_SURFACE('',#793,9.99999592134804);
#46=FACE_BOUND('',#94,.T.);
#47=FACE_BOUND('',#95,.T.);
#48=FACE_BOUND('',#96,.T.);
#49=FACE_BOUND('',#97,.T.);
#50=FACE_BOUND('',#137,.T.);
#51=FACE_BOUND('',#138,.T.);
#52=FACE_BOUND('',#139,.T.);
#53=FACE_OUTER_BOUND('',#93,.T.);
#54=FACE_OUTER_BOUND('',#98,.T.);
#55=FACE_OUTER_BOUND('',#99,.T.);
#56=FACE_OUTER_BOUND('',#100,.T.);
#57=FACE_OUTER_BOUND('',#101,.T.);
#58=FACE_OUTER_BOUND('',#102,.T.);
#59=FACE_OUTER_BOUND('',#103,.T.);
#60=FACE_OUTER_BOUND('',#104,.T.);
#61=FACE_OUTER_BOUND('',#105,.T.);
#62=FACE_OUTER_BOUND('',#106,.T.);
#63=FACE_OUTER_BOUND('',#107,.T.);
#64=FACE_OUTER_BOUND('',#108,.T.);
#65=FACE_OUTER_BOUND('',#109,.T.);
#66=FACE_OUTER_BOUND('',#110,.T.);
#67=FACE_OUTER_BOUND('',#111,.T.);
#68=FACE_OUTER_BOUND('',#112,.T.);
#69=FACE_OUTER_BOUND('',#113,.T.);
#70=FACE_OUTER_BOUND('',#114,.T.);
#71=FACE_OUTER_BOUND('',#115,.T.);
#72=FACE_OUTER_BOUND('',#116,.T.);
#73=FACE_OUTER_BOUND('',#117,.T.);
#74=FACE_OUTER_BOUND('',#118,.T.);
#75=FACE_OUTER_BOUND('',#119,.T.);
#76=FACE_OUTER_BOUND('',#120,.T.);
#77=FACE_OUTER_BOUND('',#121,.T.);
#78=FACE_OUTER_BOUND('',#122,.T.);
#79=FACE_OUTER_BOUND('',#123,.T.);
#80=FACE_OUTER_BOUND('',#124,.T.);
#81=FACE_OUTER_BOUND('',#125,.T.);
#82=FACE_OUTER_BOUND('',#126,.T.);
#83=FACE_OUTER_BOUND('',#127,.T.);
#84=FACE_OUTER_BOUND('',#128,.T.);
#85=FACE_OUTER_BOUND('',#129,.T.);
#86=FACE_OUTER_BOUND('',#130,.T.);
#87=FACE_OUTER_BOUND('',#131,.T.);
#88=FACE_OUTER_BOUND('',#132,.T.);
#89=FACE_OUTER_BOUND('',#133,.T.);
#90=FACE_OUTER_BOUND('',#134,.T.);
#91=FACE_OUTER_BOUND('',#135,.T.);
#92=FACE_OUTER_BOUND('',#136,.T.);
#93=EDGE_LOOP('',(#448,#449,#450,#451,#452,#453,#454,#455,#456,#457,#458,
#459,#460));
#94=EDGE_LOOP('',(#461));
#95=EDGE_LOOP('',(#462));
#96=EDGE_LOOP('',(#463));
#97=EDGE_LOOP('',(#464));
#98=EDGE_LOOP('',(#465,#466,#467,#468,#469));
#99=EDGE_LOOP('',(#470,#471,#472,#473));
#100=EDGE_LOOP('',(#474,#475,#476,#477,#478));
#101=EDGE_LOOP('',(#479,#480,#481,#482));
#102=EDGE_LOOP('',(#483,#484,#485,#486));
#103=EDGE_LOOP('',(#487,#488,#489,#490,#491));
#104=EDGE_LOOP('',(#492,#493,#494,#495));
#105=EDGE_LOOP('',(#496,#497,#498,#499,#500,#501));
#106=EDGE_LOOP('',(#502,#503,#504,#505,#506));
#107=EDGE_LOOP('',(#507,#508,#509,#510));
#108=EDGE_LOOP('',(#511,#512,#513,#514));
#109=EDGE_LOOP('',(#515,#516,#517,#518,#519));
#110=EDGE_LOOP('',(#520,#521,#522,#523));
#111=EDGE_LOOP('',(#524,#525,#526,#527,#528));
#112=EDGE_LOOP('',(#529,#530,#531,#532));
#113=EDGE_LOOP('',(#533,#534,#535,#536));
#114=EDGE_LOOP('',(#537,#538,#539,#540));
#115=EDGE_LOOP('',(#541,#542,#543,#544));
#116=EDGE_LOOP('',(#545,#546,#547,#548));
#117=EDGE_LOOP('',(#549,#550,#551,#552));
#118=EDGE_LOOP('',(#553,#554,#555,#556));
#119=EDGE_LOOP('',(#557,#558,#559,#560));
#120=EDGE_LOOP('',(#561,#562,#563,#564));
#121=EDGE_LOOP('',(#565,#566,#567,#568));
#122=EDGE_LOOP('',(#569,#570,#571,#572));
#123=EDGE_LOOP('',(#573,#574,#575,#576));
#124=EDGE_LOOP('',(#577,#578,#579,#580,#581));
#125=EDGE_LOOP('',(#582,#583,#584,#585,#586));
#126=EDGE_LOOP('',(#587,#588,#589,#590,#591));
#127=EDGE_LOOP('',(#592,#593,#594,#595,#596));
#128=EDGE_LOOP('',(#597,#598,#599,#600,#601));
#129=EDGE_LOOP('',(#602,#603,#604,#605));
#130=EDGE_LOOP('',(#606,#607,#608,#609));
#131=EDGE_LOOP('',(#610));
#132=EDGE_LOOP('',(#611,#612,#613,#614));
#133=EDGE_LOOP('',(#615,#616,#617,#618));
#134=EDGE_LOOP('',(#619,#620,#621,#622));
#135=EDGE_LOOP('',(#623,#624,#625,#626));
#136=EDGE_LOOP('',(#627,#628,#629,#630,#631,#632,#633,#634,#635,#636,#637,
#638,#639,#640,#641,#642));
#137=EDGE_LOOP('',(#643));
#138=EDGE_LOOP('',(#644));
#139=EDGE_LOOP('',(#645));
#140=CIRCLE('',#716,5.);
#141=CIRCLE('',#717,7.5);
#142=CIRCLE('',#718,7.49999592134804);
#143=CIRCLE('',#719,8.4098815311565);
#144=CIRCLE('',#720,22.5);
#145=CIRCLE('',#721,5.);
#146=CIRCLE('',#722,2.5);
#147=CIRCLE('',#723,2.5);
#148=CIRCLE('',#724,5.95);
#149=CIRCLE('',#725,2.5);
#150=CIRCLE('',#727,5.);
#151=CIRCLE('',#731,5.);
#152=CIRCLE('',#735,2.5);
#153=CIRCLE('',#737,2.5);
#154=CIRCLE('',#744,1.25);
#155=CIRCLE('',#745,1.25);
#156=CIRCLE('',#748,2.5);
#157=CIRCLE('',#750,2.50000000000028);
#158=CIRCLE('',#752,10.9098815311565);
#159=CIRCLE('',#753,2.5);
#160=CIRCLE('',#755,2.5);
#161=CIRCLE('',#757,25.);
#162=CIRCLE('',#759,2.5);
#163=CIRCLE('',#760,10.);
#164=CIRCLE('',#762,2.49999999999998);
#165=CIRCLE('',#764,9.99999592134804);
#166=CIRCLE('',#768,25.);
#167=CIRCLE('',#771,10.9098815311565);
#168=CIRCLE('',#773,1.25);
#169=CIRCLE('',#774,1.25);
#170=CIRCLE('',#776,1.25);
#171=CIRCLE('',#777,1.25);
#172=CIRCLE('',#779,1.25);
#173=CIRCLE('',#781,1.25);
#174=CIRCLE('',#783,1.25);
#175=CIRCLE('',#785,4.95);
#176=CIRCLE('',#787,4.95);
#177=CIRCLE('',#791,10.);
#178=CIRCLE('',#794,9.99999592134804);
#179=LINE('',#1018,#233);
#180=LINE('',#1022,#234);
#181=LINE('',#1026,#235);
#182=LINE('',#1030,#236);
#183=LINE('',#1034,#237);
#184=LINE('',#1038,#238);
#185=LINE('',#1040,#239);
#186=LINE('',#1052,#240);
#187=LINE('',#1056,#241);
#188=LINE('',#1069,#242);
#189=LINE('',#1071,#243);
#190=LINE('',#1086,#244);
#191=LINE('',#1089,#245);
#192=LINE('',#1091,#246);
#193=LINE('',#1095,#247);
#194=LINE('',#1097,#248);
#195=LINE('',#1099,#249);
#196=LINE('',#1100,#250);
#197=LINE('',#1103,#251);
#198=LINE('',#1105,#252);
#199=LINE('',#1108,#253);
#200=LINE('',#1113,#254);
#201=LINE('',#1114,#255);
#202=LINE('',#1116,#256);
#203=LINE('',#1118,#257);
#204=LINE('',#1119,#258);
#205=LINE('',#1121,#259);
#206=LINE('',#1122,#260);
#207=LINE('',#1128,#261);
#208=LINE('',#1134,#262);
#209=LINE('',#1136,#263);
#210=LINE('',#1137,#264);
#211=LINE('',#1143,#265);
#212=LINE('',#1166,#266);
#213=LINE('',#1176,#267);
#214=LINE('',#1195,#268);
#215=LINE('',#1198,#269);
#216=LINE('',#1199,#270);
#217=LINE('',#1202,#271);
#218=LINE('',#1206,#272);
#219=LINE('',#1207,#273);
#220=LINE('',#1210,#274);
#221=LINE('',#1214,#275);
#222=LINE('',#1220,#276);
#223=LINE('',#1226,#277);
#224=LINE('',#1230,#278);
#225=LINE('',#1234,#279);
#226=LINE('',#1238,#280);
#227=LINE('',#1243,#281);
#228=LINE('',#1247,#282);
#229=LINE('',#1248,#283);
#230=LINE('',#1252,#284);
#231=LINE('',#1255,#285);
#232=LINE('',#1256,#286);
#233=VECTOR('',#800,10.);
#234=VECTOR('',#803,10.);
#235=VECTOR('',#806,10.);
#236=VECTOR('',#809,10.);
#237=VECTOR('',#812,10.);
#238=VECTOR('',#815,10.);
#239=VECTOR('',#816,10.);
#240=VECTOR('',#829,10.);
#241=VECTOR('',#832,10.);
#242=VECTOR('',#835,10.);
#243=VECTOR('',#836,10.);
#244=VECTOR('',#841,10.);
#245=VECTOR('',#844,10.);
#246=VECTOR('',#847,10.);
#247=VECTOR('',#850,10.);
#248=VECTOR('',#851,10.);
#249=VECTOR('',#852,10.);
#250=VECTOR('',#853,10.);
#251=VECTOR('',#856,10.);
#252=VECTOR('',#857,10.);
#253=VECTOR('',#860,10.);
#254=VECTOR('',#865,10.);
#255=VECTOR('',#866,10.);
#256=VECTOR('',#869,10.);
#257=VECTOR('',#870,10.);
#258=VECTOR('',#871,10.);
#259=VECTOR('',#874,10.);
#260=VECTOR('',#875,10.);
#261=VECTOR('',#884,1.875);
#262=VECTOR('',#891,10.);
#263=VECTOR('',#892,10.);
#264=VECTOR('',#893,10.);
#265=VECTOR('',#902,10.);
#266=VECTOR('',#913,10.);
#267=VECTOR('',#928,10.);
#268=VECTOR('',#935,10.);
#269=VECTOR('',#938,10.);
#270=VECTOR('',#939,10.);
#271=VECTOR('',#942,10.);
#272=VECTOR('',#947,10.);
#273=VECTOR('',#948,10.);
#274=VECTOR('',#951,10.);
#275=VECTOR('',#956,1.875);
#276=VECTOR('',#963,1.875);
#277=VECTOR('',#970,1.25);
#278=VECTOR('',#975,1.25);
#279=VECTOR('',#980,1.25);
#280=VECTOR('',#985,5.45);
#281=VECTOR('',#992,4.95);
#282=VECTOR('',#997,10.);
#283=VECTOR('',#998,10.);
#284=VECTOR('',#1003,10.);
#285=VECTOR('',#1006,10.);
#286=VECTOR('',#1007,10.);
#287=VERTEX_POINT('',#1016);
#288=VERTEX_POINT('',#1017);
#289=VERTEX_POINT('',#1019);
#290=VERTEX_POINT('',#1021);
#291=VERTEX_POINT('',#1023);
#292=VERTEX_POINT('',#1025);
#293=VERTEX_POINT('',#1027);
#294=VERTEX_POINT('',#1029);
#295=VERTEX_POINT('',#1031);
#296=VERTEX_POINT('',#1033);
#297=VERTEX_POINT('',#1035);
#298=VERTEX_POINT('',#1037);
#299=VERTEX_POINT('',#1039);
#300=VERTEX_POINT('',#1042);
#301=VERTEX_POINT('',#1044);
#302=VERTEX_POINT('',#1046);
#303=VERTEX_POINT('',#1048);
#304=VERTEX_POINT('',#1051);
#305=VERTEX_POINT('',#1053);
#306=VERTEX_POINT('',#1055);
#307=VERTEX_POINT('',#1068);
#308=VERTEX_POINT('',#1070);
#309=VERTEX_POINT('',#1074);
#310=VERTEX_POINT('',#1085);
#311=VERTEX_POINT('',#1087);
#312=VERTEX_POINT('',#1093);
#313=VERTEX_POINT('',#1094);
#314=VERTEX_POINT('',#1096);
#315=VERTEX_POINT('',#1098);
#316=VERTEX_POINT('',#1102);
#317=VERTEX_POINT('',#1104);
#318=VERTEX_POINT('',#1106);
#319=VERTEX_POINT('',#1110);
#320=VERTEX_POINT('',#1111);
#321=VERTEX_POINT('',#1117);
#322=VERTEX_POINT('',#1127);
#323=VERTEX_POINT('',#1129);
#324=VERTEX_POINT('',#1133);
#325=VERTEX_POINT('',#1135);
#326=VERTEX_POINT('',#1141);
#327=VERTEX_POINT('',#1145);
#328=VERTEX_POINT('',#1146);
#329=VERTEX_POINT('',#1164);
#330=VERTEX_POINT('',#1170);
#331=VERTEX_POINT('',#1174);
#332=VERTEX_POINT('',#1178);
#333=VERTEX_POINT('',#1197);
#334=VERTEX_POINT('',#1201);
#335=VERTEX_POINT('',#1205);
#336=VERTEX_POINT('',#1209);
#337=VERTEX_POINT('',#1213);
#338=VERTEX_POINT('',#1215);
#339=VERTEX_POINT('',#1219);
#340=VERTEX_POINT('',#1221);
#341=VERTEX_POINT('',#1225);
#342=VERTEX_POINT('',#1229);
#343=VERTEX_POINT('',#1233);
#344=VERTEX_POINT('',#1237);
#345=VERTEX_POINT('',#1241);
#346=VERTEX_POINT('',#1246);
#347=VERTEX_POINT('',#1250);
#348=VERTEX_POINT('',#1254);
#349=EDGE_CURVE('',#287,#288,#179,.T.);
#350=EDGE_CURVE('',#288,#289,#140,.F.);
#351=EDGE_CURVE('',#289,#290,#180,.F.);
#352=EDGE_CURVE('',#291,#290,#141,.T.);
#353=EDGE_CURVE('',#292,#291,#181,.T.);
#354=EDGE_CURVE('',#293,#292,#142,.T.);
#355=EDGE_CURVE('',#294,#293,#182,.T.);
#356=EDGE_CURVE('',#295,#294,#143,.T.);
#357=EDGE_CURVE('',#296,#295,#183,.T.);
#358=EDGE_CURVE('',#297,#296,#144,.T.);
#359=EDGE_CURVE('',#298,#297,#184,.T.);
#360=EDGE_CURVE('',#299,#298,#185,.T.);
#361=EDGE_CURVE('',#287,#299,#145,.T.);
#362=EDGE_CURVE('',#300,#300,#146,.T.);
#363=EDGE_CURVE('',#301,#301,#147,.T.);
#364=EDGE_CURVE('',#302,#302,#148,.T.);
#365=EDGE_CURVE('',#303,#303,#149,.T.);
#366=EDGE_CURVE('',#288,#304,#186,.T.);
#367=EDGE_CURVE('',#304,#305,#150,.T.);
#368=EDGE_CURVE('',#305,#306,#187,.T.);
#369=EDGE_CURVE('',#289,#306,#25,.F.);
#370=EDGE_CURVE('',#307,#305,#188,.T.);
#371=EDGE_CURVE('',#308,#307,#189,.T.);
#372=EDGE_CURVE('',#306,#308,#23,.T.);
#373=EDGE_CURVE('',#299,#309,#26,.T.);
#374=EDGE_CURVE('',#310,#309,#190,.T.);
#375=EDGE_CURVE('',#310,#311,#151,.T.);
#376=EDGE_CURVE('',#311,#287,#191,.T.);
#377=EDGE_CURVE('',#304,#311,#192,.T.);
#378=EDGE_CURVE('',#312,#313,#193,.T.);
#379=EDGE_CURVE('',#312,#314,#194,.T.);
#380=EDGE_CURVE('',#314,#315,#195,.T.);
#381=EDGE_CURVE('',#313,#315,#196,.T.);
#382=EDGE_CURVE('',#313,#316,#197,.T.);
#383=EDGE_CURVE('',#315,#317,#198,.T.);
#384=EDGE_CURVE('',#318,#317,#152,.T.);
#385=EDGE_CURVE('',#316,#318,#199,.T.);
#386=EDGE_CURVE('',#319,#320,#153,.T.);
#387=EDGE_CURVE('',#320,#318,#200,.T.);
#388=EDGE_CURVE('',#317,#319,#201,.T.);
#389=EDGE_CURVE('',#320,#310,#202,.T.);
#390=EDGE_CURVE('',#321,#309,#203,.T.);
#391=EDGE_CURVE('',#316,#321,#204,.T.);
#392=EDGE_CURVE('',#312,#310,#205,.T.);
#393=EDGE_CURVE('',#314,#319,#206,.T.);
#394=EDGE_CURVE('',#321,#298,#24,.T.);
#395=EDGE_CURVE('',#303,#322,#207,.T.);
#396=EDGE_CURVE('',#323,#322,#154,.T.);
#397=EDGE_CURVE('',#322,#323,#155,.T.);
#398=EDGE_CURVE('',#324,#307,#208,.T.);
#399=EDGE_CURVE('',#325,#324,#209,.T.);
#400=EDGE_CURVE('',#308,#325,#210,.T.);
#401=EDGE_CURVE('',#325,#290,#156,.T.);
#402=EDGE_CURVE('',#326,#297,#157,.T.);
#403=EDGE_CURVE('',#326,#321,#211,.T.);
#404=EDGE_CURVE('',#327,#328,#158,.T.);
#405=EDGE_CURVE('',#328,#295,#159,.T.);
#406=EDGE_CURVE('',#327,#294,#27,.T.);
#407=EDGE_CURVE('',#329,#296,#160,.T.);
#408=EDGE_CURVE('',#328,#329,#212,.T.);
#409=EDGE_CURVE('',#329,#326,#161,.T.);
#410=EDGE_CURVE('',#330,#291,#162,.T.);
#411=EDGE_CURVE('',#325,#330,#163,.T.);
#412=EDGE_CURVE('',#331,#292,#164,.T.);
#413=EDGE_CURVE('',#330,#331,#213,.T.);
#414=EDGE_CURVE('',#331,#332,#165,.T.);
#415=EDGE_CURVE('',#332,#293,#28,.T.);
#416=EDGE_CURVE('',#332,#327,#214,.T.);
#417=EDGE_CURVE('',#326,#333,#215,.T.);
#418=EDGE_CURVE('',#316,#333,#216,.T.);
#419=EDGE_CURVE('',#329,#334,#217,.T.);
#420=EDGE_CURVE('',#333,#334,#166,.T.);
#421=EDGE_CURVE('',#328,#335,#218,.T.);
#422=EDGE_CURVE('',#334,#335,#219,.T.);
#423=EDGE_CURVE('',#327,#336,#220,.T.);
#424=EDGE_CURVE('',#335,#336,#167,.T.);
#425=EDGE_CURVE('',#300,#337,#221,.T.);
#426=EDGE_CURVE('',#338,#337,#168,.T.);
#427=EDGE_CURVE('',#337,#338,#169,.T.);
#428=EDGE_CURVE('',#301,#339,#222,.T.);
#429=EDGE_CURVE('',#340,#339,#170,.T.);
#430=EDGE_CURVE('',#339,#340,#171,.T.);
#431=EDGE_CURVE('',#323,#341,#223,.T.);
#432=EDGE_CURVE('',#341,#341,#172,.T.);
#433=EDGE_CURVE('',#338,#342,#224,.T.);
#434=EDGE_CURVE('',#342,#342,#173,.T.);
#435=EDGE_CURVE('',#340,#343,#225,.T.);
#436=EDGE_CURVE('',#343,#343,#174,.T.);
#437=EDGE_CURVE('',#302,#344,#226,.T.);
#438=EDGE_CURVE('',#344,#344,#175,.T.);
#439=EDGE_CURVE('',#345,#345,#176,.T.);
#440=EDGE_CURVE('',#345,#344,#227,.T.);
#441=EDGE_CURVE('',#346,#332,#228,.T.);
#442=EDGE_CURVE('',#336,#346,#229,.T.);
#443=EDGE_CURVE('',#347,#324,#177,.T.);
#444=EDGE_CURVE('',#330,#347,#230,.T.);
#445=EDGE_CURVE('',#348,#347,#231,.T.);
#446=EDGE_CURVE('',#331,#348,#232,.T.);
#447=EDGE_CURVE('',#346,#348,#178,.T.);
#448=ORIENTED_EDGE('',*,*,#349,.T.);
#449=ORIENTED_EDGE('',*,*,#350,.T.);
#450=ORIENTED_EDGE('',*,*,#351,.T.);
#451=ORIENTED_EDGE('',*,*,#352,.F.);
#452=ORIENTED_EDGE('',*,*,#353,.F.);
#453=ORIENTED_EDGE('',*,*,#354,.F.);
#454=ORIENTED_EDGE('',*,*,#355,.F.);
#455=ORIENTED_EDGE('',*,*,#356,.F.);
#456=ORIENTED_EDGE('',*,*,#357,.F.);
#457=ORIENTED_EDGE('',*,*,#358,.F.);
#458=ORIENTED_EDGE('',*,*,#359,.F.);
#459=ORIENTED_EDGE('',*,*,#360,.F.);
#460=ORIENTED_EDGE('',*,*,#361,.F.);
#461=ORIENTED_EDGE('',*,*,#362,.T.);
#462=ORIENTED_EDGE('',*,*,#363,.T.);
#463=ORIENTED_EDGE('',*,*,#364,.F.);
#464=ORIENTED_EDGE('',*,*,#365,.T.);
#465=ORIENTED_EDGE('',*,*,#350,.F.);
#466=ORIENTED_EDGE('',*,*,#366,.T.);
#467=ORIENTED_EDGE('',*,*,#367,.T.);
#468=ORIENTED_EDGE('',*,*,#368,.T.);
#469=ORIENTED_EDGE('',*,*,#369,.F.);
#470=ORIENTED_EDGE('',*,*,#368,.F.);
#471=ORIENTED_EDGE('',*,*,#370,.F.);
#472=ORIENTED_EDGE('',*,*,#371,.F.);
#473=ORIENTED_EDGE('',*,*,#372,.F.);
#474=ORIENTED_EDGE('',*,*,#373,.T.);
#475=ORIENTED_EDGE('',*,*,#374,.F.);
#476=ORIENTED_EDGE('',*,*,#375,.T.);
#477=ORIENTED_EDGE('',*,*,#376,.T.);
#478=ORIENTED_EDGE('',*,*,#361,.T.);
#479=ORIENTED_EDGE('',*,*,#366,.F.);
#480=ORIENTED_EDGE('',*,*,#349,.F.);
#481=ORIENTED_EDGE('',*,*,#376,.F.);
#482=ORIENTED_EDGE('',*,*,#377,.F.);
#483=ORIENTED_EDGE('',*,*,#378,.F.);
#484=ORIENTED_EDGE('',*,*,#379,.T.);
#485=ORIENTED_EDGE('',*,*,#380,.T.);
#486=ORIENTED_EDGE('',*,*,#381,.F.);
#487=ORIENTED_EDGE('',*,*,#382,.F.);
#488=ORIENTED_EDGE('',*,*,#381,.T.);
#489=ORIENTED_EDGE('',*,*,#383,.T.);
#490=ORIENTED_EDGE('',*,*,#384,.F.);
#491=ORIENTED_EDGE('',*,*,#385,.F.);
#492=ORIENTED_EDGE('',*,*,#386,.T.);
#493=ORIENTED_EDGE('',*,*,#387,.T.);
#494=ORIENTED_EDGE('',*,*,#384,.T.);
#495=ORIENTED_EDGE('',*,*,#388,.T.);
#496=ORIENTED_EDGE('',*,*,#387,.F.);
#497=ORIENTED_EDGE('',*,*,#389,.T.);
#498=ORIENTED_EDGE('',*,*,#374,.T.);
#499=ORIENTED_EDGE('',*,*,#390,.F.);
#500=ORIENTED_EDGE('',*,*,#391,.F.);
#501=ORIENTED_EDGE('',*,*,#385,.T.);
#502=ORIENTED_EDGE('',*,*,#392,.T.);
#503=ORIENTED_EDGE('',*,*,#389,.F.);
#504=ORIENTED_EDGE('',*,*,#386,.F.);
#505=ORIENTED_EDGE('',*,*,#393,.F.);
#506=ORIENTED_EDGE('',*,*,#379,.F.);
#507=ORIENTED_EDGE('',*,*,#394,.F.);
#508=ORIENTED_EDGE('',*,*,#390,.T.);
#509=ORIENTED_EDGE('',*,*,#373,.F.);
#510=ORIENTED_EDGE('',*,*,#360,.T.);
#511=ORIENTED_EDGE('',*,*,#388,.F.);
#512=ORIENTED_EDGE('',*,*,#383,.F.);
#513=ORIENTED_EDGE('',*,*,#380,.F.);
#514=ORIENTED_EDGE('',*,*,#393,.T.);
#515=ORIENTED_EDGE('',*,*,#365,.F.);
#516=ORIENTED_EDGE('',*,*,#395,.T.);
#517=ORIENTED_EDGE('',*,*,#396,.F.);
#518=ORIENTED_EDGE('',*,*,#397,.F.);
#519=ORIENTED_EDGE('',*,*,#395,.F.);
#520=ORIENTED_EDGE('',*,*,#371,.T.);
#521=ORIENTED_EDGE('',*,*,#398,.F.);
#522=ORIENTED_EDGE('',*,*,#399,.F.);
#523=ORIENTED_EDGE('',*,*,#400,.F.);
#524=ORIENTED_EDGE('',*,*,#372,.T.);
#525=ORIENTED_EDGE('',*,*,#400,.T.);
#526=ORIENTED_EDGE('',*,*,#401,.T.);
#527=ORIENTED_EDGE('',*,*,#351,.F.);
#528=ORIENTED_EDGE('',*,*,#369,.T.);
#529=ORIENTED_EDGE('',*,*,#394,.T.);
#530=ORIENTED_EDGE('',*,*,#359,.T.);
#531=ORIENTED_EDGE('',*,*,#402,.F.);
#532=ORIENTED_EDGE('',*,*,#403,.T.);
#533=ORIENTED_EDGE('',*,*,#404,.T.);
#534=ORIENTED_EDGE('',*,*,#405,.T.);
#535=ORIENTED_EDGE('',*,*,#356,.T.);
#536=ORIENTED_EDGE('',*,*,#406,.F.);
#537=ORIENTED_EDGE('',*,*,#407,.T.);
#538=ORIENTED_EDGE('',*,*,#357,.T.);
#539=ORIENTED_EDGE('',*,*,#405,.F.);
#540=ORIENTED_EDGE('',*,*,#408,.T.);
#541=ORIENTED_EDGE('',*,*,#402,.T.);
#542=ORIENTED_EDGE('',*,*,#358,.T.);
#543=ORIENTED_EDGE('',*,*,#407,.F.);
#544=ORIENTED_EDGE('',*,*,#409,.T.);
#545=ORIENTED_EDGE('',*,*,#410,.T.);
#546=ORIENTED_EDGE('',*,*,#352,.T.);
#547=ORIENTED_EDGE('',*,*,#401,.F.);
#548=ORIENTED_EDGE('',*,*,#411,.T.);
#549=ORIENTED_EDGE('',*,*,#412,.T.);
#550=ORIENTED_EDGE('',*,*,#353,.T.);
#551=ORIENTED_EDGE('',*,*,#410,.F.);
#552=ORIENTED_EDGE('',*,*,#413,.T.);
#553=ORIENTED_EDGE('',*,*,#354,.T.);
#554=ORIENTED_EDGE('',*,*,#412,.F.);
#555=ORIENTED_EDGE('',*,*,#414,.T.);
#556=ORIENTED_EDGE('',*,*,#415,.T.);
#557=ORIENTED_EDGE('',*,*,#355,.T.);
#558=ORIENTED_EDGE('',*,*,#415,.F.);
#559=ORIENTED_EDGE('',*,*,#416,.T.);
#560=ORIENTED_EDGE('',*,*,#406,.T.);
#561=ORIENTED_EDGE('',*,*,#391,.T.);
#562=ORIENTED_EDGE('',*,*,#403,.F.);
#563=ORIENTED_EDGE('',*,*,#417,.T.);
#564=ORIENTED_EDGE('',*,*,#418,.F.);
#565=ORIENTED_EDGE('',*,*,#409,.F.);
#566=ORIENTED_EDGE('',*,*,#419,.T.);
#567=ORIENTED_EDGE('',*,*,#420,.F.);
#568=ORIENTED_EDGE('',*,*,#417,.F.);
#569=ORIENTED_EDGE('',*,*,#408,.F.);
#570=ORIENTED_EDGE('',*,*,#421,.T.);
#571=ORIENTED_EDGE('',*,*,#422,.F.);
#572=ORIENTED_EDGE('',*,*,#419,.F.);
#573=ORIENTED_EDGE('',*,*,#404,.F.);
#574=ORIENTED_EDGE('',*,*,#423,.T.);
#575=ORIENTED_EDGE('',*,*,#424,.F.);
#576=ORIENTED_EDGE('',*,*,#421,.F.);
#577=ORIENTED_EDGE('',*,*,#362,.F.);
#578=ORIENTED_EDGE('',*,*,#425,.T.);
#579=ORIENTED_EDGE('',*,*,#426,.F.);
#580=ORIENTED_EDGE('',*,*,#427,.F.);
#581=ORIENTED_EDGE('',*,*,#425,.F.);
#582=ORIENTED_EDGE('',*,*,#363,.F.);
#583=ORIENTED_EDGE('',*,*,#428,.T.);
#584=ORIENTED_EDGE('',*,*,#429,.F.);
#585=ORIENTED_EDGE('',*,*,#430,.F.);
#586=ORIENTED_EDGE('',*,*,#428,.F.);
#587=ORIENTED_EDGE('',*,*,#396,.T.);
#588=ORIENTED_EDGE('',*,*,#397,.T.);
#589=ORIENTED_EDGE('',*,*,#431,.T.);
#590=ORIENTED_EDGE('',*,*,#432,.F.);
#591=ORIENTED_EDGE('',*,*,#431,.F.);
#592=ORIENTED_EDGE('',*,*,#426,.T.);
#593=ORIENTED_EDGE('',*,*,#427,.T.);
#594=ORIENTED_EDGE('',*,*,#433,.T.);
#595=ORIENTED_EDGE('',*,*,#434,.F.);
#596=ORIENTED_EDGE('',*,*,#433,.F.);
#597=ORIENTED_EDGE('',*,*,#429,.T.);
#598=ORIENTED_EDGE('',*,*,#430,.T.);
#599=ORIENTED_EDGE('',*,*,#435,.T.);
#600=ORIENTED_EDGE('',*,*,#436,.F.);
#601=ORIENTED_EDGE('',*,*,#435,.F.);
#602=ORIENTED_EDGE('',*,*,#364,.T.);
#603=ORIENTED_EDGE('',*,*,#437,.T.);
#604=ORIENTED_EDGE('',*,*,#438,.T.);
#605=ORIENTED_EDGE('',*,*,#437,.F.);
#606=ORIENTED_EDGE('',*,*,#439,.F.);
#607=ORIENTED_EDGE('',*,*,#440,.T.);
#608=ORIENTED_EDGE('',*,*,#438,.F.);
#609=ORIENTED_EDGE('',*,*,#440,.F.);
#610=ORIENTED_EDGE('',*,*,#439,.T.);
#611=ORIENTED_EDGE('',*,*,#416,.F.);
#612=ORIENTED_EDGE('',*,*,#441,.F.);
#613=ORIENTED_EDGE('',*,*,#442,.F.);
#614=ORIENTED_EDGE('',*,*,#423,.F.);
#615=ORIENTED_EDGE('',*,*,#411,.F.);
#616=ORIENTED_EDGE('',*,*,#399,.T.);
#617=ORIENTED_EDGE('',*,*,#443,.F.);
#618=ORIENTED_EDGE('',*,*,#444,.F.);
#619=ORIENTED_EDGE('',*,*,#413,.F.);
#620=ORIENTED_EDGE('',*,*,#444,.T.);
#621=ORIENTED_EDGE('',*,*,#445,.F.);
#622=ORIENTED_EDGE('',*,*,#446,.F.);
#623=ORIENTED_EDGE('',*,*,#414,.F.);
#624=ORIENTED_EDGE('',*,*,#446,.T.);
#625=ORIENTED_EDGE('',*,*,#447,.F.);
#626=ORIENTED_EDGE('',*,*,#441,.T.);
#627=ORIENTED_EDGE('',*,*,#382,.T.);
#628=ORIENTED_EDGE('',*,*,#418,.T.);
#629=ORIENTED_EDGE('',*,*,#420,.T.);
#630=ORIENTED_EDGE('',*,*,#422,.T.);
#631=ORIENTED_EDGE('',*,*,#424,.T.);
#632=ORIENTED_EDGE('',*,*,#442,.T.);
#633=ORIENTED_EDGE('',*,*,#447,.T.);
#634=ORIENTED_EDGE('',*,*,#445,.T.);
#635=ORIENTED_EDGE('',*,*,#443,.T.);
#636=ORIENTED_EDGE('',*,*,#398,.T.);
#637=ORIENTED_EDGE('',*,*,#370,.T.);
#638=ORIENTED_EDGE('',*,*,#367,.F.);
#639=ORIENTED_EDGE('',*,*,#377,.T.);
#640=ORIENTED_EDGE('',*,*,#375,.F.);
#641=ORIENTED_EDGE('',*,*,#392,.F.);
#642=ORIENTED_EDGE('',*,*,#378,.T.);
#643=ORIENTED_EDGE('',*,*,#432,.T.);
#644=ORIENTED_EDGE('',*,*,#434,.T.);
#645=ORIENTED_EDGE('',*,*,#436,.T.);
#646=PLANE('',#715);
#647=PLANE('',#728);
#648=PLANE('',#732);
#649=PLANE('',#733);
#650=PLANE('',#734);
#651=PLANE('',#738);
#652=PLANE('',#739);
#653=PLANE('',#742);
#654=PLANE('',#746);
#655=PLANE('',#766);
#656=PLANE('',#769);
#657=PLANE('',#788);
#658=PLANE('',#789);
#659=PLANE('',#792);
#660=PLANE('',#795);
#661=ADVANCED_FACE('',(#53,#46,#47,#48,#49),#646,.F.);
#662=ADVANCED_FACE('',(#54),#29,.F.);
#663=ADVANCED_FACE('',(#55),#647,.F.);
#664=ADVANCED_FACE('',(#56),#30,.F.);
#665=ADVANCED_FACE('',(#57),#648,.F.);
#666=ADVANCED_FACE('',(#58),#649,.F.);
#667=ADVANCED_FACE('',(#59),#650,.T.);
#668=ADVANCED_FACE('',(#60),#31,.T.);
#669=ADVANCED_FACE('',(#61),#651,.T.);
#670=ADVANCED_FACE('',(#62),#652,.T.);
#671=ADVANCED_FACE('',(#63),#32,.T.);
#672=ADVANCED_FACE('',(#64),#653,.T.);
#673=ADVANCED_FACE('',(#65),#19,.F.);
#674=ADVANCED_FACE('',(#66),#654,.T.);
#675=ADVANCED_FACE('',(#67),#33,.T.);
#676=ADVANCED_FACE('',(#68),#34,.T.);
#677=ADVANCED_FACE('',(#69),#15,.T.);
#678=ADVANCED_FACE('',(#70),#35,.T.);
#679=ADVANCED_FACE('',(#71),#16,.T.);
#680=ADVANCED_FACE('',(#72),#17,.T.);
#681=ADVANCED_FACE('',(#73),#36,.T.);
#682=ADVANCED_FACE('',(#74),#18,.T.);
#683=ADVANCED_FACE('',(#75),#37,.T.);
#684=ADVANCED_FACE('',(#76),#655,.T.);
#685=ADVANCED_FACE('',(#77),#38,.T.);
#686=ADVANCED_FACE('',(#78),#656,.T.);
#687=ADVANCED_FACE('',(#79),#39,.T.);
#688=ADVANCED_FACE('',(#80),#20,.F.);
#689=ADVANCED_FACE('',(#81),#21,.F.);
#690=ADVANCED_FACE('',(#82),#40,.F.);
#691=ADVANCED_FACE('',(#83),#41,.F.);
#692=ADVANCED_FACE('',(#84),#42,.F.);
#693=ADVANCED_FACE('',(#85),#22,.T.);
#694=ADVANCED_FACE('',(#86),#43,.T.);
#695=ADVANCED_FACE('',(#87),#657,.T.);
#696=ADVANCED_FACE('',(#88),#658,.T.);
#697=ADVANCED_FACE('',(#89),#44,.T.);
#698=ADVANCED_FACE('',(#90),#659,.T.);
#699=ADVANCED_FACE('',(#91),#45,.T.);
#700=ADVANCED_FACE('',(#92,#50,#51,#52),#660,.T.);
#701=CLOSED_SHELL('',(#661,#662,#663,#664,#665,#666,#667,#668,#669,#670,
#671,#672,#673,#674,#675,#676,#677,#678,#679,#680,#681,#682,#683,#684,#685,
#686,#687,#688,#689,#690,#691,#692,#693,#694,#695,#696,#697,#698,#699,#700));
#702=DERIVED_UNIT_ELEMENT(#704,1.);
#703=DERIVED_UNIT_ELEMENT(#1265,-3.);
#704=(
MASS_UNIT()
NAMED_UNIT(*)
SI_UNIT(.KILO.,.GRAM.)
);
#705=DERIVED_UNIT((#702,#703));
#706=MEASURE_REPRESENTATION_ITEM('density measure',
POSITIVE_RATIO_MEASURE(7850.),#705);
#707=PROPERTY_DEFINITION_REPRESENTATION(#712,#709);
#708=PROPERTY_DEFINITION_REPRESENTATION(#713,#710);
#709=REPRESENTATION('material name',(#711),#1262);
#710=REPRESENTATION('density',(#706),#1262);
#711=DESCRIPTIVE_REPRESENTATION_ITEM('Steel','Steel');
#712=PROPERTY_DEFINITION('material property','material name',#1272);
#713=PROPERTY_DEFINITION('material property','density of part',#1272);
#714=AXIS2_PLACEMENT_3D('',#1014,#796,#797);
#715=AXIS2_PLACEMENT_3D('',#1015,#798,#799);
#716=AXIS2_PLACEMENT_3D('',#1020,#801,#802);
#717=AXIS2_PLACEMENT_3D('',#1024,#804,#805);
#718=AXIS2_PLACEMENT_3D('',#1028,#807,#808);
#719=AXIS2_PLACEMENT_3D('',#1032,#810,#811);
#720=AXIS2_PLACEMENT_3D('',#1036,#813,#814);
#721=AXIS2_PLACEMENT_3D('',#1041,#817,#818);
#722=AXIS2_PLACEMENT_3D('',#1043,#819,#820);
#723=AXIS2_PLACEMENT_3D('',#1045,#821,#822);
#724=AXIS2_PLACEMENT_3D('',#1047,#823,#824);
#725=AXIS2_PLACEMENT_3D('',#1049,#825,#826);
#726=AXIS2_PLACEMENT_3D('',#1050,#827,#828);
#727=AXIS2_PLACEMENT_3D('',#1054,#830,#831);
#728=AXIS2_PLACEMENT_3D('',#1067,#833,#834);
#729=AXIS2_PLACEMENT_3D('',#1072,#837,#838);
#730=AXIS2_PLACEMENT_3D('',#1073,#839,#840);
#731=AXIS2_PLACEMENT_3D('',#1088,#842,#843);
#732=AXIS2_PLACEMENT_3D('',#1090,#845,#846);
#733=AXIS2_PLACEMENT_3D('',#1092,#848,#849);
#734=AXIS2_PLACEMENT_3D('',#1101,#854,#855);
#735=AXIS2_PLACEMENT_3D('',#1107,#858,#859);
#736=AXIS2_PLACEMENT_3D('',#1109,#861,#862);
#737=AXIS2_PLACEMENT_3D('',#1112,#863,#864);
#738=AXIS2_PLACEMENT_3D('',#1115,#867,#868);
#739=AXIS2_PLACEMENT_3D('',#1120,#872,#873);
#740=AXIS2_PLACEMENT_3D('',#1123,#876,#877);
#741=AXIS2_PLACEMENT_3D('',#1124,#878,#879);
#742=AXIS2_PLACEMENT_3D('',#1125,#880,#881);
#743=AXIS2_PLACEMENT_3D('',#1126,#882,#883);
#744=AXIS2_PLACEMENT_3D('',#1130,#885,#886);
#745=AXIS2_PLACEMENT_3D('',#1131,#887,#888);
#746=AXIS2_PLACEMENT_3D('',#1132,#889,#890);
#747=AXIS2_PLACEMENT_3D('',#1138,#894,#895);
#748=AXIS2_PLACEMENT_3D('',#1139,#896,#897);
#749=AXIS2_PLACEMENT_3D('',#1140,#898,#899);
#750=AXIS2_PLACEMENT_3D('',#1142,#900,#901);
#751=AXIS2_PLACEMENT_3D('',#1144,#903,#904);
#752=AXIS2_PLACEMENT_3D('',#1147,#905,#906);
#753=AXIS2_PLACEMENT_3D('',#1148,#907,#908);
#754=AXIS2_PLACEMENT_3D('',#1163,#909,#910);
#755=AXIS2_PLACEMENT_3D('',#1165,#911,#912);
#756=AXIS2_PLACEMENT_3D('',#1167,#914,#915);
#757=AXIS2_PLACEMENT_3D('',#1168,#916,#917);
#758=AXIS2_PLACEMENT_3D('',#1169,#918,#919);
#759=AXIS2_PLACEMENT_3D('',#1171,#920,#921);
#760=AXIS2_PLACEMENT_3D('',#1172,#922,#923);
#761=AXIS2_PLACEMENT_3D('',#1173,#924,#925);
#762=AXIS2_PLACEMENT_3D('',#1175,#926,#927);
#763=AXIS2_PLACEMENT_3D('',#1177,#929,#930);
#764=AXIS2_PLACEMENT_3D('',#1179,#931,#932);
#765=AXIS2_PLACEMENT_3D('',#1194,#933,#934);
#766=AXIS2_PLACEMENT_3D('',#1196,#936,#937);
#767=AXIS2_PLACEMENT_3D('',#1200,#940,#941);
#768=AXIS2_PLACEMENT_3D('',#1203,#943,#944);
#769=AXIS2_PLACEMENT_3D('',#1204,#945,#946);
#770=AXIS2_PLACEMENT_3D('',#1208,#949,#950);
#771=AXIS2_PLACEMENT_3D('',#1211,#952,#953);
#772=AXIS2_PLACEMENT_3D('',#1212,#954,#955);
#773=AXIS2_PLACEMENT_3D('',#1216,#957,#958);
#774=AXIS2_PLACEMENT_3D('',#1217,#959,#960);
#775=AXIS2_PLACEMENT_3D('',#1218,#961,#962);
#776=AXIS2_PLACEMENT_3D('',#1222,#964,#965);
#777=AXIS2_PLACEMENT_3D('',#1223,#966,#967);
#778=AXIS2_PLACEMENT_3D('',#1224,#968,#969);
#779=AXIS2_PLACEMENT_3D('',#1227,#971,#972);
#780=AXIS2_PLACEMENT_3D('',#1228,#973,#974);
#781=AXIS2_PLACEMENT_3D('',#1231,#976,#977);
#782=AXIS2_PLACEMENT_3D('',#1232,#978,#979);
#783=AXIS2_PLACEMENT_3D('',#1235,#981,#982);
#784=AXIS2_PLACEMENT_3D('',#1236,#983,#984);
#785=AXIS2_PLACEMENT_3D('',#1239,#986,#987);
#786=AXIS2_PLACEMENT_3D('',#1240,#988,#989);
#787=AXIS2_PLACEMENT_3D('',#1242,#990,#991);
#788=AXIS2_PLACEMENT_3D('',#1244,#993,#994);
#789=AXIS2_PLACEMENT_3D('',#1245,#995,#996);
#790=AXIS2_PLACEMENT_3D('',#1249,#999,#1000);
#791=AXIS2_PLACEMENT_3D('',#1251,#1001,#1002);
#792=AXIS2_PLACEMENT_3D('',#1253,#1004,#1005);
#793=AXIS2_PLACEMENT_3D('',#1257,#1008,#1009);
#794=AXIS2_PLACEMENT_3D('',#1258,#1010,#1011);
#795=AXIS2_PLACEMENT_3D('',#1259,#1012,#1013);
#796=DIRECTION('axis',(0.,0.,1.));
#797=DIRECTION('refdir',(1.,0.,0.));
#798=DIRECTION('center_axis',(0.,0.,1.));
#799=DIRECTION('ref_axis',(1.,0.,0.));
#800=DIRECTION('',(0.0023686894383356,0.999997194651237,0.));
#801=DIRECTION('center_axis',(0.,0.,-1.));
#802=DIRECTION('ref_axis',(0.708779713869786,0.705429881141042,2.51214793389404E-15));
#803=DIRECTION('',(-2.00672890760144E-8,-1.,0.));
#804=DIRECTION('center_axis',(0.,0.,1.));
#805=DIRECTION('ref_axis',(-0.707106778209871,0.707106784163224,0.));
#806=DIRECTION('',(-1.,-1.16479747425512E-8,0.));
#807=DIRECTION('center_axis',(0.,0.,1.));
#808=DIRECTION('ref_axis',(0.256315256795429,0.966593238717245,0.));
#809=DIRECTION('',(-0.997191452015292,-0.0748946461880522,0.));
#810=DIRECTION('center_axis',(0.,0.,1.));
#811=DIRECTION('ref_axis',(0.894138414607118,0.447790682712213,0.));
#812=DIRECTION('',(-2.30578141893644E-16,1.,0.));
#813=DIRECTION('center_axis',(0.,0.,1.));
#814=DIRECTION('ref_axis',(-1.00336458253025E-8,-1.,0.));
#815=DIRECTION('',(-2.00672890760144E-8,-1.,0.));
#816=DIRECTION('',(-0.00236868943833571,-0.999997194651237,-6.16295853274256E-33));
#817=DIRECTION('center_axis',(0.,0.,-1.));
#818=DIRECTION('ref_axis',(0.705429881141041,-0.708779713869786,2.51214793389404E-15));
#819=DIRECTION('center_axis',(0.,0.,1.));
#820=DIRECTION('ref_axis',(-1.,-6.38378239159464E-16,-3.93430965325573E-48));
#821=DIRECTION('center_axis',(0.,0.,1.));
#822=DIRECTION('ref_axis',(-1.,-6.38378239159464E-16,-3.93430965325573E-48));
#823=DIRECTION('center_axis',(0.,0.,-1.));
#824=DIRECTION('ref_axis',(1.,6.38378239159465E-16,0.));
#825=DIRECTION('center_axis',(0.,0.,1.));
#826=DIRECTION('ref_axis',(-1.,-6.38378239159464E-16,-3.93430965325573E-48));
#827=DIRECTION('center_axis',(2.78303267345673E-15,-6.5921585934638E-18,
-1.));
#828=DIRECTION('ref_axis',(0.708779713869786,0.705429881141042,2.51214793389404E-15));
#829=DIRECTION('',(-2.78303267345673E-15,6.5921585934638E-18,1.));
#830=DIRECTION('center_axis',(0.,0.,1.));
#831=DIRECTION('ref_axis',(0.708779713869786,0.705429881141042,2.51214793389404E-15));
#832=DIRECTION('',(2.78303267345673E-15,-6.5921585934638E-18,-1.));
#833=DIRECTION('center_axis',(0.0023686894383356,0.999997194651237,0.));
#834=DIRECTION('ref_axis',(0.,0.,1.));
#835=DIRECTION('',(0.999997194651237,-0.0023686894383356,0.));
#836=DIRECTION('',(0.,0.,1.));
#837=DIRECTION('center_axis',(0.0023686894383356,0.999997194651237,0.));
#838=DIRECTION('ref_axis',(-0.999997194651237,0.0023686894383356,1.11021991011514E-16));
#839=DIRECTION('center_axis',(-2.78303267345673E-15,6.5921585934641E-18,
1.));
#840=DIRECTION('ref_axis',(0.705429881141041,-0.708779713869786,2.51214793389404E-15));
#841=DIRECTION('',(1.45981347854076E-35,6.16294124349446E-33,-1.));
#842=DIRECTION('center_axis',(0.,0.,1.));
#843=DIRECTION('ref_axis',(0.705429881141041,-0.708779713869786,2.51214793389404E-15));
#844=DIRECTION('',(2.78303267345673E-15,-6.5921585934641E-18,-1.));
#845=DIRECTION('center_axis',(0.999997194651237,-0.0023686894383356,2.7830404808559E-15));
#846=DIRECTION('ref_axis',(2.78318646735873E-15,5.83355048066455E-17,-1.));
#847=DIRECTION('',(-0.0023686894383356,-0.999997194651237,0.));
#848=DIRECTION('center_axis',(-0.999997194651237,0.0023686894383356,1.36879004114294E-31));
#849=DIRECTION('ref_axis',(-0.0023686894383356,-0.999997194651237,-6.16295853274256E-33));
#850=DIRECTION('',(-0.0023686894383356,-0.999997194651237,0.));
#851=DIRECTION('',(-1.45981347854076E-35,-6.16294124349446E-33,1.));
#852=DIRECTION('',(-0.0023686894383356,-0.999997194651237,3.24227555905776E-16));
#853=DIRECTION('',(-1.45981347854076E-35,-6.16294124349446E-33,1.));
#854=DIRECTION('center_axis',(-0.00236868943833571,-0.999997194651237,-6.16295853274256E-33));
#855=DIRECTION('ref_axis',(-1.45981347854076E-35,-6.16294124349446E-33,
1.));
#856=DIRECTION('',(-0.999997194651237,0.00236868943833561,0.));
#857=DIRECTION('',(-0.999997194651237,0.00236868943833571,1.45981757383864E-35));
#858=DIRECTION('center_axis',(0.00236868943833571,0.999997194651237,6.16295853274256E-33));
#859=DIRECTION('ref_axis',(-0.707104797505414,0.00167491636437088,0.707106781186547));
#860=DIRECTION('',(-1.45981347854076E-35,-6.16294124349446E-33,1.));
#861=DIRECTION('center_axis',(0.00236868943833571,0.999997194651237,-3.24227555905776E-16));
#862=DIRECTION('ref_axis',(-0.707104797505414,0.00167491636437088,0.707106781186547));
#863=DIRECTION('center_axis',(-0.00236868943833571,-0.999997194651237,-6.16295853274256E-33));
#864=DIRECTION('ref_axis',(-0.707104797505414,0.00167491636437088,0.707106781186547));
#865=DIRECTION('',(-0.00236868943833571,-0.999997194651237,3.24227555905776E-16));
#866=DIRECTION('',(0.00236868943833571,0.999997194651237,-3.24227555905776E-16));
#867=DIRECTION('center_axis',(-0.999997194651237,0.00236868943833571,1.45981757383864E-35));
#868=DIRECTION('ref_axis',(3.93430965325569E-48,-6.16297582203913E-33,1.));
#869=DIRECTION('',(1.45981347854076E-35,6.16294124349446E-33,-1.));
#870=DIRECTION('',(0.00236868943833571,0.999997194651237,6.16295853274256E-33));
#871=DIRECTION('',(1.30292950075129E-24,6.49280276880364E-17,-1.));
#872=DIRECTION('center_axis',(0.00236868943833571,0.999997194651237,6.16295853274256E-33));
#873=DIRECTION('ref_axis',(1.45981347854076E-35,6.16294124349446E-33,-1.));
#874=DIRECTION('',(-0.999997194651237,0.00236868943833571,0.));
#875=DIRECTION('',(-0.999997194651237,0.00236868943833571,1.45981757383864E-35));
#876=DIRECTION('center_axis',(-0.00236868943833571,-0.999997194651237,-6.16295853274256E-33));
#877=DIRECTION('ref_axis',(-0.707104797505414,0.00167491636437088,-0.707106781186547));
#878=DIRECTION('center_axis',(-0.00236868943833561,-0.999997194651237,-6.49278455453605E-17));
#879=DIRECTION('ref_axis',(-0.999997194651237,0.00236868943833561,1.11021991011514E-16));
#880=DIRECTION('center_axis',(7.67994387291412E-19,3.24226646334403E-16,
1.));
#881=DIRECTION('ref_axis',(0.0023686894383356,0.999997194651237,-3.24227555905776E-16));
#882=DIRECTION('center_axis',(3.93430965325574E-48,-2.18952885050753E-47,
-1.));
#883=DIRECTION('ref_axis',(-1.,-6.38378239159464E-16,-3.93430965325573E-48));
#884=DIRECTION('',(-0.707106781186547,-5.37997187495134E-16,0.707106781186548));
#885=DIRECTION('center_axis',(0.,0.,-1.));
#886=DIRECTION('ref_axis',(1.,6.38378239159464E-16,0.));
#887=DIRECTION('center_axis',(0.,0.,-1.));
#888=DIRECTION('ref_axis',(1.,6.38378239159464E-16,0.));
#889=DIRECTION('center_axis',(-1.,2.00672890760144E-8,0.));
#890=DIRECTION('ref_axis',(-2.00672890760144E-8,-1.,0.));
#891=DIRECTION('',(-2.00672890760144E-8,-1.,0.));
#892=DIRECTION('',(0.,0.,1.));
#893=DIRECTION('',(2.00672890760144E-8,1.,0.));
#894=DIRECTION('center_axis',(-2.00672890760144E-8,-1.,0.));
#895=DIRECTION('ref_axis',(-0.707106781186547,1.41897168757245E-8,-0.707106781186547));
#896=DIRECTION('center_axis',(-2.00672900518839E-8,-1.,0.));
#897=DIRECTION('ref_axis',(-1.,2.00672900518839E-8,0.));
#898=DIRECTION('center_axis',(-2.00672890760144E-8,-1.,0.));
#899=DIRECTION('ref_axis',(-0.707106781186547,1.41897168757245E-8,-0.707106781186547));
#900=DIRECTION('center_axis',(-2.00672926357523E-8,-1.,0.));
#901=DIRECTION('ref_axis',(-1.,2.00672926357523E-8,0.));
#902=DIRECTION('',(2.00672890760144E-8,1.,0.));
#903=DIRECTION('center_axis',(0.,0.,-1.));
#904=DIRECTION('ref_axis',(-1.,0.,0.));
#905=DIRECTION('center_axis',(0.,0.,-1.));
#906=DIRECTION('ref_axis',(0.894138414607118,0.447790682712213,0.));
#907=DIRECTION('center_axis',(0.,1.,0.));
#908=DIRECTION('ref_axis',(1.,0.,0.));
#909=DIRECTION('center_axis',(2.30578141893644E-16,-1.,0.));
#910=DIRECTION('ref_axis',(0.707106781186547,0.,-0.707106781186547));
#911=DIRECTION('center_axis',(0.,1.,0.));
#912=DIRECTION('ref_axis',(1.,0.,0.));
#913=DIRECTION('',(2.30578141893644E-16,-1.,0.));
#914=DIRECTION('center_axis',(0.,0.,1.));
#915=DIRECTION('ref_axis',(-1.0033645807539E-8,-1.,0.));
#916=DIRECTION('center_axis',(0.,0.,-1.));
#917=DIRECTION('ref_axis',(-1.00336458253025E-8,-1.,0.));
#918=DIRECTION('center_axis',(0.,0.,1.));
#919=DIRECTION('ref_axis',(1.,0.,0.));
#920=DIRECTION('center_axis',(-1.,-1.16479752509946E-8,0.));
#921=DIRECTION('ref_axis',(-1.16479752509946E-8,1.,0.));
#922=DIRECTION('center_axis',(0.,0.,-1.));
#923=DIRECTION('ref_axis',(-0.707106778209871,0.707106784163224,0.));
#924=DIRECTION('center_axis',(1.,1.16479747425512E-8,0.));
#925=DIRECTION('ref_axis',(-8.23636213006211E-9,0.707106781186547,-0.707106781186547));
#926=DIRECTION('center_axis',(-1.,-1.16479750289501E-8,0.));
#927=DIRECTION('ref_axis',(-1.16479750289501E-8,1.,0.));
#928=DIRECTION('',(1.,1.16479747425512E-8,0.));
#929=DIRECTION('center_axis',(0.,0.,1.));
#930=DIRECTION('ref_axis',(1.,0.,0.));
#931=DIRECTION('center_axis',(0.,0.,-1.));
#932=DIRECTION('ref_axis',(0.256315256795429,0.966593238717245,0.));
#933=DIRECTION('center_axis',(0.997191452015292,0.0748946461880522,0.));
#934=DIRECTION('ref_axis',(-0.0529585121941379,0.705120837861276,-0.707106781186545));
#935=DIRECTION('',(0.997191452015292,0.0748946461880522,0.));
#936=DIRECTION('center_axis',(-1.,2.00672890760144E-8,0.));
#937=DIRECTION('ref_axis',(-2.00672890760144E-8,-1.,0.));
#938=DIRECTION('',(0.,0.,1.));
#939=DIRECTION('',(-2.00672890760144E-8,-1.,0.));
#940=DIRECTION('center_axis',(0.,0.,1.));
#941=DIRECTION('ref_axis',(-1.00336460978174E-8,-1.,0.));
#942=DIRECTION('',(0.,0.,1.));
#943=DIRECTION('center_axis',(0.,0.,1.));
#944=DIRECTION('ref_axis',(1.,0.,0.));
#945=DIRECTION('center_axis',(1.,2.30578141893644E-16,0.));
#946=DIRECTION('ref_axis',(-2.30578141893644E-16,1.,0.));
#947=DIRECTION('',(0.,0.,1.));
#948=DIRECTION('',(-2.30578141893644E-16,1.,0.));
#949=DIRECTION('center_axis',(0.,0.,1.));
#950=DIRECTION('ref_axis',(0.598967008952264,0.800773702232271,0.));
#951=DIRECTION('',(0.,0.,1.));
#952=DIRECTION('center_axis',(0.,0.,1.));
#953=DIRECTION('ref_axis',(0.598967008952264,0.800773702232271,0.));
#954=DIRECTION('center_axis',(3.93430965325574E-48,-2.18952885050753E-47,
-1.));
#955=DIRECTION('ref_axis',(-1.,-6.38378239159464E-16,-3.93430965325573E-48));
#956=DIRECTION('',(-0.707106781186547,-5.37997187495134E-16,0.707106781186548));
#957=DIRECTION('center_axis',(0.,0.,-1.));
#958=DIRECTION('ref_axis',(1.,6.38378239159464E-16,0.));
#959=DIRECTION('center_axis',(0.,0.,-1.));
#960=DIRECTION('ref_axis',(1.,6.38378239159464E-16,0.));
#961=DIRECTION('center_axis',(3.93430965325574E-48,-2.18952885050753E-47,
-1.));
#962=DIRECTION('ref_axis',(-1.,-6.38378239159464E-16,-3.93430965325573E-48));
#963=DIRECTION('',(-0.707106781186547,-5.37997187495134E-16,0.707106781186548));
#964=DIRECTION('center_axis',(0.,0.,-1.));
#965=DIRECTION('ref_axis',(1.,6.38378239159464E-16,0.));
#966=DIRECTION('center_axis',(0.,0.,-1.));
#967=DIRECTION('ref_axis',(1.,6.38378239159464E-16,0.));
#968=DIRECTION('center_axis',(0.,0.,1.));
#969=DIRECTION('ref_axis',(1.,6.38378239159464E-16,0.));
#970=DIRECTION('',(0.,0.,1.));
#971=DIRECTION('center_axis',(0.,0.,-1.));
#972=DIRECTION('ref_axis',(1.,6.38378239159464E-16,0.));
#973=DIRECTION('center_axis',(0.,0.,1.));
#974=DIRECTION('ref_axis',(1.,6.38378239159464E-16,0.));
#975=DIRECTION('',(0.,0.,1.));
#976=DIRECTION('center_axis',(0.,0.,-1.));
#977=DIRECTION('ref_axis',(1.,6.38378239159464E-16,0.));
#978=DIRECTION('center_axis',(0.,0.,1.));
#979=DIRECTION('ref_axis',(1.,6.38378239159464E-16,0.));
#980=DIRECTION('',(0.,0.,1.));
#981=DIRECTION('center_axis',(0.,0.,-1.));
#982=DIRECTION('ref_axis',(1.,6.38378239159464E-16,0.));
#983=DIRECTION('center_axis',(0.,0.,1.));
#984=DIRECTION('ref_axis',(1.,6.38378239159465E-16,0.));
#985=DIRECTION('',(0.707106781186548,5.37997187495135E-16,-0.707106781186547));
#986=DIRECTION('center_axis',(0.,0.,1.));
#987=DIRECTION('ref_axis',(1.,6.38378239159465E-16,0.));
#988=DIRECTION('center_axis',(0.,0.,-1.));
#989=DIRECTION('ref_axis',(1.,6.38378239159465E-16,0.));
#990=DIRECTION('center_axis',(3.93430965325574E-48,-2.18952885050753E-47,
-1.));
#991=DIRECTION('ref_axis',(1.,6.38378239159465E-16,3.93430965325573E-48));
#992=DIRECTION('',(0.,0.,1.));
#993=DIRECTION('center_axis',(3.93430965325574E-48,-2.18952885050753E-47,
-1.));
#994=DIRECTION('ref_axis',(1.,6.38378239159465E-16,3.93430965325573E-48));
#995=DIRECTION('center_axis',(-0.0748946461880522,0.997191452015292,0.));
#996=DIRECTION('ref_axis',(-0.997191452015292,-0.0748946461880522,0.));
#997=DIRECTION('',(0.,0.,-1.));
#998=DIRECTION('',(-0.997191452015292,-0.0748946461880522,0.));
#999=DIRECTION('center_axis',(0.,0.,1.));
#1000=DIRECTION('ref_axis',(-1.16479755285503E-8,1.,0.));
#1001=DIRECTION('center_axis',(0.,0.,1.));
#1002=DIRECTION('ref_axis',(-1.16479755285503E-8,1.,0.));
#1003=DIRECTION('',(0.,0.,1.));
#1004=DIRECTION('center_axis',(-1.16479747425512E-8,1.,0.));
#1005=DIRECTION('ref_axis',(-1.,-1.16479747425512E-8,0.));
#1006=DIRECTION('',(-1.,-1.16479747425512E-8,0.));
#1007=DIRECTION('',(0.,0.,1.));
#1008=DIRECTION('center_axis',(0.,0.,1.));
#1009=DIRECTION('ref_axis',(1.,0.,0.));
#1010=DIRECTION('center_axis',(0.,0.,1.));
#1011=DIRECTION('ref_axis',(1.,0.,0.));
#1012=DIRECTION('center_axis',(0.,0.,1.));
#1013=DIRECTION('ref_axis',(1.,0.,0.));
#1014=CARTESIAN_POINT('',(0.,0.,0.));
#1015=CARTESIAN_POINT('Origin',(10.0758135818819,40.6588844643872,0.));
#1016=CARTESIAN_POINT('',(-9.89613443796488,50.8505367723959,-4.44089209850063E-15));
#1017=CARTESIAN_POINT('',(-9.84129553180276,74.0020531477926,-4.44089209850063E-15));
#1018=CARTESIAN_POINT('',(-9.92218141758244,39.8542000956043,-4.44089209850063E-15));
#1019=CARTESIAN_POINT('',(-12.4241848452142,78.3908411613419,1.45283091113058E-16));
#1020=CARTESIAN_POINT('Origin',(-14.841281505059,74.0138965949842,-7.105427357601E-14));
#1021=CARTESIAN_POINT('',(-12.4241844856571,96.3084169351562,0.));
#1022=CARTESIAN_POINT('',(-12.4241850440247,68.4836509255287,0.));
#1023=CARTESIAN_POINT('',(-4.92418457301688,103.808416784652,0.));
#1024=CARTESIAN_POINT('Origin',(-4.92418448565707,96.3084167846515,0.));
#1025=CARTESIAN_POINT('',(25.0758176896539,103.808417134091,0.));
#1026=CARTESIAN_POINT('',(17.5758152679858,103.808417046731,0.));
#1027=CARTESIAN_POINT('',(29.3952512671554,102.439687977305,0.));
#1028=CARTESIAN_POINT('Origin',(25.075817660534,96.3084212127427,0.));
#1029=CARTESIAN_POINT('',(29.8828590833307,102.476310047016,0.));
#1030=CARTESIAN_POINT('',(18.2289759886998,101.601038353376,0.));
#1031=CARTESIAN_POINT('',(32.575813581882,96.3084212127427,0.));
#1032=CARTESIAN_POINT('Origin',(24.1659320507255,96.3084212127427,0.));
#1033=CARTESIAN_POINT('',(32.575813581882,0.00935179468358527,0.));
#1034=CARTESIAN_POINT('',(32.575813581882,20.3341181295354,0.));
#1035=CARTESIAN_POINT('',(-12.424186418118,0.00935224619765827,0.));
#1036=CARTESIAN_POINT('Origin',(10.075813581882,0.00935179468359051,0.));
#1037=CARTESIAN_POINT('',(-12.4241856355196,39.0080730419828,0.));
#1038=CARTESIAN_POINT('',(-12.4241850440247,68.4836509255287,0.));
#1039=CARTESIAN_POINT('',(-12.4063841507293,46.5263436245861,1.85398571495021E-16));
#1040=CARTESIAN_POINT('',(-12.4120263160316,44.1443726567004,0.));
#1041=CARTESIAN_POINT('Origin',(-14.8961204112211,50.8623802195876,-7.105427357601E-14));
#1042=CARTESIAN_POINT('',(15.4050257642028,42.3189622557588,-4.16333634234434E-16));
#1043=CARTESIAN_POINT('Origin',(12.9050257642028,42.3189622557588,0.));
#1044=CARTESIAN_POINT('',(29.0472986874291,98.6584252440447,-4.16333634234434E-16));
#1045=CARTESIAN_POINT('Origin',(26.5472986874291,98.6584252440447,0.));
#1046=CARTESIAN_POINT('',(4.125813581882,0.00935179468358443,0.));
#1047=CARTESIAN_POINT('Origin',(10.075813581882,0.0093517946835875,0.));
#1048=CARTESIAN_POINT('',(-5.63115080443627,42.4231017437223,-8.3544282603043E-14));
#1049=CARTESIAN_POINT('Origin',(-8.13115080443633,42.4231017437221,0.));
#1050=CARTESIAN_POINT('Origin',(-14.8412815050591,74.0138965949842,44.7332329682484));
#1051=CARTESIAN_POINT('',(-9.84129553180278,74.0020531477926,5.));
#1052=CARTESIAN_POINT('',(-9.84129553180289,74.0020531477926,44.7332329682485));
#1053=CARTESIAN_POINT('',(-14.8294380578673,79.0138825682404,5.));
#1054=CARTESIAN_POINT('Origin',(-14.841281505059,74.0138965949842,4.99999999999993));
#1055=CARTESIAN_POINT('',(-14.8294380578673,79.0138825682404,1.81826917124302));
#1056=CARTESIAN_POINT('',(-14.8294380578674,79.0138825682404,44.7332329682484));
#1057=CARTESIAN_POINT('Ctrl Pts',(-14.8294380578673,79.0138825682404,1.81826917124321));
#1058=CARTESIAN_POINT('Ctrl Pts',(-14.8028556341845,79.0138196025576,1.72448221369086));
#1059=CARTESIAN_POINT('Ctrl Pts',(-14.7706481992931,79.0135384712739,1.63185071778934));
#1060=CARTESIAN_POINT('Ctrl Pts',(-14.6051517221085,79.0099580357276,1.23318982181369));
#1061=CARTESIAN_POINT('Ctrl Pts',(-14.4122405322282,79.0004728774592,0.952157563617762));
#1062=CARTESIAN_POINT('Ctrl Pts',(-13.9574179508143,78.9407663452409,0.498084513407417));
#1063=CARTESIAN_POINT('Ctrl Pts',(-13.6630145654159,78.8840006579559,0.302828927537269));
#1064=CARTESIAN_POINT('Ctrl Pts',(-13.0407567087753,78.6898283476785,0.0541672060003581));
#1065=CARTESIAN_POINT('Ctrl Pts',(-12.7137329720866,78.5507394190687,-1.04649818161139E-15));
#1066=CARTESIAN_POINT('Ctrl Pts',(-12.4241848452142,78.3908411613419,-4.7271214720368E-16));
#1067=CARTESIAN_POINT('Origin',(-12.7586661733283,79.008977538988,29.3746398244927));
#1068=CARTESIAN_POINT('',(-14.924184832707,79.0141069945549,5.));
#1069=CARTESIAN_POINT('',(-1.29607075151856,78.9818261341073,5.));
#1070=CARTESIAN_POINT('',(-14.924184832707,79.0141069945549,2.5));
#1071=CARTESIAN_POINT('',(-14.924184832707,79.0141069945549,14.6873199122463));
#1072=CARTESIAN_POINT('Origin',(-12.4241848328258,79.0081852543468,2.5));
#1073=CARTESIAN_POINT('Origin',(-14.8961204112212,50.8623802195876,35.0459130560021));
#1074=CARTESIAN_POINT('',(-14.9079638584127,45.8623942463314,2.5));
#1075=CARTESIAN_POINT('Ctrl Pts',(-12.4063841507293,46.5263436245861,3.51281503885303E-16));
#1076=CARTESIAN_POINT('Ctrl Pts',(-12.6950486998961,46.3605935024567,-8.5439630383872E-16));
#1077=CARTESIAN_POINT('Ctrl Pts',(-13.0220760801502,46.2152620637181,0.0537033938505339));
#1078=CARTESIAN_POINT('Ctrl Pts',(-13.6457112965537,46.0101409937488,0.302355414541203));
#1079=CARTESIAN_POINT('Ctrl Pts',(-13.9414304931945,45.9486679940718,0.498139796027344));
#1080=CARTESIAN_POINT('Ctrl Pts',(-14.3968152420099,45.8823535193012,0.953366188933668));
#1081=CARTESIAN_POINT('Ctrl Pts',(-14.5894248732544,45.8701575649855,1.23415309213292));
#1082=CARTESIAN_POINT('Ctrl Pts',(-14.8449883929334,45.8610069528015,1.85026818602602));
#1083=CARTESIAN_POINT('Ctrl Pts',(-14.9079638584127,45.8623942463314,2.18556168488375));
#1084=CARTESIAN_POINT('Ctrl Pts',(-14.9079638584127,45.8623942463314,2.49999999999999));
#1085=CARTESIAN_POINT('',(-14.9079638584128,45.8623942463314,5.));
#1086=CARTESIAN_POINT('',(-14.9079638584127,45.8623942463314,0.));
#1087=CARTESIAN_POINT('',(-9.89613443796489,50.8505367723959,5.));
#1088=CARTESIAN_POINT('Origin',(-14.8961204112211,50.8623802195876,4.99999999999993));
#1089=CARTESIAN_POINT('',(-9.89613443796497,50.8505367723959,35.0459130560021));
#1090=CARTESIAN_POINT('Origin',(-9.92419966214468,39.0021513349992,60.0918261120042));
#1091=CARTESIAN_POINT('',(-9.92218141758245,39.8542000956043,5.));
#1092=CARTESIAN_POINT('Origin',(-9.91608877365046,42.4263510670694,5.));
#1093=CARTESIAN_POINT('',(-9.90797788515657,45.8505507991397,5.));
#1094=CARTESIAN_POINT('',(-9.92419966214452,39.0021513349992,5.));
#1095=CARTESIAN_POINT('',(-9.92218141758245,39.8542000956043,5.));
#1096=CARTESIAN_POINT('',(-9.90797788515649,45.8505507991397,10.));
#1097=CARTESIAN_POINT('',(-9.90797788515649,45.8505507991397,0.));
#1098=CARTESIAN_POINT('',(-9.92419966214444,39.0021513349991,10.));
#1099=CARTESIAN_POINT('',(-9.90797788515649,45.8505507991397,10.));
#1100=CARTESIAN_POINT('',(-9.92419966214444,39.0021513349991,0.));
#1101=CARTESIAN_POINT('Origin',(-9.92419966214444,39.0021513349991,0.));
#1102=CARTESIAN_POINT('',(-14.9241856354008,39.0139947821909,5.));
#1103=CARTESIAN_POINT('',(-1.39081832905198,38.9819383480578,5.));
#1104=CARTESIAN_POINT('',(-12.4241926487725,39.008073058595,10.));
#1105=CARTESIAN_POINT('',(-9.92419966214444,39.0021513349991,10.));
#1106=CARTESIAN_POINT('',(-14.9241856354006,39.0139947821908,7.5));
#1107=CARTESIAN_POINT('Origin',(-12.4241926487725,39.008073058595,7.5));
#1108=CARTESIAN_POINT('',(-14.9241856354006,39.0139947821908,0.));
#1109=CARTESIAN_POINT('Origin',(-12.4201372045255,40.7201729246301,7.5));
#1110=CARTESIAN_POINT('',(-12.4079708717846,45.8564725227356,10.));
#1111=CARTESIAN_POINT('',(-14.9079638584127,45.8623942463314,7.5));
#1112=CARTESIAN_POINT('Origin',(-12.4079708717846,45.8564725227356,7.5));
#1113=CARTESIAN_POINT('',(-14.9201301911536,40.7260946482259,7.5));
#1114=CARTESIAN_POINT('',(-12.4201372045255,40.7201729246301,10.));
#1115=CARTESIAN_POINT('Origin',(-14.9160747469067,42.4381945142611,5.));
#1116=CARTESIAN_POINT('',(-14.9079638584127,45.8623942463314,0.));
#1117=CARTESIAN_POINT('',(-14.9241856354008,39.0139947821909,2.5));
#1118=CARTESIAN_POINT('',(-14.9120193026597,44.1502943802962,2.5));
#1119=CARTESIAN_POINT('',(-14.9241856354008,39.0139947821909,14.6873199122463));
#1120=CARTESIAN_POINT('Origin',(-9.90797788515649,45.8505507991397,10.));
#1121=CARTESIAN_POINT('',(0.0900104922946135,45.8268686032286,5.));
#1122=CARTESIAN_POINT('',(-9.90797788515649,45.8505507991397,10.));
#1123=CARTESIAN_POINT('Origin',(-12.4120263160316,44.1443726567004,2.5));
#1124=CARTESIAN_POINT('Origin',(-12.4241856355196,39.0080730419828,2.5));
#1125=CARTESIAN_POINT('Origin',(-9.92419966214444,39.0021513349991,10.));
#1126=CARTESIAN_POINT('Origin',(-8.13115080443635,42.4231017437223,0.625));
#1127=CARTESIAN_POINT('',(-6.88115080443644,42.4231017437223,1.25000000000009));
#1128=CARTESIAN_POINT('',(-6.25615080443635,42.4231017437223,0.625));
#1129=CARTESIAN_POINT('',(-9.38115080443635,42.4231017437223,1.25));
#1130=CARTESIAN_POINT('Origin',(-8.13115080443638,42.4231017437225,1.25));
#1131=CARTESIAN_POINT('Origin',(-8.13115080443638,42.4231017437225,1.25));
#1132=CARTESIAN_POINT('Origin',(-14.9241844856571,96.3084169853244,0.));
#1133=CARTESIAN_POINT('',(-14.9241844856571,96.3084169853244,5.));
#1134=CARTESIAN_POINT('',(-14.9241844856571,96.3084169853244,5.));
#1135=CARTESIAN_POINT('',(-14.9241844856571,96.3084169853244,2.5));
#1136=CARTESIAN_POINT('',(-14.9241844856571,96.3084169853244,0.));
#1137=CARTESIAN_POINT('',(-14.9241850440247,68.4836509756969,2.5));
#1138=CARTESIAN_POINT('Origin',(-12.4241850440247,68.4836509255287,2.5));
#1139=CARTESIAN_POINT('Origin',(-12.4241844856571,96.3084169351562,2.5));
#1140=CARTESIAN_POINT('Origin',(-12.4241850440247,68.4836509255287,2.5));
#1141=CARTESIAN_POINT('',(-14.9241864181182,0.00935229636588986,2.5));
#1142=CARTESIAN_POINT('Origin',(-12.424186418118,0.00935224619765827,2.5));
#1143=CARTESIAN_POINT('',(-14.9241850440247,68.4836509756969,2.5));
#1144=CARTESIAN_POINT('Origin',(24.1659320507255,96.3084212127427,2.5));
#1145=CARTESIAN_POINT('',(30.7005911594659,105.044767437362,2.5));
#1146=CARTESIAN_POINT('',(35.075813581882,96.3084212127427,2.5));
#1147=CARTESIAN_POINT('Origin',(24.1659320507255,96.3084212127427,2.5));
#1148=CARTESIAN_POINT('Origin',(32.575813581882,96.3084212127427,2.5));
#1149=CARTESIAN_POINT('Ctrl Pts',(30.7005911594659,105.044767437362,2.5));
#1150=CARTESIAN_POINT('Ctrl Pts',(30.7005911594659,105.044767437362,2.19402805287718));
#1151=CARTESIAN_POINT('Ctrl Pts',(30.6838896410827,104.987181005874,1.89194840915205));
#1152=CARTESIAN_POINT('Ctrl Pts',(30.6175322312295,104.761921998276,1.31643146957913));
#1153=CARTESIAN_POINT('Ctrl Pts',(30.5676863333675,104.593782133892,1.0512630041417));
#1154=CARTESIAN_POINT('Ctrl Pts',(30.4355118564165,104.159175980201,0.582324347834787));
#1155=CARTESIAN_POINT('Ctrl Pts',(30.3526295398361,103.891684520498,0.388950872829543));
#1156=CARTESIAN_POINT('Ctrl Pts',(30.2025500777475,103.424121263333,0.168266250083907));
#1157=CARTESIAN_POINT('Ctrl Pts',(30.1429929396239,103.241863543104,0.106014760233975));
#1158=CARTESIAN_POINT('Ctrl Pts',(30.0178309315473,102.867187487789,0.0218660656749424));
#1159=CARTESIAN_POINT('Ctrl Pts',(29.9524082845872,102.675408485823,0.00054941706079614));
#1160=CARTESIAN_POINT('Ctrl Pts',(29.8845962368928,102.48128080522,3.49440413029543E-6));
#1161=CARTESIAN_POINT('Ctrl Pts',(29.8837277768399,102.478795385638,1.21949145298435E-18));
#1162=CARTESIAN_POINT('Ctrl Pts',(29.8828590833307,102.476310047016,0.));
#1163=CARTESIAN_POINT('Origin',(32.575813581882,20.3341181295354,2.5));
#1164=CARTESIAN_POINT('',(35.075813581882,0.00935179468358527,2.5));
#1165=CARTESIAN_POINT('Origin',(32.575813581882,0.00935179468358527,2.5));
#1166=CARTESIAN_POINT('',(35.075813581882,20.3341181295354,2.5));
#1167=CARTESIAN_POINT('Origin',(10.075813581882,0.00935179468359051,2.5));
#1168=CARTESIAN_POINT('Origin',(10.075813581882,0.00935179468359051,2.5));
#1169=CARTESIAN_POINT('Origin',(-4.92418448565707,96.3084167846515,2.5));
#1170=CARTESIAN_POINT('',(-4.92418460213682,106.308416784652,2.5));
#1171=CARTESIAN_POINT('Origin',(-4.92418457301688,103.808416784652,2.5));
#1172=CARTESIAN_POINT('Origin',(-4.92418448565707,96.3084167846515,2.5));
#1173=CARTESIAN_POINT('Origin',(17.5758152679858,103.808417046731,2.5));
#1174=CARTESIAN_POINT('',(25.075817660534,106.308417134091,2.5));
#1175=CARTESIAN_POINT('Origin',(25.0758176896539,103.808417134091,2.5));
#1176=CARTESIAN_POINT('',(17.5758152388659,106.308417046731,2.5));
#1177=CARTESIAN_POINT('Origin',(25.075817660534,96.3084212127427,2.5));
#1178=CARTESIAN_POINT('',(30.0308675235115,104.994467452683,2.5));
#1179=CARTESIAN_POINT('Origin',(25.075817660534,96.3084212127427,2.5));
#1180=CARTESIAN_POINT('Ctrl Pts',(30.0308675235115,104.994467452683,2.5));
#1181=CARTESIAN_POINT('Ctrl Pts',(30.0308675235115,104.994467452683,2.18788334278679));
#1182=CARTESIAN_POINT('Ctrl Pts',(30.0175055842623,104.934846108582,1.87943388978294));
#1183=CARTESIAN_POINT('Ctrl Pts',(29.9643845804195,104.702086707694,1.29537302096394));
#1184=CARTESIAN_POINT('Ctrl Pts',(29.9246721863619,104.529329586824,1.02732146531074));
#1185=CARTESIAN_POINT('Ctrl Pts',(29.8197335988526,104.086137275511,0.559856836064139));
#1186=CARTESIAN_POINT('Ctrl Pts',(29.7544972354602,103.816358013832,0.36909385533678));
#1187=CARTESIAN_POINT('Ctrl Pts',(29.6375612117094,103.351841413476,0.157278699224917));
#1188=CARTESIAN_POINT('Ctrl Pts',(29.5924887739113,103.176239755518,0.0990867765434475));
#1189=CARTESIAN_POINT('Ctrl Pts',(29.497718651428,102.815742024713,0.0205078114019738));
#1190=CARTESIAN_POINT('Ctrl Pts',(29.4481952309629,102.631577918655,0.00054874513308813));
#1191=CARTESIAN_POINT('Ctrl Pts',(29.3966590098354,102.444787604694,3.71975156391126E-6));
#1192=CARTESIAN_POINT('Ctrl Pts',(29.3959552524573,102.442237759991,4.57540736056228E-18));
#1193=CARTESIAN_POINT('Ctrl Pts',(29.3952512671554,102.439687977305,0.));
#1194=CARTESIAN_POINT('Origin',(18.2289759886998,101.601038353376,2.5));
#1195=CARTESIAN_POINT('',(18.0417393732297,104.094016983414,2.5));
#1196=CARTESIAN_POINT('Origin',(-14.9241844856571,96.3084169853244,0.));
#1197=CARTESIAN_POINT('',(-14.9241864181182,0.00935229636588986,5.));
#1198=CARTESIAN_POINT('',(-14.9241864181182,0.00935229636588986,0.));
#1199=CARTESIAN_POINT('',(-14.9241844856571,96.3084169853244,5.));
#1200=CARTESIAN_POINT('Origin',(10.075813581882,0.00935179468359051,0.));
#1201=CARTESIAN_POINT('',(35.075813581882,0.00935179468358527,5.));
#1202=CARTESIAN_POINT('',(35.075813581882,0.00935179468358527,0.));
#1203=CARTESIAN_POINT('Origin',(10.075813581882,0.00935179468359051,5.));
#1204=CARTESIAN_POINT('Origin',(35.075813581882,0.00935179468358527,0.));
#1205=CARTESIAN_POINT('',(35.075813581882,96.3084212127427,5.));
#1206=CARTESIAN_POINT('',(35.075813581882,96.3084212127427,0.));
#1207=CARTESIAN_POINT('',(35.075813581882,96.3084212127427,5.));
#1208=CARTESIAN_POINT('Origin',(24.1659320507255,96.3084212127427,0.));
#1209=CARTESIAN_POINT('',(30.7005911594659,105.044767437362,5.));
#1210=CARTESIAN_POINT('',(30.7005911594659,105.044767437362,0.));
#1211=CARTESIAN_POINT('Origin',(24.1659320507255,96.3084212127427,5.));
#1212=CARTESIAN_POINT('Origin',(12.9050257642028,42.3189622557588,0.625));
#1213=CARTESIAN_POINT('',(14.1550257642027,42.3189622557588,1.25000000000009));
#1214=CARTESIAN_POINT('',(14.7800257642028,42.3189622557588,0.625));
#1215=CARTESIAN_POINT('',(11.6550257642028,42.3189622557588,1.25));
#1216=CARTESIAN_POINT('Origin',(12.9050257642028,42.3189622557589,1.25));
#1217=CARTESIAN_POINT('Origin',(12.9050257642028,42.3189622557589,1.25));
#1218=CARTESIAN_POINT('Origin',(26.5472986874291,98.6584252440447,0.625));
#1219=CARTESIAN_POINT('',(27.7972986874289,98.6584252440447,1.25000000000022));
#1220=CARTESIAN_POINT('',(28.4222986874291,98.6584252440447,0.625));
#1221=CARTESIAN_POINT('',(25.2972986874291,98.6584252440447,1.25));
#1222=CARTESIAN_POINT('Origin',(26.5472986874292,98.6584252440451,1.25));
#1223=CARTESIAN_POINT('Origin',(26.5472986874292,98.6584252440451,1.25));
#1224=CARTESIAN_POINT('Origin',(-8.13115080443638,42.4231017437225,0.));
#1225=CARTESIAN_POINT('',(-9.38115080443638,42.4231017437225,5.));
#1226=CARTESIAN_POINT('',(-9.38115080443638,42.4231017437225,0.));
#1227=CARTESIAN_POINT('Origin',(-8.13115080443638,42.4231017437225,5.));
#1228=CARTESIAN_POINT('Origin',(12.9050257642028,42.3189622557589,0.));
#1229=CARTESIAN_POINT('',(11.6550257642028,42.3189622557589,5.));
#1230=CARTESIAN_POINT('',(11.6550257642028,42.3189622557589,0.));
#1231=CARTESIAN_POINT('Origin',(12.9050257642028,42.3189622557589,5.));
#1232=CARTESIAN_POINT('Origin',(26.5472986874292,98.6584252440451,0.));
#1233=CARTESIAN_POINT('',(25.2972986874292,98.6584252440451,5.));
#1234=CARTESIAN_POINT('',(25.2972986874292,98.6584252440451,0.));
#1235=CARTESIAN_POINT('Origin',(26.5472986874292,98.6584252440451,5.));
#1236=CARTESIAN_POINT('Origin',(10.075813581882,0.0093517946835875,-0.5));
#1237=CARTESIAN_POINT('',(5.125813581882,0.00935179468358374,-1.));
#1238=CARTESIAN_POINT('',(4.625813581882,0.00935179468358336,-0.5));
#1239=CARTESIAN_POINT('Origin',(10.075813581882,0.0093517946835875,-1.));
#1240=CARTESIAN_POINT('Origin',(10.075813581882,0.0093517946835875,0.));
#1241=CARTESIAN_POINT('',(5.125813581882,0.00935179468358495,-5.));
#1242=CARTESIAN_POINT('Origin',(10.075813581882,0.0093517946835875,-5.));
#1243=CARTESIAN_POINT('',(5.125813581882,0.00935179468358495,0.));
#1244=CARTESIAN_POINT('Origin',(10.075813581882,0.0093517946835875,-5.));
#1245=CARTESIAN_POINT('Origin',(30.7005911594659,105.044767437362,0.));
#1246=CARTESIAN_POINT('',(30.0308675235115,104.994467452683,5.));
#1247=CARTESIAN_POINT('',(30.0308675235115,104.994467452683,0.));
#1248=CARTESIAN_POINT('',(0.154988265091713,102.75062209872,5.));
#1249=CARTESIAN_POINT('Origin',(-4.92418448565707,96.3084167846515,0.));
#1250=CARTESIAN_POINT('',(-4.92418460213682,106.308416784652,5.));
#1251=CARTESIAN_POINT('Origin',(-4.92418448565707,96.3084167846515,5.));
#1252=CARTESIAN_POINT('',(-4.92418460213682,106.308416784652,0.));
#1253=CARTESIAN_POINT('Origin',(25.075817660534,106.308417134091,0.));
#1254=CARTESIAN_POINT('',(25.075817660534,106.308417134091,5.));
#1255=CARTESIAN_POINT('',(-4.92418460213682,106.308416784652,5.));
#1256=CARTESIAN_POINT('',(25.075817660534,106.308417134091,0.));
#1257=CARTESIAN_POINT('Origin',(25.075817660534,96.3084212127427,0.));
#1258=CARTESIAN_POINT('Origin',(25.075817660534,96.3084212127427,5.));
#1259=CARTESIAN_POINT('Origin',(10.0758135818819,40.6588844643872,5.));
#1260=UNCERTAINTY_MEASURE_WITH_UNIT(LENGTH_MEASURE(0.01),#1264,
'DISTANCE_ACCURACY_VALUE',
'Maximum model space distance between geometric entities at asserted c
onnectivities');
#1261=UNCERTAINTY_MEASURE_WITH_UNIT(LENGTH_MEASURE(0.01),#1264,
'DISTANCE_ACCURACY_VALUE',
'Maximum model space distance between geometric entities at asserted c
onnectivities');
#1262=(
GEOMETRIC_REPRESENTATION_CONTEXT(3)
GLOBAL_UNCERTAINTY_ASSIGNED_CONTEXT((#1260))
GLOBAL_UNIT_ASSIGNED_CONTEXT((#1264,#1266,#1267))
REPRESENTATION_CONTEXT('','3D')
);
#1263=(
GEOMETRIC_REPRESENTATION_CONTEXT(3)
GLOBAL_UNCERTAINTY_ASSIGNED_CONTEXT((#1261))
GLOBAL_UNIT_ASSIGNED_CONTEXT((#1264,#1266,#1267))
REPRESENTATION_CONTEXT('','3D')
);
#1264=(
LENGTH_UNIT()
NAMED_UNIT(*)
SI_UNIT(.MILLI.,.METRE.)
);
#1265=(
LENGTH_UNIT()
NAMED_UNIT(*)
SI_UNIT($,.METRE.)
);
#1266=(
NAMED_UNIT(*)
PLANE_ANGLE_UNIT()
SI_UNIT($,.RADIAN.)
);
#1267=(
NAMED_UNIT(*)
SI_UNIT($,.STERADIAN.)
SOLID_ANGLE_UNIT()
);
#1268=SHAPE_DEFINITION_REPRESENTATION(#1269,#1270);
#1269=PRODUCT_DEFINITION_SHAPE('',$,#1272);
#1270=SHAPE_REPRESENTATION('',(#714),#1262);
#1271=PRODUCT_DEFINITION_CONTEXT('part definition',#1276,'design');
#1272=PRODUCT_DEFINITION('right_upper_top','right_upper_top',#1273,#1271);
#1273=PRODUCT_DEFINITION_FORMATION('',$,#1278);
#1274=PRODUCT_RELATED_PRODUCT_CATEGORY('right_upper_top',
'right_upper_top',(#1278));
#1275=APPLICATION_PROTOCOL_DEFINITION('international standard',
'automotive_design',2009,#1276);
#1276=APPLICATION_CONTEXT(
'Core Data for Automotive Mechanical Design Process');
#1277=PRODUCT_CONTEXT('part definition',#1276,'mechanical');
#1278=PRODUCT('right_upper_top','right_upper_top',$,(#1277));
#1279=PRESENTATION_STYLE_ASSIGNMENT((#1281));
#1280=PRESENTATION_STYLE_ASSIGNMENT((#1282));
#1281=SURFACE_STYLE_USAGE(.BOTH.,#1283);
#1282=SURFACE_STYLE_USAGE(.BOTH.,#1284);
#1283=SURFACE_SIDE_STYLE('',(#1285));
#1284=SURFACE_SIDE_STYLE('',(#1286));
#1285=SURFACE_STYLE_FILL_AREA(#1287);
#1286=SURFACE_STYLE_FILL_AREA(#1288);
#1287=FILL_AREA_STYLE('Steel - Satin',(#1289));
#1288=FILL_AREA_STYLE('Nylon 12 (with Formlabs Fuse 1 3D Printer)',(#1290));
#1289=FILL_AREA_STYLE_COLOUR('Steel - Satin',#1291);
#1290=FILL_AREA_STYLE_COLOUR(
'Nylon 12 (with Formlabs Fuse 1 3D Printer)',#1292);
#1291=COLOUR_RGB('Steel - Satin',0.627450980392157,0.627450980392157,0.627450980392157);
#1292=COLOUR_RGB('Nylon 12 (with Formlabs Fuse 1 3D Printer)',0.247058823529412,
0.247058823529412,0.247058823529412);
ENDSEC;
END-ISO-10303-21;
