ISO-10303-21;
HEADER;
/* Generated by software containing ST-Developer
 * from STEP Tools, Inc. (www.steptools.com) 
 */

FILE_DESCRIPTION(
/* description */ (''),
/* implementation_level */ '2;1');

FILE_NAME(
/* name */ 'left_claw_top.step',
/* time_stamp */ '2026-06-11T18:48:02-06:00',
/* author */ (''),
/* organization */ (''),
/* preprocessor_version */ 'ST-DEVELOPER v20.1',
/* originating_system */ 'Autodesk Translation Framework v15.8.0.0',
/* authorisation */ '');

FILE_SCHEMA (('AUTOMOTIVE_DESIGN { 1 0 10303 214 3 1 1 }'));
ENDSEC;

DATA;
#10=MECHANICAL_DESIGN_GEOMETRIC_PRESENTATION_REPRESENTATION('',(#13),#1094);
#11=SHAPE_REPRESENTATION_RELATIONSHIP('SRR','None',#1101,#12);
#12=ADVANCED_BREP_SHAPE_REPRESENTATION('',(#14),#1093);
#13=STYLED_ITEM('',(#1111),#14);
#14=MANIFOLD_SOLID_BREP('Body1',#620);
#15=FACE_BOUND('',#103,.T.);
#16=FACE_BOUND('',#104,.T.);
#17=FACE_BOUND('',#107,.T.);
#18=FACE_BOUND('',#108,.T.);
#19=FACE_BOUND('',#109,.T.);
#20=FACE_BOUND('',#113,.T.);
#21=FACE_BOUND('',#116,.T.);
#22=FACE_BOUND('',#122,.T.);
#23=FACE_BOUND('',#126,.T.);
#24=FACE_BOUND('',#129,.T.);
#25=FACE_BOUND('',#133,.T.);
#26=PLANE('',#643);
#27=PLANE('',#644);
#28=PLANE('',#648);
#29=PLANE('',#649);
#30=PLANE('',#653);
#31=PLANE('',#657);
#32=PLANE('',#663);
#33=PLANE('',#664);
#34=PLANE('',#673);
#35=PLANE('',#677);
#36=PLANE('',#687);
#37=PLANE('',#694);
#38=PLANE('',#698);
#39=PLANE('',#704);
#40=PLANE('',#707);
#41=PLANE('',#708);
#42=CYLINDRICAL_SURFACE('',#638,1.25);
#43=CYLINDRICAL_SURFACE('',#641,1.25);
#44=CYLINDRICAL_SURFACE('',#645,8.50000000000001);
#45=CYLINDRICAL_SURFACE('',#650,3.99999999999999);
#46=CYLINDRICAL_SURFACE('',#661,4.95000000000001);
#47=CYLINDRICAL_SURFACE('',#671,330.860013530143);
#48=CYLINDRICAL_SURFACE('',#680,588.789910456793);
#49=CYLINDRICAL_SURFACE('',#683,583.569747057261);
#50=CYLINDRICAL_SURFACE('',#685,330.71671377011);
#51=CYLINDRICAL_SURFACE('',#691,330.860013530143);
#52=CYLINDRICAL_SURFACE('',#702,7.55000000000003);
#53=CYLINDRICAL_SURFACE('',#706,5.50000000000001);
#54=CYLINDRICAL_SURFACE('',#709,25.);
#55=CYLINDRICAL_SURFACE('',#710,25.);
#56=CYLINDRICAL_SURFACE('',#711,58.2985091394037);
#57=FACE_OUTER_BOUND('',#93,.T.);
#58=FACE_OUTER_BOUND('',#94,.T.);
#59=FACE_OUTER_BOUND('',#95,.T.);
#60=FACE_OUTER_BOUND('',#96,.T.);
#61=FACE_OUTER_BOUND('',#97,.T.);
#62=FACE_OUTER_BOUND('',#98,.T.);
#63=FACE_OUTER_BOUND('',#99,.T.);
#64=FACE_OUTER_BOUND('',#100,.T.);
#65=FACE_OUTER_BOUND('',#101,.T.);
#66=FACE_OUTER_BOUND('',#102,.T.);
#67=FACE_OUTER_BOUND('',#105,.T.);
#68=FACE_OUTER_BOUND('',#106,.T.);
#69=FACE_OUTER_BOUND('',#110,.T.);
#70=FACE_OUTER_BOUND('',#111,.T.);
#71=FACE_OUTER_BOUND('',#112,.T.);
#72=FACE_OUTER_BOUND('',#114,.T.);
#73=FACE_OUTER_BOUND('',#115,.T.);
#74=FACE_OUTER_BOUND('',#117,.T.);
#75=FACE_OUTER_BOUND('',#118,.T.);
#76=FACE_OUTER_BOUND('',#119,.T.);
#77=FACE_OUTER_BOUND('',#120,.T.);
#78=FACE_OUTER_BOUND('',#121,.T.);
#79=FACE_OUTER_BOUND('',#123,.T.);
#80=FACE_OUTER_BOUND('',#124,.T.);
#81=FACE_OUTER_BOUND('',#125,.T.);
#82=FACE_OUTER_BOUND('',#127,.T.);
#83=FACE_OUTER_BOUND('',#128,.T.);
#84=FACE_OUTER_BOUND('',#130,.T.);
#85=FACE_OUTER_BOUND('',#131,.T.);
#86=FACE_OUTER_BOUND('',#132,.T.);
#87=FACE_OUTER_BOUND('',#134,.T.);
#88=FACE_OUTER_BOUND('',#135,.T.);
#89=FACE_OUTER_BOUND('',#136,.T.);
#90=FACE_OUTER_BOUND('',#137,.T.);
#91=FACE_OUTER_BOUND('',#138,.T.);
#92=FACE_OUTER_BOUND('',#139,.T.);
#93=EDGE_LOOP('',(#409,#410,#411,#412,#413));
#94=EDGE_LOOP('',(#414,#415,#416,#417));
#95=EDGE_LOOP('',(#418,#419,#420,#421,#422));
#96=EDGE_LOOP('',(#423,#424,#425,#426));
#97=EDGE_LOOP('',(#427,#428,#429,#430));
#98=EDGE_LOOP('',(#431,#432,#433,#434));
#99=EDGE_LOOP('',(#435,#436,#437,#438));
#100=EDGE_LOOP('',(#439,#440,#441,#442));
#101=EDGE_LOOP('',(#443,#444,#445,#446));
#102=EDGE_LOOP('',(#447,#448,#449,#450,#451,#452));
#103=EDGE_LOOP('',(#453));
#104=EDGE_LOOP('',(#454));
#105=EDGE_LOOP('',(#455,#456,#457,#458));
#106=EDGE_LOOP('',(#459,#460,#461,#462));
#107=EDGE_LOOP('',(#463));
#108=EDGE_LOOP('',(#464));
#109=EDGE_LOOP('',(#465));
#110=EDGE_LOOP('',(#466,#467,#468,#469));
#111=EDGE_LOOP('',(#470,#471,#472,#473,#474,#475,#476,#477,#478,#479,#480,
#481));
#112=EDGE_LOOP('',(#482,#483,#484,#485,#486,#487));
#113=EDGE_LOOP('',(#488));
#114=EDGE_LOOP('',(#489,#490,#491,#492));
#115=EDGE_LOOP('',(#493,#494,#495,#496));
#116=EDGE_LOOP('',(#497));
#117=EDGE_LOOP('',(#498,#499,#500));
#118=EDGE_LOOP('',(#501,#502,#503,#504,#505,#506,#507,#508,#509,#510,#511,
#512));
#119=EDGE_LOOP('',(#513,#514,#515,#516));
#120=EDGE_LOOP('',(#517,#518,#519,#520));
#121=EDGE_LOOP('',(#521,#522,#523,#524,#525,#526));
#122=EDGE_LOOP('',(#527,#528,#529,#530,#531,#532));
#123=EDGE_LOOP('',(#533,#534,#535,#536));
#124=EDGE_LOOP('',(#537,#538,#539,#540));
#125=EDGE_LOOP('',(#541));
#126=EDGE_LOOP('',(#542));
#127=EDGE_LOOP('',(#543,#544,#545,#546));
#128=EDGE_LOOP('',(#547));
#129=EDGE_LOOP('',(#548));
#130=EDGE_LOOP('',(#549,#550,#551,#552));
#131=EDGE_LOOP('',(#553,#554,#555,#556));
#132=EDGE_LOOP('',(#557));
#133=EDGE_LOOP('',(#558));
#134=EDGE_LOOP('',(#559,#560,#561,#562));
#135=EDGE_LOOP('',(#563));
#136=EDGE_LOOP('',(#564,#565,#566));
#137=EDGE_LOOP('',(#567,#568,#569,#570));
#138=EDGE_LOOP('',(#571,#572,#573,#574));
#139=EDGE_LOOP('',(#575,#576,#577,#578));
#140=LINE('',#918,#183);
#141=LINE('',#926,#184);
#142=LINE('',#931,#185);
#143=LINE('',#935,#186);
#144=LINE('',#937,#187);
#145=LINE('',#939,#188);
#146=LINE('',#940,#189);
#147=LINE('',#943,#190);
#148=LINE('',#945,#191);
#149=LINE('',#946,#192);
#150=LINE('',#951,#193);
#151=LINE('',#955,#194);
#152=LINE('',#957,#195);
#153=LINE('',#958,#196);
#154=LINE('',#961,#197);
#155=LINE('',#963,#198);
#156=LINE('',#964,#199);
#157=LINE('',#973,#200);
#158=LINE('',#978,#201);
#159=LINE('',#987,#202);
#160=LINE('',#991,#203);
#161=LINE('',#993,#204);
#162=LINE('',#995,#205);
#163=LINE('',#997,#206);
#164=LINE('',#999,#207);
#165=LINE('',#1001,#208);
#166=LINE('',#1003,#209);
#167=LINE('',#1005,#210);
#168=LINE('',#1007,#211);
#169=LINE('',#1008,#212);
#170=LINE('',#1009,#213);
#171=LINE('',#1025,#214);
#172=LINE('',#1038,#215);
#173=LINE('',#1041,#216);
#174=LINE('',#1044,#217);
#175=LINE('',#1045,#218);
#176=LINE('',#1050,#219);
#177=LINE('',#1058,#220);
#178=LINE('',#1061,#221);
#179=LINE('',#1069,#222);
#180=LINE('',#1075,#223);
#181=LINE('',#1079,#224);
#182=LINE('',#1085,#225);
#183=VECTOR('',#718,1.875);
#184=VECTOR('',#727,1.25);
#185=VECTOR('',#734,1.25);
#186=VECTOR('',#737,10.);
#187=VECTOR('',#738,10.);
#188=VECTOR('',#739,10.);
#189=VECTOR('',#740,10.);
#190=VECTOR('',#743,10.);
#191=VECTOR('',#744,10.);
#192=VECTOR('',#745,10.);
#193=VECTOR('',#750,10.);
#194=VECTOR('',#755,10.);
#195=VECTOR('',#756,10.);
#196=VECTOR('',#757,10.);
#197=VECTOR('',#760,10.);
#198=VECTOR('',#761,10.);
#199=VECTOR('',#762,10.);
#200=VECTOR('',#775,7.45000000000001);
#201=VECTOR('',#780,10.);
#202=VECTOR('',#791,4.95000000000001);
#203=VECTOR('',#794,10.);
#204=VECTOR('',#795,10.);
#205=VECTOR('',#796,10.);
#206=VECTOR('',#797,10.);
#207=VECTOR('',#798,10.);
#208=VECTOR('',#799,10.);
#209=VECTOR('',#800,10.);
#210=VECTOR('',#801,10.);
#211=VECTOR('',#802,10.);
#212=VECTOR('',#803,10.);
#213=VECTOR('',#804,10.);
#214=VECTOR('',#823,10.);
#215=VECTOR('',#840,10.);
#216=VECTOR('',#843,10.);
#217=VECTOR('',#846,10.);
#218=VECTOR('',#847,10.);
#219=VECTOR('',#854,10.);
#220=VECTOR('',#867,10.);
#221=VECTOR('',#870,8.05000000000003);
#222=VECTOR('',#881,14.);
#223=VECTOR('',#888,8.05000000000003);
#224=VECTOR('',#893,7.55000000000002);
#225=VECTOR('',#902,5.50000000000001);
#226=CIRCLE('',#635,2.5);
#227=CIRCLE('',#636,1.25);
#228=CIRCLE('',#637,1.25);
#229=CIRCLE('',#639,1.25);
#230=CIRCLE('',#640,1.25);
#231=CIRCLE('',#642,1.25);
#232=CIRCLE('',#646,8.50000000000001);
#233=CIRCLE('',#647,8.50000000000001);
#234=CIRCLE('',#651,3.99999999999999);
#235=CIRCLE('',#652,3.99999999999999);
#236=CIRCLE('',#655,9.95000000000001);
#237=CIRCLE('',#656,4.95000000000001);
#238=CIRCLE('',#658,330.860013530145);
#239=CIRCLE('',#659,25.);
#240=CIRCLE('',#660,588.789910456795);
#241=CIRCLE('',#662,4.95000000000001);
#242=CIRCLE('',#665,330.860013530145);
#243=CIRCLE('',#666,25.);
#244=CIRCLE('',#667,588.789910456795);
#245=CIRCLE('',#668,58.2985091394037);
#246=CIRCLE('',#669,330.71671377011);
#247=CIRCLE('',#670,8.55000000000004);
#248=CIRCLE('',#672,330.860013530145);
#249=CIRCLE('',#674,588.789910456795);
#250=CIRCLE('',#675,25.);
#251=CIRCLE('',#676,15.);
#252=CIRCLE('',#678,583.569747057261);
#253=CIRCLE('',#679,588.789910456795);
#254=CIRCLE('',#681,588.789910456795);
#255=CIRCLE('',#682,588.789910456795);
#256=CIRCLE('',#684,583.569747057261);
#257=CIRCLE('',#686,330.71671377011);
#258=CIRCLE('',#688,58.2985091394037);
#259=CIRCLE('',#689,25.);
#260=CIRCLE('',#690,330.860013530145);
#261=CIRCLE('',#693,7.55000000000003);
#262=CIRCLE('',#695,5.50000000000001);
#263=CIRCLE('',#697,13.);
#264=CIRCLE('',#699,8.55000000000004);
#265=CIRCLE('',#701,7.55000000000003);
#266=CIRCLE('',#703,7.55000000000003);
#267=CIRCLE('',#705,5.50000000000001);
#268=VERTEX_POINT('',#915);
#269=VERTEX_POINT('',#917);
#270=VERTEX_POINT('',#919);
#271=VERTEX_POINT('',#923);
#272=VERTEX_POINT('',#925);
#273=VERTEX_POINT('',#929);
#274=VERTEX_POINT('',#933);
#275=VERTEX_POINT('',#934);
#276=VERTEX_POINT('',#936);
#277=VERTEX_POINT('',#938);
#278=VERTEX_POINT('',#942);
#279=VERTEX_POINT('',#944);
#280=VERTEX_POINT('',#948);
#281=VERTEX_POINT('',#950);
#282=VERTEX_POINT('',#954);
#283=VERTEX_POINT('',#956);
#284=VERTEX_POINT('',#960);
#285=VERTEX_POINT('',#962);
#286=VERTEX_POINT('',#970);
#287=VERTEX_POINT('',#972);
#288=VERTEX_POINT('',#976);
#289=VERTEX_POINT('',#977);
#290=VERTEX_POINT('',#979);
#291=VERTEX_POINT('',#981);
#292=VERTEX_POINT('',#985);
#293=VERTEX_POINT('',#989);
#294=VERTEX_POINT('',#990);
#295=VERTEX_POINT('',#992);
#296=VERTEX_POINT('',#994);
#297=VERTEX_POINT('',#996);
#298=VERTEX_POINT('',#998);
#299=VERTEX_POINT('',#1000);
#300=VERTEX_POINT('',#1002);
#301=VERTEX_POINT('',#1004);
#302=VERTEX_POINT('',#1006);
#303=VERTEX_POINT('',#1011);
#304=VERTEX_POINT('',#1013);
#305=VERTEX_POINT('',#1015);
#306=VERTEX_POINT('',#1017);
#307=VERTEX_POINT('',#1020);
#308=VERTEX_POINT('',#1023);
#309=VERTEX_POINT('',#1027);
#310=VERTEX_POINT('',#1030);
#311=VERTEX_POINT('',#1033);
#312=VERTEX_POINT('',#1037);
#313=VERTEX_POINT('',#1040);
#314=VERTEX_POINT('',#1042);
#315=VERTEX_POINT('',#1049);
#316=VERTEX_POINT('',#1054);
#317=VERTEX_POINT('',#1060);
#318=VERTEX_POINT('',#1064);
#319=VERTEX_POINT('',#1067);
#320=VERTEX_POINT('',#1071);
#321=VERTEX_POINT('',#1074);
#322=VERTEX_POINT('',#1078);
#323=VERTEX_POINT('',#1082);
#324=EDGE_CURVE('',#268,#268,#226,.T.);
#325=EDGE_CURVE('',#268,#269,#140,.T.);
#326=EDGE_CURVE('',#270,#269,#227,.T.);
#327=EDGE_CURVE('',#269,#270,#228,.T.);
#328=EDGE_CURVE('',#271,#271,#229,.T.);
#329=EDGE_CURVE('',#271,#272,#141,.T.);
#330=EDGE_CURVE('',#272,#272,#230,.T.);
#331=EDGE_CURVE('',#273,#273,#231,.T.);
#332=EDGE_CURVE('',#273,#270,#142,.T.);
#333=EDGE_CURVE('',#274,#275,#143,.T.);
#334=EDGE_CURVE('',#274,#276,#144,.T.);
#335=EDGE_CURVE('',#276,#277,#145,.T.);
#336=EDGE_CURVE('',#275,#277,#146,.T.);
#337=EDGE_CURVE('',#278,#274,#147,.T.);
#338=EDGE_CURVE('',#278,#279,#148,.T.);
#339=EDGE_CURVE('',#279,#276,#149,.T.);
#340=EDGE_CURVE('',#280,#278,#232,.T.);
#341=EDGE_CURVE('',#280,#281,#150,.T.);
#342=EDGE_CURVE('',#281,#279,#233,.T.);
#343=EDGE_CURVE('',#282,#280,#151,.T.);
#344=EDGE_CURVE('',#282,#283,#152,.T.);
#345=EDGE_CURVE('',#283,#281,#153,.T.);
#346=EDGE_CURVE('',#284,#282,#154,.T.);
#347=EDGE_CURVE('',#284,#285,#155,.T.);
#348=EDGE_CURVE('',#285,#283,#156,.T.);
#349=EDGE_CURVE('',#275,#284,#234,.T.);
#350=EDGE_CURVE('',#277,#285,#235,.T.);
#351=EDGE_CURVE('',#286,#286,#236,.T.);
#352=EDGE_CURVE('',#286,#287,#157,.T.);
#353=EDGE_CURVE('',#287,#287,#237,.T.);
#354=EDGE_CURVE('',#288,#289,#158,.T.);
#355=EDGE_CURVE('',#289,#290,#238,.T.);
#356=EDGE_CURVE('',#290,#291,#239,.T.);
#357=EDGE_CURVE('',#288,#291,#240,.T.);
#358=EDGE_CURVE('',#292,#292,#241,.T.);
#359=EDGE_CURVE('',#292,#287,#159,.T.);
#360=EDGE_CURVE('',#293,#294,#160,.T.);
#361=EDGE_CURVE('',#295,#293,#161,.T.);
#362=EDGE_CURVE('',#296,#295,#162,.T.);
#363=EDGE_CURVE('',#297,#296,#163,.T.);
#364=EDGE_CURVE('',#298,#297,#164,.T.);
#365=EDGE_CURVE('',#299,#298,#165,.T.);
#366=EDGE_CURVE('',#300,#299,#166,.T.);
#367=EDGE_CURVE('',#301,#300,#167,.T.);
#368=EDGE_CURVE('',#302,#301,#168,.T.);
#369=EDGE_CURVE('',#289,#302,#169,.T.);
#370=EDGE_CURVE('',#294,#288,#170,.T.);
#371=EDGE_CURVE('',#299,#303,#242,.T.);
#372=EDGE_CURVE('',#303,#304,#243,.T.);
#373=EDGE_CURVE('',#305,#304,#244,.T.);
#374=EDGE_CURVE('',#305,#306,#245,.T.);
#375=EDGE_CURVE('',#300,#306,#246,.T.);
#376=EDGE_CURVE('',#307,#307,#247,.T.);
#377=EDGE_CURVE('',#308,#298,#248,.T.);
#378=EDGE_CURVE('',#303,#308,#171,.T.);
#379=EDGE_CURVE('',#297,#309,#249,.T.);
#380=EDGE_CURVE('',#309,#308,#250,.T.);
#381=EDGE_CURVE('',#310,#310,#251,.T.);
#382=EDGE_CURVE('',#295,#311,#252,.T.);
#383=EDGE_CURVE('',#296,#311,#253,.T.);
#384=EDGE_CURVE('',#311,#312,#172,.T.);
#385=EDGE_CURVE('',#294,#312,#254,.T.);
#386=EDGE_CURVE('',#291,#313,#173,.T.);
#387=EDGE_CURVE('',#314,#313,#255,.T.);
#388=EDGE_CURVE('',#305,#314,#174,.T.);
#389=EDGE_CURVE('',#304,#309,#175,.T.);
#390=EDGE_CURVE('',#312,#293,#256,.T.);
#391=EDGE_CURVE('',#306,#315,#176,.T.);
#392=EDGE_CURVE('',#301,#315,#257,.T.);
#393=EDGE_CURVE('',#315,#314,#258,.T.);
#394=EDGE_CURVE('',#313,#316,#259,.T.);
#395=EDGE_CURVE('',#316,#302,#260,.T.);
#396=EDGE_CURVE('',#290,#316,#177,.T.);
#397=EDGE_CURVE('',#307,#317,#178,.T.);
#398=EDGE_CURVE('',#317,#317,#261,.T.);
#399=EDGE_CURVE('',#318,#318,#262,.T.);
#400=EDGE_CURVE('',#319,#319,#263,.T.);
#401=EDGE_CURVE('',#319,#310,#179,.T.);
#402=EDGE_CURVE('',#320,#320,#264,.T.);
#403=EDGE_CURVE('',#320,#321,#180,.T.);
#404=EDGE_CURVE('',#321,#321,#265,.T.);
#405=EDGE_CURVE('',#321,#322,#181,.T.);
#406=EDGE_CURVE('',#322,#322,#266,.T.);
#407=EDGE_CURVE('',#323,#323,#267,.T.);
#408=EDGE_CURVE('',#323,#318,#182,.T.);
#409=ORIENTED_EDGE('',*,*,#324,.F.);
#410=ORIENTED_EDGE('',*,*,#325,.T.);
#411=ORIENTED_EDGE('',*,*,#326,.F.);
#412=ORIENTED_EDGE('',*,*,#327,.F.);
#413=ORIENTED_EDGE('',*,*,#325,.F.);
#414=ORIENTED_EDGE('',*,*,#328,.F.);
#415=ORIENTED_EDGE('',*,*,#329,.T.);
#416=ORIENTED_EDGE('',*,*,#330,.F.);
#417=ORIENTED_EDGE('',*,*,#329,.F.);
#418=ORIENTED_EDGE('',*,*,#331,.F.);
#419=ORIENTED_EDGE('',*,*,#332,.T.);
#420=ORIENTED_EDGE('',*,*,#326,.T.);
#421=ORIENTED_EDGE('',*,*,#327,.T.);
#422=ORIENTED_EDGE('',*,*,#332,.F.);
#423=ORIENTED_EDGE('',*,*,#333,.F.);
#424=ORIENTED_EDGE('',*,*,#334,.T.);
#425=ORIENTED_EDGE('',*,*,#335,.T.);
#426=ORIENTED_EDGE('',*,*,#336,.F.);
#427=ORIENTED_EDGE('',*,*,#337,.F.);
#428=ORIENTED_EDGE('',*,*,#338,.T.);
#429=ORIENTED_EDGE('',*,*,#339,.T.);
#430=ORIENTED_EDGE('',*,*,#334,.F.);
#431=ORIENTED_EDGE('',*,*,#340,.F.);
#432=ORIENTED_EDGE('',*,*,#341,.T.);
#433=ORIENTED_EDGE('',*,*,#342,.T.);
#434=ORIENTED_EDGE('',*,*,#338,.F.);
#435=ORIENTED_EDGE('',*,*,#343,.F.);
#436=ORIENTED_EDGE('',*,*,#344,.T.);
#437=ORIENTED_EDGE('',*,*,#345,.T.);
#438=ORIENTED_EDGE('',*,*,#341,.F.);
#439=ORIENTED_EDGE('',*,*,#346,.F.);
#440=ORIENTED_EDGE('',*,*,#347,.T.);
#441=ORIENTED_EDGE('',*,*,#348,.T.);
#442=ORIENTED_EDGE('',*,*,#344,.F.);
#443=ORIENTED_EDGE('',*,*,#349,.F.);
#444=ORIENTED_EDGE('',*,*,#336,.T.);
#445=ORIENTED_EDGE('',*,*,#350,.T.);
#446=ORIENTED_EDGE('',*,*,#347,.F.);
#447=ORIENTED_EDGE('',*,*,#350,.F.);
#448=ORIENTED_EDGE('',*,*,#335,.F.);
#449=ORIENTED_EDGE('',*,*,#339,.F.);
#450=ORIENTED_EDGE('',*,*,#342,.F.);
#451=ORIENTED_EDGE('',*,*,#345,.F.);
#452=ORIENTED_EDGE('',*,*,#348,.F.);
#453=ORIENTED_EDGE('',*,*,#328,.T.);
#454=ORIENTED_EDGE('',*,*,#331,.T.);
#455=ORIENTED_EDGE('',*,*,#351,.T.);
#456=ORIENTED_EDGE('',*,*,#352,.T.);
#457=ORIENTED_EDGE('',*,*,#353,.T.);
#458=ORIENTED_EDGE('',*,*,#352,.F.);
#459=ORIENTED_EDGE('',*,*,#354,.T.);
#460=ORIENTED_EDGE('',*,*,#355,.T.);
#461=ORIENTED_EDGE('',*,*,#356,.T.);
#462=ORIENTED_EDGE('',*,*,#357,.F.);
#463=ORIENTED_EDGE('',*,*,#324,.T.);
#464=ORIENTED_EDGE('',*,*,#330,.T.);
#465=ORIENTED_EDGE('',*,*,#351,.F.);
#466=ORIENTED_EDGE('',*,*,#358,.F.);
#467=ORIENTED_EDGE('',*,*,#359,.T.);
#468=ORIENTED_EDGE('',*,*,#353,.F.);
#469=ORIENTED_EDGE('',*,*,#359,.F.);
#470=ORIENTED_EDGE('',*,*,#360,.F.);
#471=ORIENTED_EDGE('',*,*,#361,.F.);
#472=ORIENTED_EDGE('',*,*,#362,.F.);
#473=ORIENTED_EDGE('',*,*,#363,.F.);
#474=ORIENTED_EDGE('',*,*,#364,.F.);
#475=ORIENTED_EDGE('',*,*,#365,.F.);
#476=ORIENTED_EDGE('',*,*,#366,.F.);
#477=ORIENTED_EDGE('',*,*,#367,.F.);
#478=ORIENTED_EDGE('',*,*,#368,.F.);
#479=ORIENTED_EDGE('',*,*,#369,.F.);
#480=ORIENTED_EDGE('',*,*,#354,.F.);
#481=ORIENTED_EDGE('',*,*,#370,.F.);
#482=ORIENTED_EDGE('',*,*,#366,.T.);
#483=ORIENTED_EDGE('',*,*,#371,.T.);
#484=ORIENTED_EDGE('',*,*,#372,.T.);
#485=ORIENTED_EDGE('',*,*,#373,.F.);
#486=ORIENTED_EDGE('',*,*,#374,.T.);
#487=ORIENTED_EDGE('',*,*,#375,.F.);
#488=ORIENTED_EDGE('',*,*,#376,.F.);
#489=ORIENTED_EDGE('',*,*,#365,.T.);
#490=ORIENTED_EDGE('',*,*,#377,.F.);
#491=ORIENTED_EDGE('',*,*,#378,.F.);
#492=ORIENTED_EDGE('',*,*,#371,.F.);
#493=ORIENTED_EDGE('',*,*,#364,.T.);
#494=ORIENTED_EDGE('',*,*,#379,.T.);
#495=ORIENTED_EDGE('',*,*,#380,.T.);
#496=ORIENTED_EDGE('',*,*,#377,.T.);
#497=ORIENTED_EDGE('',*,*,#381,.T.);
#498=ORIENTED_EDGE('',*,*,#362,.T.);
#499=ORIENTED_EDGE('',*,*,#382,.T.);
#500=ORIENTED_EDGE('',*,*,#383,.F.);
#501=ORIENTED_EDGE('',*,*,#363,.T.);
#502=ORIENTED_EDGE('',*,*,#383,.T.);
#503=ORIENTED_EDGE('',*,*,#384,.T.);
#504=ORIENTED_EDGE('',*,*,#385,.F.);
#505=ORIENTED_EDGE('',*,*,#370,.T.);
#506=ORIENTED_EDGE('',*,*,#357,.T.);
#507=ORIENTED_EDGE('',*,*,#386,.T.);
#508=ORIENTED_EDGE('',*,*,#387,.F.);
#509=ORIENTED_EDGE('',*,*,#388,.F.);
#510=ORIENTED_EDGE('',*,*,#373,.T.);
#511=ORIENTED_EDGE('',*,*,#389,.T.);
#512=ORIENTED_EDGE('',*,*,#379,.F.);
#513=ORIENTED_EDGE('',*,*,#361,.T.);
#514=ORIENTED_EDGE('',*,*,#390,.F.);
#515=ORIENTED_EDGE('',*,*,#384,.F.);
#516=ORIENTED_EDGE('',*,*,#382,.F.);
#517=ORIENTED_EDGE('',*,*,#367,.T.);
#518=ORIENTED_EDGE('',*,*,#375,.T.);
#519=ORIENTED_EDGE('',*,*,#391,.T.);
#520=ORIENTED_EDGE('',*,*,#392,.F.);
#521=ORIENTED_EDGE('',*,*,#368,.T.);
#522=ORIENTED_EDGE('',*,*,#392,.T.);
#523=ORIENTED_EDGE('',*,*,#393,.T.);
#524=ORIENTED_EDGE('',*,*,#387,.T.);
#525=ORIENTED_EDGE('',*,*,#394,.T.);
#526=ORIENTED_EDGE('',*,*,#395,.T.);
#527=ORIENTED_EDGE('',*,*,#333,.T.);
#528=ORIENTED_EDGE('',*,*,#349,.T.);
#529=ORIENTED_EDGE('',*,*,#346,.T.);
#530=ORIENTED_EDGE('',*,*,#343,.T.);
#531=ORIENTED_EDGE('',*,*,#340,.T.);
#532=ORIENTED_EDGE('',*,*,#337,.T.);
#533=ORIENTED_EDGE('',*,*,#369,.T.);
#534=ORIENTED_EDGE('',*,*,#395,.F.);
#535=ORIENTED_EDGE('',*,*,#396,.F.);
#536=ORIENTED_EDGE('',*,*,#355,.F.);
#537=ORIENTED_EDGE('',*,*,#376,.T.);
#538=ORIENTED_EDGE('',*,*,#397,.T.);
#539=ORIENTED_EDGE('',*,*,#398,.F.);
#540=ORIENTED_EDGE('',*,*,#397,.F.);
#541=ORIENTED_EDGE('',*,*,#398,.T.);
#542=ORIENTED_EDGE('',*,*,#399,.T.);
#543=ORIENTED_EDGE('',*,*,#400,.T.);
#544=ORIENTED_EDGE('',*,*,#401,.T.);
#545=ORIENTED_EDGE('',*,*,#381,.F.);
#546=ORIENTED_EDGE('',*,*,#401,.F.);
#547=ORIENTED_EDGE('',*,*,#400,.F.);
#548=ORIENTED_EDGE('',*,*,#402,.F.);
#549=ORIENTED_EDGE('',*,*,#402,.T.);
#550=ORIENTED_EDGE('',*,*,#403,.T.);
#551=ORIENTED_EDGE('',*,*,#404,.T.);
#552=ORIENTED_EDGE('',*,*,#403,.F.);
#553=ORIENTED_EDGE('',*,*,#404,.F.);
#554=ORIENTED_EDGE('',*,*,#405,.T.);
#555=ORIENTED_EDGE('',*,*,#406,.T.);
#556=ORIENTED_EDGE('',*,*,#405,.F.);
#557=ORIENTED_EDGE('',*,*,#406,.F.);
#558=ORIENTED_EDGE('',*,*,#407,.F.);
#559=ORIENTED_EDGE('',*,*,#407,.T.);
#560=ORIENTED_EDGE('',*,*,#408,.T.);
#561=ORIENTED_EDGE('',*,*,#399,.F.);
#562=ORIENTED_EDGE('',*,*,#408,.F.);
#563=ORIENTED_EDGE('',*,*,#358,.T.);
#564=ORIENTED_EDGE('',*,*,#360,.T.);
#565=ORIENTED_EDGE('',*,*,#385,.T.);
#566=ORIENTED_EDGE('',*,*,#390,.T.);
#567=ORIENTED_EDGE('',*,*,#356,.F.);
#568=ORIENTED_EDGE('',*,*,#396,.T.);
#569=ORIENTED_EDGE('',*,*,#394,.F.);
#570=ORIENTED_EDGE('',*,*,#386,.F.);
#571=ORIENTED_EDGE('',*,*,#372,.F.);
#572=ORIENTED_EDGE('',*,*,#378,.T.);
#573=ORIENTED_EDGE('',*,*,#380,.F.);
#574=ORIENTED_EDGE('',*,*,#389,.F.);
#575=ORIENTED_EDGE('',*,*,#374,.F.);
#576=ORIENTED_EDGE('',*,*,#388,.T.);
#577=ORIENTED_EDGE('',*,*,#393,.F.);
#578=ORIENTED_EDGE('',*,*,#391,.F.);
#579=CONICAL_SURFACE('',#634,1.875,0.785398163397448);
#580=CONICAL_SURFACE('',#654,7.45000000000001,1.27933953231703);
#581=CONICAL_SURFACE('',#692,8.05000000000003,0.785398163397455);
#582=CONICAL_SURFACE('',#696,14.,0.785398163397446);
#583=CONICAL_SURFACE('',#700,8.05000000000003,0.785398163397455);
#584=ADVANCED_FACE('',(#57),#579,.F.);
#585=ADVANCED_FACE('',(#58),#42,.F.);
#586=ADVANCED_FACE('',(#59),#43,.F.);
#587=ADVANCED_FACE('',(#60),#26,.F.);
#588=ADVANCED_FACE('',(#61),#27,.F.);
#589=ADVANCED_FACE('',(#62),#44,.F.);
#590=ADVANCED_FACE('',(#63),#28,.F.);
#591=ADVANCED_FACE('',(#64),#29,.F.);
#592=ADVANCED_FACE('',(#65),#45,.F.);
#593=ADVANCED_FACE('',(#66,#15,#16),#30,.T.);
#594=ADVANCED_FACE('',(#67),#580,.T.);
#595=ADVANCED_FACE('',(#68,#17,#18,#19),#31,.T.);
#596=ADVANCED_FACE('',(#69),#46,.T.);
#597=ADVANCED_FACE('',(#70),#32,.F.);
#598=ADVANCED_FACE('',(#71,#20),#33,.T.);
#599=ADVANCED_FACE('',(#72),#47,.T.);
#600=ADVANCED_FACE('',(#73,#21),#34,.F.);
#601=ADVANCED_FACE('',(#74),#35,.T.);
#602=ADVANCED_FACE('',(#75),#48,.F.);
#603=ADVANCED_FACE('',(#76),#49,.F.);
#604=ADVANCED_FACE('',(#77),#50,.T.);
#605=ADVANCED_FACE('',(#78,#22),#36,.F.);
#606=ADVANCED_FACE('',(#79),#51,.T.);
#607=ADVANCED_FACE('',(#80),#581,.T.);
#608=ADVANCED_FACE('',(#81,#23),#37,.F.);
#609=ADVANCED_FACE('',(#82),#582,.T.);
#610=ADVANCED_FACE('',(#83,#24),#38,.T.);
#611=ADVANCED_FACE('',(#84),#583,.F.);
#612=ADVANCED_FACE('',(#85),#52,.F.);
#613=ADVANCED_FACE('',(#86,#25),#39,.T.);
#614=ADVANCED_FACE('',(#87),#53,.F.);
#615=ADVANCED_FACE('',(#88),#40,.T.);
#616=ADVANCED_FACE('',(#89),#41,.F.);
#617=ADVANCED_FACE('',(#90),#54,.T.);
#618=ADVANCED_FACE('',(#91),#55,.T.);
#619=ADVANCED_FACE('',(#92),#56,.F.);
#620=CLOSED_SHELL('',(#584,#585,#586,#587,#588,#589,#590,#591,#592,#593,
#594,#595,#596,#597,#598,#599,#600,#601,#602,#603,#604,#605,#606,#607,#608,
#609,#610,#611,#612,#613,#614,#615,#616,#617,#618,#619));
#621=DERIVED_UNIT_ELEMENT(#623,1.);
#622=DERIVED_UNIT_ELEMENT(#1096,-3.);
#623=(
MASS_UNIT()
NAMED_UNIT(*)
SI_UNIT(.KILO.,.GRAM.)
);
#624=DERIVED_UNIT((#621,#622));
#625=MEASURE_REPRESENTATION_ITEM('density measure',
POSITIVE_RATIO_MEASURE(7850.),#624);
#626=PROPERTY_DEFINITION_REPRESENTATION(#631,#628);
#627=PROPERTY_DEFINITION_REPRESENTATION(#632,#629);
#628=REPRESENTATION('material name',(#630),#1093);
#629=REPRESENTATION('density',(#625),#1093);
#630=DESCRIPTIVE_REPRESENTATION_ITEM('Steel','Steel');
#631=PROPERTY_DEFINITION('material property','material name',#1103);
#632=PROPERTY_DEFINITION('material property','density of part',#1103);
#633=AXIS2_PLACEMENT_3D('',#913,#712,#713);
#634=AXIS2_PLACEMENT_3D('',#914,#714,#715);
#635=AXIS2_PLACEMENT_3D('',#916,#716,#717);
#636=AXIS2_PLACEMENT_3D('',#920,#719,#720);
#637=AXIS2_PLACEMENT_3D('',#921,#721,#722);
#638=AXIS2_PLACEMENT_3D('',#922,#723,#724);
#639=AXIS2_PLACEMENT_3D('',#924,#725,#726);
#640=AXIS2_PLACEMENT_3D('',#927,#728,#729);
#641=AXIS2_PLACEMENT_3D('',#928,#730,#731);
#642=AXIS2_PLACEMENT_3D('',#930,#732,#733);
#643=AXIS2_PLACEMENT_3D('',#932,#735,#736);
#644=AXIS2_PLACEMENT_3D('',#941,#741,#742);
#645=AXIS2_PLACEMENT_3D('',#947,#746,#747);
#646=AXIS2_PLACEMENT_3D('',#949,#748,#749);
#647=AXIS2_PLACEMENT_3D('',#952,#751,#752);
#648=AXIS2_PLACEMENT_3D('',#953,#753,#754);
#649=AXIS2_PLACEMENT_3D('',#959,#758,#759);
#650=AXIS2_PLACEMENT_3D('',#965,#763,#764);
#651=AXIS2_PLACEMENT_3D('',#966,#765,#766);
#652=AXIS2_PLACEMENT_3D('',#967,#767,#768);
#653=AXIS2_PLACEMENT_3D('',#968,#769,#770);
#654=AXIS2_PLACEMENT_3D('',#969,#771,#772);
#655=AXIS2_PLACEMENT_3D('',#971,#773,#774);
#656=AXIS2_PLACEMENT_3D('',#974,#776,#777);
#657=AXIS2_PLACEMENT_3D('',#975,#778,#779);
#658=AXIS2_PLACEMENT_3D('',#980,#781,#782);
#659=AXIS2_PLACEMENT_3D('',#982,#783,#784);
#660=AXIS2_PLACEMENT_3D('',#983,#785,#786);
#661=AXIS2_PLACEMENT_3D('',#984,#787,#788);
#662=AXIS2_PLACEMENT_3D('',#986,#789,#790);
#663=AXIS2_PLACEMENT_3D('',#988,#792,#793);
#664=AXIS2_PLACEMENT_3D('',#1010,#805,#806);
#665=AXIS2_PLACEMENT_3D('',#1012,#807,#808);
#666=AXIS2_PLACEMENT_3D('',#1014,#809,#810);
#667=AXIS2_PLACEMENT_3D('',#1016,#811,#812);
#668=AXIS2_PLACEMENT_3D('',#1018,#813,#814);
#669=AXIS2_PLACEMENT_3D('',#1019,#815,#816);
#670=AXIS2_PLACEMENT_3D('',#1021,#817,#818);
#671=AXIS2_PLACEMENT_3D('',#1022,#819,#820);
#672=AXIS2_PLACEMENT_3D('',#1024,#821,#822);
#673=AXIS2_PLACEMENT_3D('',#1026,#824,#825);
#674=AXIS2_PLACEMENT_3D('',#1028,#826,#827);
#675=AXIS2_PLACEMENT_3D('',#1029,#828,#829);
#676=AXIS2_PLACEMENT_3D('',#1031,#830,#831);
#677=AXIS2_PLACEMENT_3D('',#1032,#832,#833);
#678=AXIS2_PLACEMENT_3D('',#1034,#834,#835);
#679=AXIS2_PLACEMENT_3D('',#1035,#836,#837);
#680=AXIS2_PLACEMENT_3D('',#1036,#838,#839);
#681=AXIS2_PLACEMENT_3D('',#1039,#841,#842);
#682=AXIS2_PLACEMENT_3D('',#1043,#844,#845);
#683=AXIS2_PLACEMENT_3D('',#1046,#848,#849);
#684=AXIS2_PLACEMENT_3D('',#1047,#850,#851);
#685=AXIS2_PLACEMENT_3D('',#1048,#852,#853);
#686=AXIS2_PLACEMENT_3D('',#1051,#855,#856);
#687=AXIS2_PLACEMENT_3D('',#1052,#857,#858);
#688=AXIS2_PLACEMENT_3D('',#1053,#859,#860);
#689=AXIS2_PLACEMENT_3D('',#1055,#861,#862);
#690=AXIS2_PLACEMENT_3D('',#1056,#863,#864);
#691=AXIS2_PLACEMENT_3D('',#1057,#865,#866);
#692=AXIS2_PLACEMENT_3D('',#1059,#868,#869);
#693=AXIS2_PLACEMENT_3D('',#1062,#871,#872);
#694=AXIS2_PLACEMENT_3D('',#1063,#873,#874);
#695=AXIS2_PLACEMENT_3D('',#1065,#875,#876);
#696=AXIS2_PLACEMENT_3D('',#1066,#877,#878);
#697=AXIS2_PLACEMENT_3D('',#1068,#879,#880);
#698=AXIS2_PLACEMENT_3D('',#1070,#882,#883);
#699=AXIS2_PLACEMENT_3D('',#1072,#884,#885);
#700=AXIS2_PLACEMENT_3D('',#1073,#886,#887);
#701=AXIS2_PLACEMENT_3D('',#1076,#889,#890);
#702=AXIS2_PLACEMENT_3D('',#1077,#891,#892);
#703=AXIS2_PLACEMENT_3D('',#1080,#894,#895);
#704=AXIS2_PLACEMENT_3D('',#1081,#896,#897);
#705=AXIS2_PLACEMENT_3D('',#1083,#898,#899);
#706=AXIS2_PLACEMENT_3D('',#1084,#900,#901);
#707=AXIS2_PLACEMENT_3D('',#1086,#903,#904);
#708=AXIS2_PLACEMENT_3D('',#1087,#905,#906);
#709=AXIS2_PLACEMENT_3D('',#1088,#907,#908);
#710=AXIS2_PLACEMENT_3D('',#1089,#909,#910);
#711=AXIS2_PLACEMENT_3D('',#1090,#911,#912);
#712=DIRECTION('axis',(0.,0.,1.));
#713=DIRECTION('refdir',(1.,0.,0.));
#714=DIRECTION('center_axis',(1.,0.,0.));
#715=DIRECTION('ref_axis',(0.,1.,0.));
#716=DIRECTION('center_axis',(-1.,0.,0.));
#717=DIRECTION('ref_axis',(0.,1.,0.));
#718=DIRECTION('',(-0.707106781186548,0.707106781186547,-8.65956056235493E-17));
#719=DIRECTION('center_axis',(1.,0.,0.));
#720=DIRECTION('ref_axis',(0.,-1.,0.));
#721=DIRECTION('center_axis',(1.,0.,0.));
#722=DIRECTION('ref_axis',(0.,-1.,0.));
#723=DIRECTION('center_axis',(1.,0.,0.));
#724=DIRECTION('ref_axis',(0.,-1.,0.));
#725=DIRECTION('center_axis',(1.,0.,0.));
#726=DIRECTION('ref_axis',(0.,-1.,0.));
#727=DIRECTION('',(1.,0.,0.));
#728=DIRECTION('center_axis',(-1.,0.,0.));
#729=DIRECTION('ref_axis',(0.,-1.,0.));
#730=DIRECTION('center_axis',(1.,0.,0.));
#731=DIRECTION('ref_axis',(0.,-1.,0.));
#732=DIRECTION('center_axis',(1.,0.,0.));
#733=DIRECTION('ref_axis',(0.,-1.,0.));
#734=DIRECTION('',(1.,0.,0.));
#735=DIRECTION('center_axis',(0.,-3.58136459556504E-16,-1.));
#736=DIRECTION('ref_axis',(0.,1.,-3.58136459556504E-16));
#737=DIRECTION('',(0.,1.,-3.58136459556504E-16));
#738=DIRECTION('',(1.,0.,0.));
#739=DIRECTION('',(0.,1.,-3.58136459556504E-16));
#740=DIRECTION('',(1.,0.,0.));
#741=DIRECTION('center_axis',(0.,0.581883728138336,-0.813271988284259));
#742=DIRECTION('ref_axis',(0.,0.813271988284259,0.581883728138336));
#743=DIRECTION('',(0.,0.813271988284259,0.581883728138336));
#744=DIRECTION('',(1.,0.,0.));
#745=DIRECTION('',(0.,0.813271988284259,0.581883728138336));
#746=DIRECTION('center_axis',(1.,0.,0.));
#747=DIRECTION('ref_axis',(0.,-1.,1.30614473485312E-16));
#748=DIRECTION('center_axis',(1.,0.,0.));
#749=DIRECTION('ref_axis',(0.,-1.,1.30614473485312E-16));
#750=DIRECTION('',(1.,0.,0.));
#751=DIRECTION('center_axis',(1.,0.,0.));
#752=DIRECTION('ref_axis',(0.,-1.,1.30614473485312E-16));
#753=DIRECTION('center_axis',(0.,0.58297597542274,0.812489391979923));
#754=DIRECTION('ref_axis',(0.,-0.812489391979923,0.58297597542274));
#755=DIRECTION('',(0.,-0.812489391979923,0.58297597542274));
#756=DIRECTION('',(1.,0.,0.));
#757=DIRECTION('',(0.,-0.812489391979923,0.58297597542274));
#758=DIRECTION('center_axis',(0.,-2.86509167645204E-16,1.));
#759=DIRECTION('ref_axis',(0.,-1.,-2.86509167645204E-16));
#760=DIRECTION('',(0.,-1.,-2.86509167645204E-16));
#761=DIRECTION('',(1.,0.,0.));
#762=DIRECTION('',(0.,-1.,-2.86509167645204E-16));
#763=DIRECTION('center_axis',(1.,0.,0.));
#764=DIRECTION('ref_axis',(0.,1.,-2.02660911500301E-8));
#765=DIRECTION('center_axis',(1.,0.,0.));
#766=DIRECTION('ref_axis',(0.,-1.,0.));
#767=DIRECTION('center_axis',(1.,0.,0.));
#768=DIRECTION('ref_axis',(0.,-1.,0.));
#769=DIRECTION('center_axis',(-1.,0.,0.));
#770=DIRECTION('ref_axis',(0.,0.,1.));
#771=DIRECTION('center_axis',(-1.,0.,0.));
#772=DIRECTION('ref_axis',(0.,1.,0.));
#773=DIRECTION('center_axis',(1.,0.,0.));
#774=DIRECTION('ref_axis',(0.,1.,0.));
#775=DIRECTION('',(0.287347885566345,0.957826285221151,-1.17299889433528E-16));
#776=DIRECTION('center_axis',(-1.,0.,0.));
#777=DIRECTION('ref_axis',(0.,1.,0.));
#778=DIRECTION('center_axis',(1.,0.,0.));
#779=DIRECTION('ref_axis',(0.,1.,0.));
#780=DIRECTION('',(0.,0.,1.));
#781=DIRECTION('center_axis',(1.,0.,0.));
#782=DIRECTION('ref_axis',(0.,0.398715652847199,0.917074603385478));
#783=DIRECTION('center_axis',(1.,0.,0.));
#784=DIRECTION('ref_axis',(0.,1.,0.));
#785=DIRECTION('center_axis',(1.,0.,0.));
#786=DIRECTION('ref_axis',(0.,-0.00294755312117939,0.999995655955864));
#787=DIRECTION('center_axis',(1.,0.,0.));
#788=DIRECTION('ref_axis',(0.,1.,0.));
#789=DIRECTION('center_axis',(1.,0.,0.));
#790=DIRECTION('ref_axis',(0.,1.,0.));
#791=DIRECTION('',(-1.,0.,0.));
#792=DIRECTION('center_axis',(0.,-1.,0.));
#793=DIRECTION('ref_axis',(0.,0.,-1.));
#794=DIRECTION('',(0.,0.,-1.));
#795=DIRECTION('',(1.,0.,0.));
#796=DIRECTION('',(0.,0.,1.));
#797=DIRECTION('',(1.,0.,0.));
#798=DIRECTION('',(0.,0.,-1.));
#799=DIRECTION('',(-1.,0.,0.));
#800=DIRECTION('',(0.,0.,1.));
#801=DIRECTION('',(-1.,0.,0.));
#802=DIRECTION('',(0.,0.,-1.));
#803=DIRECTION('',(-1.,0.,0.));
#804=DIRECTION('',(1.,0.,0.));
#805=DIRECTION('center_axis',(1.,0.,0.));
#806=DIRECTION('ref_axis',(0.,1.,6.93889390390723E-18));
#807=DIRECTION('center_axis',(1.,0.,0.));
#808=DIRECTION('ref_axis',(0.,0.398715652847199,0.917074603385478));
#809=DIRECTION('center_axis',(1.,0.,0.));
#810=DIRECTION('ref_axis',(0.,1.,6.93889390390723E-18));
#811=DIRECTION('center_axis',(1.,0.,0.));
#812=DIRECTION('ref_axis',(0.,-0.0029475531211794,0.999995655955864));
#813=DIRECTION('center_axis',(1.,0.,0.));
#814=DIRECTION('ref_axis',(0.,0.992939031135311,-0.118625800094538));
#815=DIRECTION('center_axis',(1.,0.,0.));
#816=DIRECTION('ref_axis',(0.,0.398725126257236,0.917070484581829));
#817=DIRECTION('center_axis',(1.,0.,0.));
#818=DIRECTION('ref_axis',(0.,-1.,0.));
#819=DIRECTION('center_axis',(1.,0.,0.));
#820=DIRECTION('ref_axis',(0.,0.3987156528472,0.917074603385478));
#821=DIRECTION('center_axis',(-1.,0.,0.));
#822=DIRECTION('ref_axis',(0.,0.398715652847199,0.917074603385478));
#823=DIRECTION('',(-1.,0.,0.));
#824=DIRECTION('center_axis',(1.,0.,0.));
#825=DIRECTION('ref_axis',(0.,1.,6.93889390390723E-18));
#826=DIRECTION('center_axis',(1.,0.,0.));
#827=DIRECTION('ref_axis',(0.,-0.0029475531211794,0.999995655955864));
#828=DIRECTION('center_axis',(-1.,0.,0.));
#829=DIRECTION('ref_axis',(0.,1.,6.93889390390723E-18));
#830=DIRECTION('center_axis',(1.,0.,0.));
#831=DIRECTION('ref_axis',(0.,-1.,0.));
#832=DIRECTION('center_axis',(1.,0.,0.));
#833=DIRECTION('ref_axis',(0.,1.,6.93889390390723E-18));
#834=DIRECTION('center_axis',(1.,0.,0.));
#835=DIRECTION('ref_axis',(0.,-0.0020598984888022,0.999997878406857));
#836=DIRECTION('center_axis',(1.,0.,0.));
#837=DIRECTION('ref_axis',(0.,-0.0029475531211794,0.999995655955864));
#838=DIRECTION('center_axis',(1.,0.,0.));
#839=DIRECTION('ref_axis',(0.,-0.00294755312117916,0.999995655955863));
#840=DIRECTION('',(1.,0.,0.));
#841=DIRECTION('center_axis',(1.,0.,0.));
#842=DIRECTION('ref_axis',(0.,-0.00294755312117939,0.999995655955864));
#843=DIRECTION('',(-1.,0.,0.));
#844=DIRECTION('center_axis',(1.,0.,0.));
#845=DIRECTION('ref_axis',(0.,-0.00294755312117939,0.999995655955864));
#846=DIRECTION('',(1.,0.,0.));
#847=DIRECTION('',(-1.,0.,0.));
#848=DIRECTION('center_axis',(1.,0.,0.));
#849=DIRECTION('ref_axis',(0.,-0.0020598984888022,0.999997878406857));
#850=DIRECTION('center_axis',(-1.,0.,0.));
#851=DIRECTION('ref_axis',(0.,-0.0020598984888022,0.999997878406857));
#852=DIRECTION('center_axis',(1.,0.,0.));
#853=DIRECTION('ref_axis',(0.,0.398725126257236,0.917070484581829));
#854=DIRECTION('',(1.,0.,0.));
#855=DIRECTION('center_axis',(1.,0.,0.));
#856=DIRECTION('ref_axis',(0.,0.398725126257236,0.917070484581829));
#857=DIRECTION('center_axis',(1.,0.,0.));
#858=DIRECTION('ref_axis',(0.,1.,0.));
#859=DIRECTION('center_axis',(-1.,0.,0.));
#860=DIRECTION('ref_axis',(0.,0.992939031135311,-0.118625800094538));
#861=DIRECTION('center_axis',(-1.,0.,0.));
#862=DIRECTION('ref_axis',(0.,1.,0.));
#863=DIRECTION('center_axis',(-1.,0.,0.));
#864=DIRECTION('ref_axis',(0.,0.398715652847199,0.917074603385478));
#865=DIRECTION('center_axis',(1.,0.,0.));
#866=DIRECTION('ref_axis',(0.,0.3987156528472,0.917074603385478));
#867=DIRECTION('',(-1.,0.,0.));
#868=DIRECTION('center_axis',(-1.,0.,0.));
#869=DIRECTION('ref_axis',(0.,-1.,0.));
#870=DIRECTION('',(0.707106781186543,-0.707106781186552,8.65956056235499E-17));
#871=DIRECTION('center_axis',(1.,0.,0.));
#872=DIRECTION('ref_axis',(0.,-1.,0.));
#873=DIRECTION('center_axis',(-1.,0.,0.));
#874=DIRECTION('ref_axis',(0.,-1.,0.));
#875=DIRECTION('center_axis',(-1.,0.,0.));
#876=DIRECTION('ref_axis',(0.,-1.,0.));
#877=DIRECTION('center_axis',(1.,0.,0.));
#878=DIRECTION('ref_axis',(0.,-1.,0.));
#879=DIRECTION('center_axis',(1.,0.,0.));
#880=DIRECTION('ref_axis',(0.,-1.,0.));
#881=DIRECTION('',(0.707106781186549,0.707106781186546,-8.65956056235491E-17));
#882=DIRECTION('center_axis',(-1.,0.,0.));
#883=DIRECTION('ref_axis',(0.,-1.,0.));
#884=DIRECTION('center_axis',(-1.,0.,0.));
#885=DIRECTION('ref_axis',(0.,-1.,0.));
#886=DIRECTION('center_axis',(-1.,0.,0.));
#887=DIRECTION('ref_axis',(0.,-1.,0.));
#888=DIRECTION('',(0.707106781186543,-0.707106781186552,8.65956056235499E-17));
#889=DIRECTION('center_axis',(1.,0.,0.));
#890=DIRECTION('ref_axis',(0.,-1.,0.));
#891=DIRECTION('center_axis',(-1.,0.,0.));
#892=DIRECTION('ref_axis',(0.,-1.,0.));
#893=DIRECTION('',(1.,0.,0.));
#894=DIRECTION('center_axis',(1.,0.,0.));
#895=DIRECTION('ref_axis',(0.,-1.,0.));
#896=DIRECTION('center_axis',(-1.,0.,0.));
#897=DIRECTION('ref_axis',(0.,-1.,0.));
#898=DIRECTION('center_axis',(-1.,0.,0.));
#899=DIRECTION('ref_axis',(0.,-1.,0.));
#900=DIRECTION('center_axis',(1.,0.,0.));
#901=DIRECTION('ref_axis',(0.,-1.,0.));
#902=DIRECTION('',(1.,0.,0.));
#903=DIRECTION('center_axis',(1.,0.,0.));
#904=DIRECTION('ref_axis',(0.,1.,0.));
#905=DIRECTION('center_axis',(1.,0.,0.));
#906=DIRECTION('ref_axis',(0.,1.,0.));
#907=DIRECTION('center_axis',(-1.,0.,0.));
#908=DIRECTION('ref_axis',(0.,-0.977679747477448,-0.210100717210658));
#909=DIRECTION('center_axis',(-1.,0.,0.));
#910=DIRECTION('ref_axis',(0.,-0.977679747477448,-0.210100717210658));
#911=DIRECTION('center_axis',(1.,0.,0.));
#912=DIRECTION('ref_axis',(0.,0.992939031135311,-0.118625800094538));
#913=CARTESIAN_POINT('',(0.,0.,0.));
#914=CARTESIAN_POINT('Origin',(37.875,239.514071024256,7.91215766071535));
#915=CARTESIAN_POINT('',(38.5,237.014071024256,7.91215766071535));
#916=CARTESIAN_POINT('Origin',(38.5,239.514071024256,7.91215766071535));
#917=CARTESIAN_POINT('',(37.25,238.264071024256,7.91215766071535));
#918=CARTESIAN_POINT('',(37.875,237.639071024256,7.91215766071535));
#919=CARTESIAN_POINT('',(37.25,240.764071024256,7.91215766071535));
#920=CARTESIAN_POINT('Origin',(37.25,239.514071024256,7.91215766071535));
#921=CARTESIAN_POINT('Origin',(37.25,239.514071024256,7.91215766071535));
#922=CARTESIAN_POINT('Origin',(36.,235.514071027559,7.91199509483193));
#923=CARTESIAN_POINT('',(36.,236.764071027559,7.91199509483193));
#924=CARTESIAN_POINT('Origin',(36.,235.514071027559,7.91199509483193));
#925=CARTESIAN_POINT('',(38.5,236.764071027559,7.91199509483193));
#926=CARTESIAN_POINT('',(36.,236.764071027559,7.91199509483193));
#927=CARTESIAN_POINT('Origin',(38.5,235.514071027559,7.91199509483193));
#928=CARTESIAN_POINT('Origin',(36.,239.514071024256,7.91215766071535));
#929=CARTESIAN_POINT('',(36.,240.764071024256,7.91215766071535));
#930=CARTESIAN_POINT('Origin',(36.,239.514071024256,7.91215766071535));
#931=CARTESIAN_POINT('',(36.,240.764071024256,7.91215766071535));
#932=CARTESIAN_POINT('Origin',(33.5,224.014071024256,3.91215766071539));
#933=CARTESIAN_POINT('',(33.5,224.014071024256,3.91215766071539));
#934=CARTESIAN_POINT('',(33.5,239.514070862127,3.91215766071537));
#935=CARTESIAN_POINT('',(33.5,231.451571025082,3.91215766071538));
#936=CARTESIAN_POINT('',(36.,224.014071024256,3.91215766071539));
#937=CARTESIAN_POINT('',(33.5,224.014071024256,3.91215766071539));
#938=CARTESIAN_POINT('',(36.,239.514070862127,3.91215766071537));
#939=CARTESIAN_POINT('',(36.,224.511235078482,3.91215766071539));
#940=CARTESIAN_POINT('',(33.5,239.514070862127,3.91215766071537));
#941=CARTESIAN_POINT('Origin',(33.5,219.948738930335,1.00347442926467));
#942=CARTESIAN_POINT('',(33.5,219.948738930335,1.00347442926468));
#943=CARTESIAN_POINT('',(33.5,227.847111194934,6.65463955699174));
#944=CARTESIAN_POINT('',(36.,219.948738930335,1.00347442926468));
#945=CARTESIAN_POINT('',(33.5,219.948738930335,1.00347442926468));
#946=CARTESIAN_POINT('',(36.,223.257671291632,3.37096516580322));
#947=CARTESIAN_POINT('Origin',(33.5,215.002727241161,7.91628632968241));
#948=CARTESIAN_POINT('',(33.5,219.958023032252,14.8224461615134));
#949=CARTESIAN_POINT('Origin',(33.5,215.002727241161,7.91628632968241));
#950=CARTESIAN_POINT('',(36.,219.958023032252,14.8224461615134));
#951=CARTESIAN_POINT('',(33.5,219.958023032252,14.8224461615134));
#952=CARTESIAN_POINT('Origin',(36.,215.002727241161,7.91628632968241));
#953=CARTESIAN_POINT('Origin',(33.5,224.014071024256,11.9121576607153));
#954=CARTESIAN_POINT('',(33.5,224.014071024256,11.9121576607153));
#955=CARTESIAN_POINT('',(33.5,229.871178518766,7.70957607814616));
#956=CARTESIAN_POINT('',(36.,224.014071024256,11.9121576607153));
#957=CARTESIAN_POINT('',(33.5,224.014071024256,11.9121576607153));
#958=CARTESIAN_POINT('',(36.,225.288614207096,10.9976496528951));
#959=CARTESIAN_POINT('Origin',(33.5,239.514071024256,11.9121576607153));
#960=CARTESIAN_POINT('',(33.5,239.514071024256,11.9121576607153));
#961=CARTESIAN_POINT('',(33.5,239.201571025082,11.9121576607153));
#962=CARTESIAN_POINT('',(36.,239.514071024256,11.9121576607153));
#963=CARTESIAN_POINT('',(33.5,239.514071024256,11.9121576607153));
#964=CARTESIAN_POINT('',(36.,232.261235078482,11.9121576607153));
#965=CARTESIAN_POINT('Origin',(33.5,239.514071024256,7.91215766071535));
#966=CARTESIAN_POINT('Origin',(33.5,239.514071024256,7.91215766071535));
#967=CARTESIAN_POINT('Origin',(36.,239.514071024256,7.91215766071535));
#968=CARTESIAN_POINT('Origin',(36.,225.008399132708,7.91628632968241));
#969=CARTESIAN_POINT('Origin',(39.25,215.002727241161,7.91628632968241));
#970=CARTESIAN_POINT('',(38.5,205.052727241161,7.91628632968241));
#971=CARTESIAN_POINT('Origin',(38.5,215.002727241161,7.91628632968241));
#972=CARTESIAN_POINT('',(40.,210.052727241161,7.91628632968241));
#973=CARTESIAN_POINT('',(39.25,207.552727241161,7.91628632968241));
#974=CARTESIAN_POINT('Origin',(40.,215.002727241161,7.91628632968241));
#975=CARTESIAN_POINT('Origin',(38.5,238.889071025907,7.91215766071535));
#976=CARTESIAN_POINT('',(38.5,292.099995613098,0.031721842673349));
#977=CARTESIAN_POINT('',(38.5,292.099995613098,32.8128148009057));
#978=CARTESIAN_POINT('',(38.5,292.099995613098,8.46549249479787));
#979=CARTESIAN_POINT('',(38.5,214.947902375286,32.9162262142914));
#980=CARTESIAN_POINT('Origin',(38.5,253.083503163328,-295.738645202066));
#981=CARTESIAN_POINT('',(38.5,225.223278678504,-14.8990665783187));
#982=CARTESIAN_POINT('Origin',(38.5,215.002727241161,7.91628632968241));
#983=CARTESIAN_POINT('Origin',(38.5,386.738058997318,-581.102682245232));
#984=CARTESIAN_POINT('Origin',(38.5,215.002727241161,7.91628632968241));
#985=CARTESIAN_POINT('',(48.5,210.052727241161,7.91628632968241));
#986=CARTESIAN_POINT('Origin',(48.5,215.002727241161,7.91628632968241));
#987=CARTESIAN_POINT('',(38.5,210.052727241161,7.91628632968241));
#988=CARTESIAN_POINT('Origin',(7.5,292.099995613098,9.01882732888038));
#989=CARTESIAN_POINT('',(33.5,292.099995613098,0.0484154267911663));
#990=CARTESIAN_POINT('',(33.5,292.099995613098,0.031721842673349));
#991=CARTESIAN_POINT('',(33.5,292.099995613098,8.46549249479787));
#992=CARTESIAN_POINT('',(-26.5,292.099995613098,0.0484154267911663));
#993=CARTESIAN_POINT('',(-26.5,292.099995613098,0.0484154267911663));
#994=CARTESIAN_POINT('',(-26.5,292.099995613098,0.031721842673349));
#995=CARTESIAN_POINT('',(-26.5,292.099995613098,8.46549249479787));
#996=CARTESIAN_POINT('',(-31.5,292.099995613098,0.031721842673349));
#997=CARTESIAN_POINT('',(-26.5,292.099995613098,0.0317218426736332));
#998=CARTESIAN_POINT('',(-31.5,292.099995613098,32.8128148009057));
#999=CARTESIAN_POINT('',(-31.5,292.099995613098,8.46549249479787));
#1000=CARTESIAN_POINT('',(-26.5,292.099995613098,32.8128148009057));
#1001=CARTESIAN_POINT('',(-26.5,292.099995613098,32.8128148009054));
#1002=CARTESIAN_POINT('',(-26.5,292.099995613098,32.8076977561048));
#1003=CARTESIAN_POINT('',(-26.5,292.099995613098,8.46549249479787));
#1004=CARTESIAN_POINT('',(33.5,292.099995613098,32.8076977561048));
#1005=CARTESIAN_POINT('',(-26.5,292.099995613098,32.8076977561048));
#1006=CARTESIAN_POINT('',(33.5,292.099995613098,32.8128148009057));
#1007=CARTESIAN_POINT('',(33.5,292.099995613098,8.46549249479787));
#1008=CARTESIAN_POINT('',(-26.5,292.099995613098,32.8128148009054));
#1009=CARTESIAN_POINT('',(-26.5,292.099995613098,0.0317218426736332));
#1010=CARTESIAN_POINT('Origin',(-26.5,238.889071025907,7.91215766071535));
#1011=CARTESIAN_POINT('',(-26.5,214.947902375286,32.9162262142914));
#1012=CARTESIAN_POINT('Origin',(-26.5,253.083503163328,-295.738645202066));
#1013=CARTESIAN_POINT('',(-26.5,225.223278678504,-14.8990665783187));
#1014=CARTESIAN_POINT('Origin',(-26.5,215.002727241161,7.91628632968241));
#1015=CARTESIAN_POINT('',(-26.5,254.846777789373,-7.2749654198354));
#1016=CARTESIAN_POINT('Origin',(-26.5,386.738058997318,-581.102682245232));
#1017=CARTESIAN_POINT('',(-26.5,243.323904472004,34.9652121031614));
#1018=CARTESIAN_POINT('Origin',(-26.5,196.958046296517,-0.374897737184803));
#1019=CARTESIAN_POINT('Origin',(-26.5,253.137506005666,-295.605866474259));
#1020=CARTESIAN_POINT('',(-26.5,223.552727241161,7.91628632968241));
#1021=CARTESIAN_POINT('Origin',(-26.5,215.002727241161,7.91628632968241));
#1022=CARTESIAN_POINT('Origin',(-26.5,253.083503163327,-295.738645202065));
#1023=CARTESIAN_POINT('',(-31.5,214.947902375286,32.9162262142914));
#1024=CARTESIAN_POINT('Origin',(-31.5,253.083503163328,-295.738645202066));
#1025=CARTESIAN_POINT('',(-26.5,214.947902375286,32.9162262142914));
#1026=CARTESIAN_POINT('Origin',(-31.5,238.889071025907,7.91215766071535));
#1027=CARTESIAN_POINT('',(-31.5,225.223278678504,-14.8990665783187));
#1028=CARTESIAN_POINT('Origin',(-31.5,386.738058997318,-581.102682245232));
#1029=CARTESIAN_POINT('Origin',(-31.5,215.002727241161,7.91628632968241));
#1030=CARTESIAN_POINT('',(-31.5,230.002727241161,7.91628632968241));
#1031=CARTESIAN_POINT('Origin',(-31.5,215.002727241161,7.91628632968241));
#1032=CARTESIAN_POINT('Origin',(-26.5,238.889071025907,7.91215766071535));
#1033=CARTESIAN_POINT('',(-26.5,269.32715408429,-4.13800562868589));
#1034=CARTESIAN_POINT('Origin',(-26.5,386.204663899105,-575.883838477482));
#1035=CARTESIAN_POINT('Origin',(-26.5,386.738058997318,-581.102682245232));
#1036=CARTESIAN_POINT('Origin',(-26.5,386.738058997317,-581.10268224523));
#1037=CARTESIAN_POINT('',(33.5,269.32715408429,-4.13800562868589));
#1038=CARTESIAN_POINT('',(-26.5,269.32715408429,-4.13800562868589));
#1039=CARTESIAN_POINT('Origin',(33.5,386.738058997318,-581.102682245232));
#1040=CARTESIAN_POINT('',(33.5,225.223278678504,-14.8990665783187));
#1041=CARTESIAN_POINT('',(38.5,225.223278678504,-14.8990665783187));
#1042=CARTESIAN_POINT('',(33.5,254.846777789373,-7.2749654198354));
#1043=CARTESIAN_POINT('Origin',(33.5,386.738058997318,-581.102682245232));
#1044=CARTESIAN_POINT('',(-26.5,254.846777789373,-7.2749654198354));
#1045=CARTESIAN_POINT('',(-26.5,225.223278678504,-14.8990665783187));
#1046=CARTESIAN_POINT('Origin',(-26.5,386.204663899105,-575.883838477482));
#1047=CARTESIAN_POINT('Origin',(33.5,386.204663899105,-575.883838477482));
#1048=CARTESIAN_POINT('Origin',(-26.5,253.137506005666,-295.605866474259));
#1049=CARTESIAN_POINT('',(33.5,243.323904472004,34.9652121031614));
#1050=CARTESIAN_POINT('',(-26.5,243.323904472004,34.9652121031614));
#1051=CARTESIAN_POINT('Origin',(33.5,253.137506005666,-295.605866474259));
#1052=CARTESIAN_POINT('Origin',(33.5,238.889071025907,7.91215766071535));
#1053=CARTESIAN_POINT('Origin',(33.5,196.958046296517,-0.374897737184803));
#1054=CARTESIAN_POINT('',(33.5,214.947902375286,32.9162262142914));
#1055=CARTESIAN_POINT('Origin',(33.5,215.002727241161,7.91628632968241));
#1056=CARTESIAN_POINT('Origin',(33.5,253.083503163328,-295.738645202066));
#1057=CARTESIAN_POINT('Origin',(-26.5,253.083503163327,-295.738645202065));
#1058=CARTESIAN_POINT('',(38.5,214.947902375286,32.9162262142914));
#1059=CARTESIAN_POINT('Origin',(-26.,215.002727241161,7.91628632968241));
#1060=CARTESIAN_POINT('',(-25.5,222.552727241161,7.91628632968241));
#1061=CARTESIAN_POINT('',(-26.,223.052727241161,7.91628632968241));
#1062=CARTESIAN_POINT('Origin',(-25.5,215.002727241161,7.91628632968241));
#1063=CARTESIAN_POINT('Origin',(-25.5,215.002727241161,7.91628632968241));
#1064=CARTESIAN_POINT('',(-25.5,220.502727241161,7.91628632968241));
#1065=CARTESIAN_POINT('Origin',(-25.5,215.002727241161,7.91628632968241));
#1066=CARTESIAN_POINT('Origin',(-32.5,215.002727241161,7.91628632968241));
#1067=CARTESIAN_POINT('',(-33.5,228.002727241161,7.91628632968241));
#1068=CARTESIAN_POINT('Origin',(-33.5,215.002727241161,7.91628632968241));
#1069=CARTESIAN_POINT('',(-32.5,229.002727241161,7.91628632968241));
#1070=CARTESIAN_POINT('Origin',(-33.5,215.002727241161,7.91628632968241));
#1071=CARTESIAN_POINT('',(-33.5,223.552727241161,7.91628632968241));
#1072=CARTESIAN_POINT('Origin',(-33.5,215.002727241161,7.91628632968241));
#1073=CARTESIAN_POINT('Origin',(-33.,215.002727241161,7.91628632968241));
#1074=CARTESIAN_POINT('',(-32.5,222.552727241161,7.91628632968241));
#1075=CARTESIAN_POINT('',(-33.,223.052727241161,7.91628632968241));
#1076=CARTESIAN_POINT('Origin',(-32.5,215.002727241161,7.91628632968241));
#1077=CARTESIAN_POINT('Origin',(-31.5,215.002727241161,7.91628632968241));
#1078=CARTESIAN_POINT('',(-28.5,222.552727241161,7.91628632968241));
#1079=CARTESIAN_POINT('',(-31.5,222.552727241161,7.91628632968241));
#1080=CARTESIAN_POINT('Origin',(-28.5,215.002727241161,7.91628632968241));
#1081=CARTESIAN_POINT('Origin',(-28.5,215.002727241161,7.91628632968241));
#1082=CARTESIAN_POINT('',(-28.5,220.502727241161,7.91628632968241));
#1083=CARTESIAN_POINT('Origin',(-28.5,215.002727241161,7.91628632968241));
#1084=CARTESIAN_POINT('Origin',(-31.5,215.002727241161,7.91628632968241));
#1085=CARTESIAN_POINT('',(-31.5,220.502727241161,7.91628632968241));
#1086=CARTESIAN_POINT('Origin',(48.5,215.002727241161,7.91628632968241));
#1087=CARTESIAN_POINT('Origin',(33.5,238.889071025907,7.91215766071535));
#1088=CARTESIAN_POINT('Origin',(38.5,215.002727241161,7.91628632968241));
#1089=CARTESIAN_POINT('Origin',(-26.5,215.002727241161,7.91628632968241));
#1090=CARTESIAN_POINT('Origin',(-26.5,196.958046296517,-0.374897737184803));
#1091=UNCERTAINTY_MEASURE_WITH_UNIT(LENGTH_MEASURE(0.01),#1095,
'DISTANCE_ACCURACY_VALUE',
'Maximum model space distance between geometric entities at asserted c
onnectivities');
#1092=UNCERTAINTY_MEASURE_WITH_UNIT(LENGTH_MEASURE(0.01),#1095,
'DISTANCE_ACCURACY_VALUE',
'Maximum model space distance between geometric entities at asserted c
onnectivities');
#1093=(
GEOMETRIC_REPRESENTATION_CONTEXT(3)
GLOBAL_UNCERTAINTY_ASSIGNED_CONTEXT((#1091))
GLOBAL_UNIT_ASSIGNED_CONTEXT((#1095,#1097,#1098))
REPRESENTATION_CONTEXT('','3D')
);
#1094=(
GEOMETRIC_REPRESENTATION_CONTEXT(3)
GLOBAL_UNCERTAINTY_ASSIGNED_CONTEXT((#1092))
GLOBAL_UNIT_ASSIGNED_CONTEXT((#1095,#1097,#1098))
REPRESENTATION_CONTEXT('','3D')
);
#1095=(
LENGTH_UNIT()
NAMED_UNIT(*)
SI_UNIT(.MILLI.,.METRE.)
);
#1096=(
LENGTH_UNIT()
NAMED_UNIT(*)
SI_UNIT($,.METRE.)
);
#1097=(
NAMED_UNIT(*)
PLANE_ANGLE_UNIT()
SI_UNIT($,.RADIAN.)
);
#1098=(
NAMED_UNIT(*)
SI_UNIT($,.STERADIAN.)
SOLID_ANGLE_UNIT()
);
#1099=SHAPE_DEFINITION_REPRESENTATION(#1100,#1101);
#1100=PRODUCT_DEFINITION_SHAPE('',$,#1103);
#1101=SHAPE_REPRESENTATION('',(#633),#1093);
#1102=PRODUCT_DEFINITION_CONTEXT('part definition',#1107,'design');
#1103=PRODUCT_DEFINITION('left_claw_top','left_claw_top',#1104,#1102);
#1104=PRODUCT_DEFINITION_FORMATION('',$,#1109);
#1105=PRODUCT_RELATED_PRODUCT_CATEGORY('left_claw_top','left_claw_top',
(#1109));
#1106=APPLICATION_PROTOCOL_DEFINITION('international standard',
'automotive_design',2009,#1107);
#1107=APPLICATION_CONTEXT(
'Core Data for Automotive Mechanical Design Process');
#1108=PRODUCT_CONTEXT('part definition',#1107,'mechanical');
#1109=PRODUCT('left_claw_top','left_claw_top',$,(#1108));
#1110=PRESENTATION_STYLE_ASSIGNMENT((#1112));
#1111=PRESENTATION_STYLE_ASSIGNMENT((#1113));
#1112=SURFACE_STYLE_USAGE(.BOTH.,#1114);
#1113=SURFACE_STYLE_USAGE(.BOTH.,#1115);
#1114=SURFACE_SIDE_STYLE('',(#1116));
#1115=SURFACE_SIDE_STYLE('',(#1117));
#1116=SURFACE_STYLE_FILL_AREA(#1118);
#1117=SURFACE_STYLE_FILL_AREA(#1119);
#1118=FILL_AREA_STYLE('Steel - Satin',(#1120));
#1119=FILL_AREA_STYLE('Nylon 12 (with Formlabs Fuse 1 3D Printer)',(#1121));
#1120=FILL_AREA_STYLE_COLOUR('Steel - Satin',#1122);
#1121=FILL_AREA_STYLE_COLOUR(
'Nylon 12 (with Formlabs Fuse 1 3D Printer)',#1123);
#1122=COLOUR_RGB('Steel - Satin',0.627450980392157,0.627450980392157,0.627450980392157);
#1123=COLOUR_RGB('Nylon 12 (with Formlabs Fuse 1 3D Printer)',0.247058823529412,
0.247058823529412,0.247058823529412);
ENDSEC;
END-ISO-10303-21;
