ISO-10303-21;
HEADER;
/* Generated by software containing ST-Developer
 * from STEP Tools, Inc. (www.steptools.com) 
 */

FILE_DESCRIPTION(
/* description */ (''),
/* implementation_level */ '2;1');

FILE_NAME(
/* name */ 'left_upper_top.step',
/* time_stamp */ '2026-06-13T15:31:54-06:00',
/* author */ (''),
/* organization */ (''),
/* preprocessor_version */ 'ST-DEVELOPER v20.1',
/* originating_system */ 'Autodesk Translation Framework v15.8.0.0',
/* authorisation */ '');

FILE_SCHEMA (('AUTOMOTIVE_DESIGN { 1 0 10303 214 3 1 1 }'));
ENDSEC;

DATA;
#10=MECHANICAL_DESIGN_GEOMETRIC_PRESENTATION_REPRESENTATION('',(#13),#1135);
#11=SHAPE_REPRESENTATION_RELATIONSHIP('SRR','None',#1142,#12);
#12=ADVANCED_BREP_SHAPE_REPRESENTATION('',(#14),#1134);
#13=STYLED_ITEM('',(#1152),#14);
#14=MANIFOLD_SOLID_BREP('Body1',#645);
#15=CONICAL_SURFACE('',#715,1.875,0.785398163397448);
#16=CONICAL_SURFACE('',#717,1.875,0.785398163397448);
#17=CONICAL_SURFACE('',#719,1.875,0.785398163397448);
#18=CONICAL_SURFACE('',#724,5.45,0.785398163397449);
#19=TOROIDAL_SURFACE('',#701,7.49999592134804,2.5);
#20=TOROIDAL_SURFACE('',#706,7.5,2.5);
#21=TOROIDAL_SURFACE('',#711,22.5,2.5);
#22=FACE_BOUND('',#88,.T.);
#23=FACE_BOUND('',#89,.T.);
#24=FACE_BOUND('',#90,.T.);
#25=FACE_BOUND('',#91,.T.);
#26=FACE_BOUND('',#102,.T.);
#27=FACE_BOUND('',#103,.T.);
#28=FACE_BOUND('',#104,.T.);
#29=ELLIPSE('',#666,2.50000701339158,2.5);
#30=ELLIPSE('',#677,2.50000260562613,2.5);
#31=ELLIPSE('',#686,2.50000701339158,2.5);
#32=PLANE('',#665);
#33=PLANE('',#667);
#34=PLANE('',#678);
#35=PLANE('',#679);
#36=PLANE('',#682);
#37=PLANE('',#683);
#38=PLANE('',#684);
#39=PLANE('',#685);
#40=PLANE('',#687);
#41=PLANE('',#688);
#42=PLANE('',#695);
#43=PLANE('',#696);
#44=PLANE('',#728);
#45=PLANE('',#729);
#46=PLANE('',#731);
#47=FACE_OUTER_BOUND('',#84,.T.);
#48=FACE_OUTER_BOUND('',#85,.T.);
#49=FACE_OUTER_BOUND('',#86,.T.);
#50=FACE_OUTER_BOUND('',#87,.T.);
#51=FACE_OUTER_BOUND('',#92,.T.);
#52=FACE_OUTER_BOUND('',#93,.T.);
#53=FACE_OUTER_BOUND('',#94,.T.);
#54=FACE_OUTER_BOUND('',#95,.T.);
#55=FACE_OUTER_BOUND('',#96,.T.);
#56=FACE_OUTER_BOUND('',#97,.T.);
#57=FACE_OUTER_BOUND('',#98,.T.);
#58=FACE_OUTER_BOUND('',#99,.T.);
#59=FACE_OUTER_BOUND('',#100,.T.);
#60=FACE_OUTER_BOUND('',#101,.T.);
#61=FACE_OUTER_BOUND('',#105,.T.);
#62=FACE_OUTER_BOUND('',#106,.T.);
#63=FACE_OUTER_BOUND('',#107,.T.);
#64=FACE_OUTER_BOUND('',#108,.T.);
#65=FACE_OUTER_BOUND('',#109,.T.);
#66=FACE_OUTER_BOUND('',#110,.T.);
#67=FACE_OUTER_BOUND('',#111,.T.);
#68=FACE_OUTER_BOUND('',#112,.T.);
#69=FACE_OUTER_BOUND('',#113,.T.);
#70=FACE_OUTER_BOUND('',#114,.T.);
#71=FACE_OUTER_BOUND('',#115,.T.);
#72=FACE_OUTER_BOUND('',#116,.T.);
#73=FACE_OUTER_BOUND('',#117,.T.);
#74=FACE_OUTER_BOUND('',#118,.T.);
#75=FACE_OUTER_BOUND('',#119,.T.);
#76=FACE_OUTER_BOUND('',#120,.T.);
#77=FACE_OUTER_BOUND('',#121,.T.);
#78=FACE_OUTER_BOUND('',#122,.T.);
#79=FACE_OUTER_BOUND('',#123,.T.);
#80=FACE_OUTER_BOUND('',#124,.T.);
#81=FACE_OUTER_BOUND('',#125,.T.);
#82=FACE_OUTER_BOUND('',#126,.T.);
#83=FACE_OUTER_BOUND('',#127,.T.);
#84=EDGE_LOOP('',(#413,#414,#415,#416,#417));
#85=EDGE_LOOP('',(#418,#419,#420,#421,#422));
#86=EDGE_LOOP('',(#423,#424,#425,#426));
#87=EDGE_LOOP('',(#427,#428,#429,#430,#431,#432,#433,#434,#435,#436,#437,
#438));
#88=EDGE_LOOP('',(#439));
#89=EDGE_LOOP('',(#440));
#90=EDGE_LOOP('',(#441));
#91=EDGE_LOOP('',(#442));
#92=EDGE_LOOP('',(#443,#444,#445,#446));
#93=EDGE_LOOP('',(#447,#448,#449,#450,#451));
#94=EDGE_LOOP('',(#452,#453,#454,#455,#456,#457));
#95=EDGE_LOOP('',(#458,#459,#460,#461));
#96=EDGE_LOOP('',(#462,#463,#464,#465,#466));
#97=EDGE_LOOP('',(#467,#468,#469,#470));
#98=EDGE_LOOP('',(#471,#472,#473,#474));
#99=EDGE_LOOP('',(#475,#476,#477,#478,#479,#480));
#100=EDGE_LOOP('',(#481,#482,#483,#484));
#101=EDGE_LOOP('',(#485,#486,#487,#488,#489,#490,#491,#492,#493,#494,#495,
#496,#497,#498,#499));
#102=EDGE_LOOP('',(#500));
#103=EDGE_LOOP('',(#501));
#104=EDGE_LOOP('',(#502));
#105=EDGE_LOOP('',(#503,#504,#505,#506));
#106=EDGE_LOOP('',(#507,#508,#509,#510));
#107=EDGE_LOOP('',(#511,#512,#513,#514,#515));
#108=EDGE_LOOP('',(#516,#517,#518,#519));
#109=EDGE_LOOP('',(#520,#521,#522,#523));
#110=EDGE_LOOP('',(#524,#525,#526,#527));
#111=EDGE_LOOP('',(#528,#529,#530,#531));
#112=EDGE_LOOP('',(#532,#533,#534,#535));
#113=EDGE_LOOP('',(#536,#537,#538,#539));
#114=EDGE_LOOP('',(#540,#541,#542,#543));
#115=EDGE_LOOP('',(#544,#545,#546,#547));
#116=EDGE_LOOP('',(#548,#549,#550,#551));
#117=EDGE_LOOP('',(#552,#553,#554,#555));
#118=EDGE_LOOP('',(#556,#557,#558,#559));
#119=EDGE_LOOP('',(#560,#561,#562,#563));
#120=EDGE_LOOP('',(#564,#565,#566,#567));
#121=EDGE_LOOP('',(#568,#569,#570,#571));
#122=EDGE_LOOP('',(#572,#573,#574,#575));
#123=EDGE_LOOP('',(#576,#577,#578,#579));
#124=EDGE_LOOP('',(#580));
#125=EDGE_LOOP('',(#581,#582,#583,#584));
#126=EDGE_LOOP('',(#585,#586,#587,#588));
#127=EDGE_LOOP('',(#589,#590,#591,#592));
#128=B_SPLINE_CURVE_WITH_KNOTS('',3,(#943,#944,#945,#946,#947,#948,#949,
#950,#951,#952),.UNSPECIFIED.,.F.,.F.,(4,2,2,2,4),(0.947730525386864,1.04206201992174,
1.13639351445661,1.23625356274341,1.3361136110302),.UNSPECIFIED.);
#129=B_SPLINE_CURVE_WITH_KNOTS('',3,(#956,#957,#958,#959,#960,#961,#962,
#963),.UNSPECIFIED.,.F.,.F.,(4,2,2,4),(1.37686187647809,1.47523283836611,
1.57360380025414,1.66166795242887),.UNSPECIFIED.);
#130=LINE('',#938,#182);
#131=LINE('',#942,#183);
#132=LINE('',#965,#184);
#133=LINE('',#969,#185);
#134=LINE('',#975,#186);
#135=LINE('',#976,#187);
#136=LINE('',#980,#188);
#137=LINE('',#982,#189);
#138=LINE('',#986,#190);
#139=LINE('',#990,#191);
#140=LINE('',#993,#192);
#141=LINE('',#994,#193);
#142=LINE('',#995,#194);
#143=LINE('',#1009,#195);
#144=LINE('',#1012,#196);
#145=LINE('',#1014,#197);
#146=LINE('',#1016,#198);
#147=LINE('',#1018,#199);
#148=LINE('',#1019,#200);
#149=LINE('',#1022,#201);
#150=LINE('',#1024,#202);
#151=LINE('',#1025,#203);
#152=LINE('',#1030,#204);
#153=LINE('',#1032,#205);
#154=LINE('',#1033,#206);
#155=LINE('',#1035,#207);
#156=LINE('',#1037,#208);
#157=LINE('',#1040,#209);
#158=LINE('',#1042,#210);
#159=LINE('',#1045,#211);
#160=LINE('',#1048,#212);
#161=LINE('',#1052,#213);
#162=LINE('',#1056,#214);
#163=LINE('',#1059,#215);
#164=LINE('',#1068,#216);
#165=LINE('',#1069,#217);
#166=LINE('',#1072,#218);
#167=LINE('',#1073,#219);
#168=LINE('',#1085,#220);
#169=LINE('',#1093,#221);
#170=LINE('',#1097,#222);
#171=LINE('',#1099,#223);
#172=LINE('',#1102,#224);
#173=LINE('',#1106,#225);
#174=LINE('',#1110,#226);
#175=LINE('',#1113,#227);
#176=LINE('',#1115,#228);
#177=LINE('',#1117,#229);
#178=LINE('',#1120,#230);
#179=LINE('',#1125,#231);
#180=LINE('',#1128,#232);
#181=LINE('',#1130,#233);
#182=VECTOR('',#738,10.);
#183=VECTOR('',#741,10.);
#184=VECTOR('',#744,10.);
#185=VECTOR('',#747,10.);
#186=VECTOR('',#754,10.);
#187=VECTOR('',#755,10.);
#188=VECTOR('',#758,10.);
#189=VECTOR('',#759,10.);
#190=VECTOR('',#762,10.);
#191=VECTOR('',#765,10.);
#192=VECTOR('',#768,10.);
#193=VECTOR('',#769,10.);
#194=VECTOR('',#770,10.);
#195=VECTOR('',#783,10.);
#196=VECTOR('',#786,10.);
#197=VECTOR('',#789,10.);
#198=VECTOR('',#790,10.);
#199=VECTOR('',#791,10.);
#200=VECTOR('',#792,10.);
#201=VECTOR('',#795,10.);
#202=VECTOR('',#796,10.);
#203=VECTOR('',#797,10.);
#204=VECTOR('',#804,10.);
#205=VECTOR('',#805,10.);
#206=VECTOR('',#806,10.);
#207=VECTOR('',#809,10.);
#208=VECTOR('',#812,10.);
#209=VECTOR('',#815,10.);
#210=VECTOR('',#816,10.);
#211=VECTOR('',#821,10.);
#212=VECTOR('',#824,10.);
#213=VECTOR('',#827,10.);
#214=VECTOR('',#830,10.);
#215=VECTOR('',#833,10.);
#216=VECTOR('',#842,10.);
#217=VECTOR('',#843,10.);
#218=VECTOR('',#846,10.);
#219=VECTOR('',#847,10.);
#220=VECTOR('',#866,10.);
#221=VECTOR('',#877,10.);
#222=VECTOR('',#884,10.);
#223=VECTOR('',#887,10.);
#224=VECTOR('',#890,1.875);
#225=VECTOR('',#895,1.875);
#226=VECTOR('',#900,1.875);
#227=VECTOR('',#905,1.25);
#228=VECTOR('',#908,1.25);
#229=VECTOR('',#911,1.25);
#230=VECTOR('',#914,5.45);
#231=VECTOR('',#921,4.95);
#232=VECTOR('',#926,10.);
#233=VECTOR('',#929,10.);
#234=CIRCLE('',#660,5.);
#235=CIRCLE('',#661,5.);
#236=CIRCLE('',#663,5.);
#237=CIRCLE('',#664,5.);
#238=CIRCLE('',#668,22.5);
#239=CIRCLE('',#669,7.5);
#240=CIRCLE('',#670,7.49999592134804);
#241=CIRCLE('',#671,2.49999999999999);
#242=CIRCLE('',#672,2.5);
#243=CIRCLE('',#673,5.95);
#244=CIRCLE('',#674,2.49999999999999);
#245=CIRCLE('',#676,2.5);
#246=CIRCLE('',#681,2.5);
#247=CIRCLE('',#689,9.99999592134804);
#248=CIRCLE('',#690,10.);
#249=CIRCLE('',#691,25.);
#250=CIRCLE('',#692,1.25);
#251=CIRCLE('',#693,1.25);
#252=CIRCLE('',#694,1.25);
#253=CIRCLE('',#698,2.5);
#254=CIRCLE('',#700,2.5);
#255=CIRCLE('',#702,2.5);
#256=CIRCLE('',#703,9.99999592134804);
#257=CIRCLE('',#705,2.5);
#258=CIRCLE('',#707,2.5);
#259=CIRCLE('',#708,10.);
#260=CIRCLE('',#710,2.5);
#261=CIRCLE('',#712,25.);
#262=CIRCLE('',#716,1.25);
#263=CIRCLE('',#718,1.25);
#264=CIRCLE('',#720,1.25);
#265=CIRCLE('',#725,4.95);
#266=CIRCLE('',#727,4.95);
#267=VERTEX_POINT('',#934);
#268=VERTEX_POINT('',#935);
#269=VERTEX_POINT('',#937);
#270=VERTEX_POINT('',#939);
#271=VERTEX_POINT('',#941);
#272=VERTEX_POINT('',#954);
#273=VERTEX_POINT('',#955);
#274=VERTEX_POINT('',#964);
#275=VERTEX_POINT('',#966);
#276=VERTEX_POINT('',#968);
#277=VERTEX_POINT('',#972);
#278=VERTEX_POINT('',#974);
#279=VERTEX_POINT('',#978);
#280=VERTEX_POINT('',#979);
#281=VERTEX_POINT('',#981);
#282=VERTEX_POINT('',#983);
#283=VERTEX_POINT('',#985);
#284=VERTEX_POINT('',#987);
#285=VERTEX_POINT('',#989);
#286=VERTEX_POINT('',#991);
#287=VERTEX_POINT('',#996);
#288=VERTEX_POINT('',#998);
#289=VERTEX_POINT('',#1000);
#290=VERTEX_POINT('',#1002);
#291=VERTEX_POINT('',#1005);
#292=VERTEX_POINT('',#1006);
#293=VERTEX_POINT('',#1008);
#294=VERTEX_POINT('',#1010);
#295=VERTEX_POINT('',#1015);
#296=VERTEX_POINT('',#1017);
#297=VERTEX_POINT('',#1021);
#298=VERTEX_POINT('',#1023);
#299=VERTEX_POINT('',#1029);
#300=VERTEX_POINT('',#1031);
#301=VERTEX_POINT('',#1039);
#302=VERTEX_POINT('',#1041);
#303=VERTEX_POINT('',#1047);
#304=VERTEX_POINT('',#1049);
#305=VERTEX_POINT('',#1051);
#306=VERTEX_POINT('',#1053);
#307=VERTEX_POINT('',#1055);
#308=VERTEX_POINT('',#1057);
#309=VERTEX_POINT('',#1060);
#310=VERTEX_POINT('',#1062);
#311=VERTEX_POINT('',#1064);
#312=VERTEX_POINT('',#1067);
#313=VERTEX_POINT('',#1071);
#314=VERTEX_POINT('',#1079);
#315=VERTEX_POINT('',#1083);
#316=VERTEX_POINT('',#1087);
#317=VERTEX_POINT('',#1091);
#318=VERTEX_POINT('',#1101);
#319=VERTEX_POINT('',#1105);
#320=VERTEX_POINT('',#1109);
#321=VERTEX_POINT('',#1119);
#322=VERTEX_POINT('',#1123);
#323=EDGE_CURVE('',#267,#268,#234,.F.);
#324=EDGE_CURVE('',#267,#269,#130,.T.);
#325=EDGE_CURVE('',#270,#269,#235,.F.);
#326=EDGE_CURVE('',#271,#270,#131,.T.);
#327=EDGE_CURVE('',#268,#271,#128,.F.);
#328=EDGE_CURVE('',#272,#273,#129,.F.);
#329=EDGE_CURVE('',#272,#274,#132,.T.);
#330=EDGE_CURVE('',#274,#275,#236,.T.);
#331=EDGE_CURVE('',#275,#276,#133,.T.);
#332=EDGE_CURVE('',#276,#273,#237,.T.);
#333=EDGE_CURVE('',#277,#272,#29,.T.);
#334=EDGE_CURVE('',#278,#277,#134,.T.);
#335=EDGE_CURVE('',#274,#278,#135,.T.);
#336=EDGE_CURVE('',#279,#280,#136,.T.);
#337=EDGE_CURVE('',#281,#279,#137,.T.);
#338=EDGE_CURVE('',#282,#281,#238,.T.);
#339=EDGE_CURVE('',#283,#282,#138,.T.);
#340=EDGE_CURVE('',#284,#283,#239,.T.);
#341=EDGE_CURVE('',#285,#284,#139,.T.);
#342=EDGE_CURVE('',#286,#285,#240,.T.);
#343=EDGE_CURVE('',#273,#286,#140,.T.);
#344=EDGE_CURVE('',#276,#267,#141,.T.);
#345=EDGE_CURVE('',#268,#280,#142,.F.);
#346=EDGE_CURVE('',#287,#287,#241,.T.);
#347=EDGE_CURVE('',#288,#288,#242,.T.);
#348=EDGE_CURVE('',#289,#289,#243,.T.);
#349=EDGE_CURVE('',#290,#290,#244,.T.);
#350=EDGE_CURVE('',#291,#292,#245,.T.);
#351=EDGE_CURVE('',#292,#293,#143,.T.);
#352=EDGE_CURVE('',#293,#294,#30,.T.);
#353=EDGE_CURVE('',#294,#291,#144,.T.);
#354=EDGE_CURVE('',#270,#293,#145,.T.);
#355=EDGE_CURVE('',#295,#270,#146,.T.);
#356=EDGE_CURVE('',#295,#296,#147,.T.);
#357=EDGE_CURVE('',#296,#294,#148,.T.);
#358=EDGE_CURVE('',#292,#297,#149,.T.);
#359=EDGE_CURVE('',#298,#297,#150,.T.);
#360=EDGE_CURVE('',#271,#298,#151,.T.);
#361=EDGE_CURVE('',#280,#298,#246,.T.);
#362=EDGE_CURVE('',#299,#291,#152,.T.);
#363=EDGE_CURVE('',#300,#299,#153,.T.);
#364=EDGE_CURVE('',#297,#300,#154,.T.);
#365=EDGE_CURVE('',#299,#296,#155,.T.);
#366=EDGE_CURVE('',#300,#295,#156,.T.);
#367=EDGE_CURVE('',#301,#297,#157,.T.);
#368=EDGE_CURVE('',#302,#301,#158,.T.);
#369=EDGE_CURVE('',#279,#302,#31,.T.);
#370=EDGE_CURVE('',#269,#275,#159,.T.);
#371=EDGE_CURVE('',#278,#303,#160,.T.);
#372=EDGE_CURVE('',#303,#304,#247,.T.);
#373=EDGE_CURVE('',#304,#305,#161,.T.);
#374=EDGE_CURVE('',#305,#306,#248,.T.);
#375=EDGE_CURVE('',#306,#307,#162,.T.);
#376=EDGE_CURVE('',#307,#308,#249,.T.);
#377=EDGE_CURVE('',#308,#301,#163,.T.);
#378=EDGE_CURVE('',#309,#309,#250,.T.);
#379=EDGE_CURVE('',#310,#310,#251,.T.);
#380=EDGE_CURVE('',#311,#311,#252,.T.);
#381=EDGE_CURVE('',#312,#277,#164,.T.);
#382=EDGE_CURVE('',#312,#303,#165,.T.);
#383=EDGE_CURVE('',#313,#308,#166,.T.);
#384=EDGE_CURVE('',#302,#313,#167,.T.);
#385=EDGE_CURVE('',#312,#286,#253,.T.);
#386=EDGE_CURVE('',#281,#313,#254,.T.);
#387=EDGE_CURVE('',#285,#314,#255,.T.);
#388=EDGE_CURVE('',#314,#312,#256,.T.);
#389=EDGE_CURVE('',#284,#315,#257,.T.);
#390=EDGE_CURVE('',#315,#314,#168,.T.);
#391=EDGE_CURVE('',#283,#316,#258,.T.);
#392=EDGE_CURVE('',#316,#315,#259,.T.);
#393=EDGE_CURVE('',#282,#317,#260,.T.);
#394=EDGE_CURVE('',#317,#316,#169,.T.);
#395=EDGE_CURVE('',#313,#317,#261,.T.);
#396=EDGE_CURVE('',#317,#307,#170,.T.);
#397=EDGE_CURVE('',#314,#304,#171,.T.);
#398=EDGE_CURVE('',#287,#318,#172,.T.);
#399=EDGE_CURVE('',#318,#318,#262,.T.);
#400=EDGE_CURVE('',#290,#319,#173,.T.);
#401=EDGE_CURVE('',#319,#319,#263,.T.);
#402=EDGE_CURVE('',#288,#320,#174,.T.);
#403=EDGE_CURVE('',#320,#320,#264,.T.);
#404=EDGE_CURVE('',#319,#311,#175,.T.);
#405=EDGE_CURVE('',#318,#310,#176,.T.);
#406=EDGE_CURVE('',#320,#309,#177,.T.);
#407=EDGE_CURVE('',#289,#321,#178,.T.);
#408=EDGE_CURVE('',#321,#321,#265,.T.);
#409=EDGE_CURVE('',#322,#322,#266,.T.);
#410=EDGE_CURVE('',#322,#321,#179,.T.);
#411=EDGE_CURVE('',#316,#306,#180,.T.);
#412=EDGE_CURVE('',#315,#305,#181,.T.);
#413=ORIENTED_EDGE('',*,*,#323,.F.);
#414=ORIENTED_EDGE('',*,*,#324,.T.);
#415=ORIENTED_EDGE('',*,*,#325,.F.);
#416=ORIENTED_EDGE('',*,*,#326,.F.);
#417=ORIENTED_EDGE('',*,*,#327,.F.);
#418=ORIENTED_EDGE('',*,*,#328,.F.);
#419=ORIENTED_EDGE('',*,*,#329,.T.);
#420=ORIENTED_EDGE('',*,*,#330,.T.);
#421=ORIENTED_EDGE('',*,*,#331,.T.);
#422=ORIENTED_EDGE('',*,*,#332,.T.);
#423=ORIENTED_EDGE('',*,*,#329,.F.);
#424=ORIENTED_EDGE('',*,*,#333,.F.);
#425=ORIENTED_EDGE('',*,*,#334,.F.);
#426=ORIENTED_EDGE('',*,*,#335,.F.);
#427=ORIENTED_EDGE('',*,*,#336,.F.);
#428=ORIENTED_EDGE('',*,*,#337,.F.);
#429=ORIENTED_EDGE('',*,*,#338,.F.);
#430=ORIENTED_EDGE('',*,*,#339,.F.);
#431=ORIENTED_EDGE('',*,*,#340,.F.);
#432=ORIENTED_EDGE('',*,*,#341,.F.);
#433=ORIENTED_EDGE('',*,*,#342,.F.);
#434=ORIENTED_EDGE('',*,*,#343,.F.);
#435=ORIENTED_EDGE('',*,*,#332,.F.);
#436=ORIENTED_EDGE('',*,*,#344,.T.);
#437=ORIENTED_EDGE('',*,*,#323,.T.);
#438=ORIENTED_EDGE('',*,*,#345,.T.);
#439=ORIENTED_EDGE('',*,*,#346,.T.);
#440=ORIENTED_EDGE('',*,*,#347,.T.);
#441=ORIENTED_EDGE('',*,*,#348,.F.);
#442=ORIENTED_EDGE('',*,*,#349,.T.);
#443=ORIENTED_EDGE('',*,*,#350,.T.);
#444=ORIENTED_EDGE('',*,*,#351,.T.);
#445=ORIENTED_EDGE('',*,*,#352,.T.);
#446=ORIENTED_EDGE('',*,*,#353,.T.);
#447=ORIENTED_EDGE('',*,*,#352,.F.);
#448=ORIENTED_EDGE('',*,*,#354,.F.);
#449=ORIENTED_EDGE('',*,*,#355,.F.);
#450=ORIENTED_EDGE('',*,*,#356,.T.);
#451=ORIENTED_EDGE('',*,*,#357,.T.);
#452=ORIENTED_EDGE('',*,*,#351,.F.);
#453=ORIENTED_EDGE('',*,*,#358,.T.);
#454=ORIENTED_EDGE('',*,*,#359,.F.);
#455=ORIENTED_EDGE('',*,*,#360,.F.);
#456=ORIENTED_EDGE('',*,*,#326,.T.);
#457=ORIENTED_EDGE('',*,*,#354,.T.);
#458=ORIENTED_EDGE('',*,*,#361,.F.);
#459=ORIENTED_EDGE('',*,*,#345,.F.);
#460=ORIENTED_EDGE('',*,*,#327,.T.);
#461=ORIENTED_EDGE('',*,*,#360,.T.);
#462=ORIENTED_EDGE('',*,*,#350,.F.);
#463=ORIENTED_EDGE('',*,*,#362,.F.);
#464=ORIENTED_EDGE('',*,*,#363,.F.);
#465=ORIENTED_EDGE('',*,*,#364,.F.);
#466=ORIENTED_EDGE('',*,*,#358,.F.);
#467=ORIENTED_EDGE('',*,*,#353,.F.);
#468=ORIENTED_EDGE('',*,*,#357,.F.);
#469=ORIENTED_EDGE('',*,*,#365,.F.);
#470=ORIENTED_EDGE('',*,*,#362,.T.);
#471=ORIENTED_EDGE('',*,*,#366,.F.);
#472=ORIENTED_EDGE('',*,*,#363,.T.);
#473=ORIENTED_EDGE('',*,*,#365,.T.);
#474=ORIENTED_EDGE('',*,*,#356,.F.);
#475=ORIENTED_EDGE('',*,*,#359,.T.);
#476=ORIENTED_EDGE('',*,*,#367,.F.);
#477=ORIENTED_EDGE('',*,*,#368,.F.);
#478=ORIENTED_EDGE('',*,*,#369,.F.);
#479=ORIENTED_EDGE('',*,*,#336,.T.);
#480=ORIENTED_EDGE('',*,*,#361,.T.);
#481=ORIENTED_EDGE('',*,*,#324,.F.);
#482=ORIENTED_EDGE('',*,*,#344,.F.);
#483=ORIENTED_EDGE('',*,*,#331,.F.);
#484=ORIENTED_EDGE('',*,*,#370,.F.);
#485=ORIENTED_EDGE('',*,*,#367,.T.);
#486=ORIENTED_EDGE('',*,*,#364,.T.);
#487=ORIENTED_EDGE('',*,*,#366,.T.);
#488=ORIENTED_EDGE('',*,*,#355,.T.);
#489=ORIENTED_EDGE('',*,*,#325,.T.);
#490=ORIENTED_EDGE('',*,*,#370,.T.);
#491=ORIENTED_EDGE('',*,*,#330,.F.);
#492=ORIENTED_EDGE('',*,*,#335,.T.);
#493=ORIENTED_EDGE('',*,*,#371,.T.);
#494=ORIENTED_EDGE('',*,*,#372,.T.);
#495=ORIENTED_EDGE('',*,*,#373,.T.);
#496=ORIENTED_EDGE('',*,*,#374,.T.);
#497=ORIENTED_EDGE('',*,*,#375,.T.);
#498=ORIENTED_EDGE('',*,*,#376,.T.);
#499=ORIENTED_EDGE('',*,*,#377,.T.);
#500=ORIENTED_EDGE('',*,*,#378,.T.);
#501=ORIENTED_EDGE('',*,*,#379,.T.);
#502=ORIENTED_EDGE('',*,*,#380,.T.);
#503=ORIENTED_EDGE('',*,*,#334,.T.);
#504=ORIENTED_EDGE('',*,*,#381,.F.);
#505=ORIENTED_EDGE('',*,*,#382,.T.);
#506=ORIENTED_EDGE('',*,*,#371,.F.);
#507=ORIENTED_EDGE('',*,*,#368,.T.);
#508=ORIENTED_EDGE('',*,*,#377,.F.);
#509=ORIENTED_EDGE('',*,*,#383,.F.);
#510=ORIENTED_EDGE('',*,*,#384,.F.);
#511=ORIENTED_EDGE('',*,*,#333,.T.);
#512=ORIENTED_EDGE('',*,*,#328,.T.);
#513=ORIENTED_EDGE('',*,*,#343,.T.);
#514=ORIENTED_EDGE('',*,*,#385,.F.);
#515=ORIENTED_EDGE('',*,*,#381,.T.);
#516=ORIENTED_EDGE('',*,*,#369,.T.);
#517=ORIENTED_EDGE('',*,*,#384,.T.);
#518=ORIENTED_EDGE('',*,*,#386,.F.);
#519=ORIENTED_EDGE('',*,*,#337,.T.);
#520=ORIENTED_EDGE('',*,*,#385,.T.);
#521=ORIENTED_EDGE('',*,*,#342,.T.);
#522=ORIENTED_EDGE('',*,*,#387,.T.);
#523=ORIENTED_EDGE('',*,*,#388,.T.);
#524=ORIENTED_EDGE('',*,*,#389,.T.);
#525=ORIENTED_EDGE('',*,*,#390,.T.);
#526=ORIENTED_EDGE('',*,*,#387,.F.);
#527=ORIENTED_EDGE('',*,*,#341,.T.);
#528=ORIENTED_EDGE('',*,*,#391,.T.);
#529=ORIENTED_EDGE('',*,*,#392,.T.);
#530=ORIENTED_EDGE('',*,*,#389,.F.);
#531=ORIENTED_EDGE('',*,*,#340,.T.);
#532=ORIENTED_EDGE('',*,*,#393,.T.);
#533=ORIENTED_EDGE('',*,*,#394,.T.);
#534=ORIENTED_EDGE('',*,*,#391,.F.);
#535=ORIENTED_EDGE('',*,*,#339,.T.);
#536=ORIENTED_EDGE('',*,*,#386,.T.);
#537=ORIENTED_EDGE('',*,*,#395,.T.);
#538=ORIENTED_EDGE('',*,*,#393,.F.);
#539=ORIENTED_EDGE('',*,*,#338,.T.);
#540=ORIENTED_EDGE('',*,*,#395,.F.);
#541=ORIENTED_EDGE('',*,*,#383,.T.);
#542=ORIENTED_EDGE('',*,*,#376,.F.);
#543=ORIENTED_EDGE('',*,*,#396,.F.);
#544=ORIENTED_EDGE('',*,*,#388,.F.);
#545=ORIENTED_EDGE('',*,*,#397,.T.);
#546=ORIENTED_EDGE('',*,*,#372,.F.);
#547=ORIENTED_EDGE('',*,*,#382,.F.);
#548=ORIENTED_EDGE('',*,*,#346,.F.);
#549=ORIENTED_EDGE('',*,*,#398,.T.);
#550=ORIENTED_EDGE('',*,*,#399,.F.);
#551=ORIENTED_EDGE('',*,*,#398,.F.);
#552=ORIENTED_EDGE('',*,*,#349,.F.);
#553=ORIENTED_EDGE('',*,*,#400,.T.);
#554=ORIENTED_EDGE('',*,*,#401,.F.);
#555=ORIENTED_EDGE('',*,*,#400,.F.);
#556=ORIENTED_EDGE('',*,*,#347,.F.);
#557=ORIENTED_EDGE('',*,*,#402,.T.);
#558=ORIENTED_EDGE('',*,*,#403,.F.);
#559=ORIENTED_EDGE('',*,*,#402,.F.);
#560=ORIENTED_EDGE('',*,*,#401,.T.);
#561=ORIENTED_EDGE('',*,*,#404,.T.);
#562=ORIENTED_EDGE('',*,*,#380,.F.);
#563=ORIENTED_EDGE('',*,*,#404,.F.);
#564=ORIENTED_EDGE('',*,*,#399,.T.);
#565=ORIENTED_EDGE('',*,*,#405,.T.);
#566=ORIENTED_EDGE('',*,*,#379,.F.);
#567=ORIENTED_EDGE('',*,*,#405,.F.);
#568=ORIENTED_EDGE('',*,*,#403,.T.);
#569=ORIENTED_EDGE('',*,*,#406,.T.);
#570=ORIENTED_EDGE('',*,*,#378,.F.);
#571=ORIENTED_EDGE('',*,*,#406,.F.);
#572=ORIENTED_EDGE('',*,*,#348,.T.);
#573=ORIENTED_EDGE('',*,*,#407,.T.);
#574=ORIENTED_EDGE('',*,*,#408,.T.);
#575=ORIENTED_EDGE('',*,*,#407,.F.);
#576=ORIENTED_EDGE('',*,*,#409,.F.);
#577=ORIENTED_EDGE('',*,*,#410,.T.);
#578=ORIENTED_EDGE('',*,*,#408,.F.);
#579=ORIENTED_EDGE('',*,*,#410,.F.);
#580=ORIENTED_EDGE('',*,*,#409,.T.);
#581=ORIENTED_EDGE('',*,*,#394,.F.);
#582=ORIENTED_EDGE('',*,*,#396,.T.);
#583=ORIENTED_EDGE('',*,*,#375,.F.);
#584=ORIENTED_EDGE('',*,*,#411,.F.);
#585=ORIENTED_EDGE('',*,*,#392,.F.);
#586=ORIENTED_EDGE('',*,*,#411,.T.);
#587=ORIENTED_EDGE('',*,*,#374,.F.);
#588=ORIENTED_EDGE('',*,*,#412,.F.);
#589=ORIENTED_EDGE('',*,*,#390,.F.);
#590=ORIENTED_EDGE('',*,*,#412,.T.);
#591=ORIENTED_EDGE('',*,*,#373,.F.);
#592=ORIENTED_EDGE('',*,*,#397,.F.);
#593=CYLINDRICAL_SURFACE('',#659,5.);
#594=CYLINDRICAL_SURFACE('',#662,5.);
#595=CYLINDRICAL_SURFACE('',#675,2.5);
#596=CYLINDRICAL_SURFACE('',#680,2.5);
#597=CYLINDRICAL_SURFACE('',#697,2.5);
#598=CYLINDRICAL_SURFACE('',#699,2.5);
#599=CYLINDRICAL_SURFACE('',#704,2.5);
#600=CYLINDRICAL_SURFACE('',#709,2.5);
#601=CYLINDRICAL_SURFACE('',#713,25.);
#602=CYLINDRICAL_SURFACE('',#714,9.99999592134804);
#603=CYLINDRICAL_SURFACE('',#721,1.25);
#604=CYLINDRICAL_SURFACE('',#722,1.25);
#605=CYLINDRICAL_SURFACE('',#723,1.25);
#606=CYLINDRICAL_SURFACE('',#726,4.95);
#607=CYLINDRICAL_SURFACE('',#730,10.);
#608=ADVANCED_FACE('',(#47),#593,.F.);
#609=ADVANCED_FACE('',(#48),#594,.F.);
#610=ADVANCED_FACE('',(#49),#32,.F.);
#611=ADVANCED_FACE('',(#50,#22,#23,#24,#25),#33,.F.);
#612=ADVANCED_FACE('',(#51),#595,.T.);
#613=ADVANCED_FACE('',(#52),#34,.T.);
#614=ADVANCED_FACE('',(#53),#35,.T.);
#615=ADVANCED_FACE('',(#54),#596,.T.);
#616=ADVANCED_FACE('',(#55),#36,.T.);
#617=ADVANCED_FACE('',(#56),#37,.T.);
#618=ADVANCED_FACE('',(#57),#38,.F.);
#619=ADVANCED_FACE('',(#58),#39,.F.);
#620=ADVANCED_FACE('',(#59),#40,.F.);
#621=ADVANCED_FACE('',(#60,#26,#27,#28),#41,.T.);
#622=ADVANCED_FACE('',(#61),#42,.T.);
#623=ADVANCED_FACE('',(#62),#43,.T.);
#624=ADVANCED_FACE('',(#63),#597,.T.);
#625=ADVANCED_FACE('',(#64),#598,.T.);
#626=ADVANCED_FACE('',(#65),#19,.T.);
#627=ADVANCED_FACE('',(#66),#599,.T.);
#628=ADVANCED_FACE('',(#67),#20,.T.);
#629=ADVANCED_FACE('',(#68),#600,.T.);
#630=ADVANCED_FACE('',(#69),#21,.T.);
#631=ADVANCED_FACE('',(#70),#601,.T.);
#632=ADVANCED_FACE('',(#71),#602,.T.);
#633=ADVANCED_FACE('',(#72),#15,.F.);
#634=ADVANCED_FACE('',(#73),#16,.F.);
#635=ADVANCED_FACE('',(#74),#17,.F.);
#636=ADVANCED_FACE('',(#75),#603,.F.);
#637=ADVANCED_FACE('',(#76),#604,.F.);
#638=ADVANCED_FACE('',(#77),#605,.F.);
#639=ADVANCED_FACE('',(#78),#18,.T.);
#640=ADVANCED_FACE('',(#79),#606,.T.);
#641=ADVANCED_FACE('',(#80),#44,.T.);
#642=ADVANCED_FACE('',(#81),#45,.T.);
#643=ADVANCED_FACE('',(#82),#607,.T.);
#644=ADVANCED_FACE('',(#83),#46,.T.);
#645=CLOSED_SHELL('',(#608,#609,#610,#611,#612,#613,#614,#615,#616,#617,
#618,#619,#620,#621,#622,#623,#624,#625,#626,#627,#628,#629,#630,#631,#632,
#633,#634,#635,#636,#637,#638,#639,#640,#641,#642,#643,#644));
#646=DERIVED_UNIT_ELEMENT(#648,1.);
#647=DERIVED_UNIT_ELEMENT(#1137,-3.);
#648=(
MASS_UNIT()
NAMED_UNIT(*)
SI_UNIT(.KILO.,.GRAM.)
);
#649=DERIVED_UNIT((#646,#647));
#650=MEASURE_REPRESENTATION_ITEM('density measure',
POSITIVE_RATIO_MEASURE(7850.),#649);
#651=PROPERTY_DEFINITION_REPRESENTATION(#656,#653);
#652=PROPERTY_DEFINITION_REPRESENTATION(#657,#654);
#653=REPRESENTATION('material name',(#655),#1134);
#654=REPRESENTATION('density',(#650),#1134);
#655=DESCRIPTIVE_REPRESENTATION_ITEM('Steel','Steel');
#656=PROPERTY_DEFINITION('material property','material name',#1144);
#657=PROPERTY_DEFINITION('material property','density of part',#1144);
#658=AXIS2_PLACEMENT_3D('',#932,#732,#733);
#659=AXIS2_PLACEMENT_3D('',#933,#734,#735);
#660=AXIS2_PLACEMENT_3D('',#936,#736,#737);
#661=AXIS2_PLACEMENT_3D('',#940,#739,#740);
#662=AXIS2_PLACEMENT_3D('',#953,#742,#743);
#663=AXIS2_PLACEMENT_3D('',#967,#745,#746);
#664=AXIS2_PLACEMENT_3D('',#970,#748,#749);
#665=AXIS2_PLACEMENT_3D('',#971,#750,#751);
#666=AXIS2_PLACEMENT_3D('',#973,#752,#753);
#667=AXIS2_PLACEMENT_3D('',#977,#756,#757);
#668=AXIS2_PLACEMENT_3D('',#984,#760,#761);
#669=AXIS2_PLACEMENT_3D('',#988,#763,#764);
#670=AXIS2_PLACEMENT_3D('',#992,#766,#767);
#671=AXIS2_PLACEMENT_3D('',#997,#771,#772);
#672=AXIS2_PLACEMENT_3D('',#999,#773,#774);
#673=AXIS2_PLACEMENT_3D('',#1001,#775,#776);
#674=AXIS2_PLACEMENT_3D('',#1003,#777,#778);
#675=AXIS2_PLACEMENT_3D('',#1004,#779,#780);
#676=AXIS2_PLACEMENT_3D('',#1007,#781,#782);
#677=AXIS2_PLACEMENT_3D('',#1011,#784,#785);
#678=AXIS2_PLACEMENT_3D('',#1013,#787,#788);
#679=AXIS2_PLACEMENT_3D('',#1020,#793,#794);
#680=AXIS2_PLACEMENT_3D('',#1026,#798,#799);
#681=AXIS2_PLACEMENT_3D('',#1027,#800,#801);
#682=AXIS2_PLACEMENT_3D('',#1028,#802,#803);
#683=AXIS2_PLACEMENT_3D('',#1034,#807,#808);
#684=AXIS2_PLACEMENT_3D('',#1036,#810,#811);
#685=AXIS2_PLACEMENT_3D('',#1038,#813,#814);
#686=AXIS2_PLACEMENT_3D('',#1043,#817,#818);
#687=AXIS2_PLACEMENT_3D('',#1044,#819,#820);
#688=AXIS2_PLACEMENT_3D('',#1046,#822,#823);
#689=AXIS2_PLACEMENT_3D('',#1050,#825,#826);
#690=AXIS2_PLACEMENT_3D('',#1054,#828,#829);
#691=AXIS2_PLACEMENT_3D('',#1058,#831,#832);
#692=AXIS2_PLACEMENT_3D('',#1061,#834,#835);
#693=AXIS2_PLACEMENT_3D('',#1063,#836,#837);
#694=AXIS2_PLACEMENT_3D('',#1065,#838,#839);
#695=AXIS2_PLACEMENT_3D('',#1066,#840,#841);
#696=AXIS2_PLACEMENT_3D('',#1070,#844,#845);
#697=AXIS2_PLACEMENT_3D('',#1074,#848,#849);
#698=AXIS2_PLACEMENT_3D('',#1075,#850,#851);
#699=AXIS2_PLACEMENT_3D('',#1076,#852,#853);
#700=AXIS2_PLACEMENT_3D('',#1077,#854,#855);
#701=AXIS2_PLACEMENT_3D('',#1078,#856,#857);
#702=AXIS2_PLACEMENT_3D('',#1080,#858,#859);
#703=AXIS2_PLACEMENT_3D('',#1081,#860,#861);
#704=AXIS2_PLACEMENT_3D('',#1082,#862,#863);
#705=AXIS2_PLACEMENT_3D('',#1084,#864,#865);
#706=AXIS2_PLACEMENT_3D('',#1086,#867,#868);
#707=AXIS2_PLACEMENT_3D('',#1088,#869,#870);
#708=AXIS2_PLACEMENT_3D('',#1089,#871,#872);
#709=AXIS2_PLACEMENT_3D('',#1090,#873,#874);
#710=AXIS2_PLACEMENT_3D('',#1092,#875,#876);
#711=AXIS2_PLACEMENT_3D('',#1094,#878,#879);
#712=AXIS2_PLACEMENT_3D('',#1095,#880,#881);
#713=AXIS2_PLACEMENT_3D('',#1096,#882,#883);
#714=AXIS2_PLACEMENT_3D('',#1098,#885,#886);
#715=AXIS2_PLACEMENT_3D('',#1100,#888,#889);
#716=AXIS2_PLACEMENT_3D('',#1103,#891,#892);
#717=AXIS2_PLACEMENT_3D('',#1104,#893,#894);
#718=AXIS2_PLACEMENT_3D('',#1107,#896,#897);
#719=AXIS2_PLACEMENT_3D('',#1108,#898,#899);
#720=AXIS2_PLACEMENT_3D('',#1111,#901,#902);
#721=AXIS2_PLACEMENT_3D('',#1112,#903,#904);
#722=AXIS2_PLACEMENT_3D('',#1114,#906,#907);
#723=AXIS2_PLACEMENT_3D('',#1116,#909,#910);
#724=AXIS2_PLACEMENT_3D('',#1118,#912,#913);
#725=AXIS2_PLACEMENT_3D('',#1121,#915,#916);
#726=AXIS2_PLACEMENT_3D('',#1122,#917,#918);
#727=AXIS2_PLACEMENT_3D('',#1124,#919,#920);
#728=AXIS2_PLACEMENT_3D('',#1126,#922,#923);
#729=AXIS2_PLACEMENT_3D('',#1127,#924,#925);
#730=AXIS2_PLACEMENT_3D('',#1129,#927,#928);
#731=AXIS2_PLACEMENT_3D('',#1131,#930,#931);
#732=DIRECTION('axis',(0.,0.,1.));
#733=DIRECTION('refdir',(1.,0.,0.));
#734=DIRECTION('center_axis',(-1.14829546452944E-14,5.32148552798668E-15,
-1.));
#735=DIRECTION('ref_axis',(-0.705429881141041,-0.708779713869787,4.31775426138037E-15));
#736=DIRECTION('center_axis',(0.,0.,-1.));
#737=DIRECTION('ref_axis',(-0.705429881141041,-0.708779713869787,4.31775426138037E-15));
#738=DIRECTION('',(1.14829546452944E-14,-5.32148552798668E-15,1.));
#739=DIRECTION('center_axis',(0.,0.,1.));
#740=DIRECTION('ref_axis',(-0.705429881141041,-0.708779713869787,4.31775426138037E-15));
#741=DIRECTION('',(1.26693384999971E-17,-5.34865514786785E-15,1.));
#742=DIRECTION('center_axis',(1.1470322874988E-14,1.13093354517115E-17,
1.));
#743=DIRECTION('ref_axis',(-0.708779713869786,0.705429881141041,8.16448078515563E-15));
#744=DIRECTION('',(1.1470322874988E-14,1.13093354517115E-17,1.));
#745=DIRECTION('center_axis',(0.,0.,1.));
#746=DIRECTION('ref_axis',(-0.708779713869786,0.705429881141041,8.16448078515563E-15));
#747=DIRECTION('',(-1.1470322874988E-14,-1.13093354517115E-17,-1.));
#748=DIRECTION('center_axis',(0.,0.,-1.));
#749=DIRECTION('ref_axis',(-0.708779713869786,0.705429881141041,8.16448078515563E-15));
#750=DIRECTION('center_axis',(-0.00236868943833685,0.999997194651237,1.58603289232165E-17));
#751=DIRECTION('ref_axis',(0.,-1.58603734170955E-17,1.));
#752=DIRECTION('center_axis',(-0.00236868943833685,0.999997194651237,1.58603289232165E-17));
#753=DIRECTION('ref_axis',(0.999997194651237,0.00236868943833685,0.));
#754=DIRECTION('',(-3.65705543225322E-33,1.58603734170955E-17,-1.));
#755=DIRECTION('',(0.999997194651237,0.00236868943833685,0.));
#756=DIRECTION('center_axis',(0.,0.,1.));
#757=DIRECTION('ref_axis',(1.,0.,0.));
#758=DIRECTION('',(-0.999997194651237,-0.00236868943833687,0.));
#759=DIRECTION('',(-2.30578141893644E-16,1.,0.));
#760=DIRECTION('center_axis',(0.,0.,1.));
#761=DIRECTION('ref_axis',(-1.00336460917561E-8,-1.,0.));
#762=DIRECTION('',(-2.00672890760144E-8,-1.,0.));
#763=DIRECTION('center_axis',(0.,0.,1.));
#764=DIRECTION('ref_axis',(-0.707106778209871,0.707106784163224,0.));
#765=DIRECTION('',(-1.,-1.16479747425512E-8,0.));
#766=DIRECTION('center_axis',(0.,0.,1.));
#767=DIRECTION('ref_axis',(0.707106781186547,0.707106781186548,0.));
#768=DIRECTION('',(-2.30578141893644E-16,1.,0.));
#769=DIRECTION('',(0.00236868943833685,-0.999997194651237,0.));
#770=DIRECTION('',(-0.00236868943833635,0.999997194651237,0.));
#771=DIRECTION('center_axis',(0.,0.,1.));
#772=DIRECTION('ref_axis',(-1.,-2.02858567515891E-17,8.28590668300321E-15));
#773=DIRECTION('center_axis',(0.,0.,1.));
#774=DIRECTION('ref_axis',(-1.,-2.02858567515891E-17,8.28590668300321E-15));
#775=DIRECTION('center_axis',(0.,0.,-1.));
#776=DIRECTION('ref_axis',(1.,4.37585690881044E-17,0.));
#777=DIRECTION('center_axis',(0.,0.,1.));
#778=DIRECTION('ref_axis',(-1.,-2.02858567515891E-17,8.28590668300321E-15));
#779=DIRECTION('center_axis',(0.00236868943833635,-0.999997194651237,-1.95996345524797E-17));
#780=DIRECTION('ref_axis',(0.707104797505413,0.00167491636437133,0.707106781186548));
#781=DIRECTION('center_axis',(-0.00236868943833635,0.999997194651237,1.95996345524795E-17));
#782=DIRECTION('ref_axis',(0.707104797505413,0.00167491636437133,0.707106781186548));
#783=DIRECTION('',(-0.00236868943833635,0.999997194651237,1.95996345524797E-17));
#784=DIRECTION('center_axis',(0.00236868696957128,-0.999996152404796,0.00144377894573391));
#785=DIRECTION('ref_axis',(-3.41986394121715E-6,0.00144377489543043,0.999998957750635));
#786=DIRECTION('',(0.00236868943833635,-0.999997194651237,-1.95996345524797E-17));
#787=DIRECTION('center_axis',(-0.00236868696957128,0.999996152404796,-0.00144377894573391));
#788=DIRECTION('ref_axis',(-3.4198639400524E-6,0.00144377489543043,0.999998957750635));
#789=DIRECTION('',(-3.4198639400524E-6,0.00144377489543043,0.999998957750635));
#790=DIRECTION('',(0.999997194651237,0.00236868943833635,4.44089209850063E-16));
#791=DIRECTION('',(-3.4198639400524E-6,0.00144377489543043,0.999998957750635));
#792=DIRECTION('',(0.999997194651237,0.00236868943833635,4.44089209850063E-16));
#793=DIRECTION('center_axis',(0.999997194651237,0.00236868943833635,4.44089209850063E-16));
#794=DIRECTION('ref_axis',(4.44090455678673E-16,0.,-1.));
#795=DIRECTION('',(-4.64254473838488E-20,1.95995795686689E-17,-1.));
#796=DIRECTION('',(-4.44041538577589E-16,-2.06514889892901E-17,1.));
#797=DIRECTION('',(0.00236868943833635,-0.999997194651237,0.));
#798=DIRECTION('center_axis',(-0.00236868943833635,0.999997194651237,0.));
#799=DIRECTION('ref_axis',(0.707104797505414,0.00167491636437133,-0.707106781186548));
#800=DIRECTION('center_axis',(0.00236868943833687,-0.999997194651237,-1.95996345520494E-17));
#801=DIRECTION('ref_axis',(0.707104797505414,0.00167491636437133,-0.707106781186548));
#802=DIRECTION('center_axis',(0.00236868943833635,-0.999997194651237,-1.95996345524795E-17));
#803=DIRECTION('ref_axis',(-4.64254473838488E-20,1.95995795686689E-17,-1.));
#804=DIRECTION('',(0.999997194651237,0.00236868943833635,4.44089209850063E-16));
#805=DIRECTION('',(4.64254473838488E-20,-1.95995795686689E-17,1.));
#806=DIRECTION('',(-0.999997194651237,-0.00236868943833687,0.));
#807=DIRECTION('center_axis',(-4.44041538577588E-16,-2.06514889897202E-17,
1.));
#808=DIRECTION('ref_axis',(0.00236868943833685,-0.999997194651237,-1.95996345524795E-17));
#809=DIRECTION('',(-0.00236868943833685,0.999997194651237,1.95996345524795E-17));
#810=DIRECTION('center_axis',(0.999997194651237,0.00236868943833685,4.40619762898084E-16));
#811=DIRECTION('ref_axis',(0.00236868943833685,-0.999997194651237,-1.95996345524795E-17));
#812=DIRECTION('',(-0.00236868943833685,0.999997194651237,0.));
#813=DIRECTION('center_axis',(0.00236868943833687,-0.999997194651237,-1.95996345520494E-17));
#814=DIRECTION('ref_axis',(-0.999997194651237,-0.00236868943833687,8.28588350234887E-15));
#815=DIRECTION('',(-0.999997194651237,-0.00236868943833687,0.));
#816=DIRECTION('',(4.51925999490646E-33,-1.95996895360142E-17,1.));
#817=DIRECTION('center_axis',(0.00236868943833687,-0.999997194651237,-1.95996345520494E-17));
#818=DIRECTION('ref_axis',(0.999997194651237,0.00236868943833687,0.));
#819=DIRECTION('center_axis',(-0.999997194651237,-0.00236868943833685,1.14703174850354E-14));
#820=DIRECTION('ref_axis',(1.14703317322418E-14,7.57004031293523E-18,1.));
#821=DIRECTION('',(-0.00236868943833685,0.999997194651237,0.));
#822=DIRECTION('center_axis',(0.,0.,1.));
#823=DIRECTION('ref_axis',(1.,0.,0.));
#824=DIRECTION('',(-2.30578141893644E-16,1.,0.));
#825=DIRECTION('center_axis',(0.,0.,1.));
#826=DIRECTION('ref_axis',(1.,0.,0.));
#827=DIRECTION('',(-1.,-1.16479747425512E-8,0.));
#828=DIRECTION('center_axis',(0.,0.,1.));
#829=DIRECTION('ref_axis',(-1.16479755285503E-8,1.,0.));
#830=DIRECTION('',(-2.00672890760144E-8,-1.,0.));
#831=DIRECTION('center_axis',(0.,0.,1.));
#832=DIRECTION('ref_axis',(1.,0.,0.));
#833=DIRECTION('',(-2.30578141893644E-16,1.,0.));
#834=DIRECTION('center_axis',(0.,0.,-1.));
#835=DIRECTION('ref_axis',(-1.,-2.02858567515891E-17,8.21565038222616E-15));
#836=DIRECTION('center_axis',(0.,0.,-1.));
#837=DIRECTION('ref_axis',(-1.,-2.02858567515891E-17,8.21565038222616E-15));
#838=DIRECTION('center_axis',(0.,0.,-1.));
#839=DIRECTION('ref_axis',(-1.,-2.02858567515891E-17,7.99360577730113E-15));
#840=DIRECTION('center_axis',(1.,2.30578141893644E-16,0.));
#841=DIRECTION('ref_axis',(-2.30578141893644E-16,1.,0.));
#842=DIRECTION('',(2.30578141893644E-16,-1.,0.));
#843=DIRECTION('',(0.,0.,1.));
#844=DIRECTION('center_axis',(1.,2.30578141893644E-16,0.));
#845=DIRECTION('ref_axis',(-2.30578141893644E-16,1.,0.));
#846=DIRECTION('',(0.,0.,1.));
#847=DIRECTION('',(2.30578141893644E-16,-1.,0.));
#848=DIRECTION('center_axis',(2.30578141893644E-16,-1.,0.));
#849=DIRECTION('ref_axis',(0.707106781186547,0.,-0.707106781186547));
#850=DIRECTION('center_axis',(0.,1.,0.));
#851=DIRECTION('ref_axis',(1.,0.,0.));
#852=DIRECTION('center_axis',(2.30578141893644E-16,-1.,0.));
#853=DIRECTION('ref_axis',(0.707106781186547,0.,-0.707106781186547));
#854=DIRECTION('center_axis',(5.24753851482984E-17,-1.,0.));
#855=DIRECTION('ref_axis',(0.,0.,-1.));
#856=DIRECTION('center_axis',(0.,0.,1.));
#857=DIRECTION('ref_axis',(1.,0.,0.));
#858=DIRECTION('center_axis',(1.,1.77635683940025E-15,0.));
#859=DIRECTION('ref_axis',(0.,0.,-1.));
#860=DIRECTION('center_axis',(0.,0.,-1.));
#861=DIRECTION('ref_axis',(0.707106781186547,0.707106781186548,0.));
#862=DIRECTION('center_axis',(1.,1.16479747425512E-8,0.));
#863=DIRECTION('ref_axis',(-8.23636213006211E-9,0.707106781186547,-0.707106781186547));
#864=DIRECTION('center_axis',(1.,1.16479736966824E-8,0.));
#865=DIRECTION('ref_axis',(0.,0.,-1.));
#866=DIRECTION('',(1.,1.16479747425512E-8,0.));
#867=DIRECTION('center_axis',(0.,0.,1.));
#868=DIRECTION('ref_axis',(1.,0.,0.));
#869=DIRECTION('center_axis',(2.00672829464565E-8,1.,0.));
#870=DIRECTION('ref_axis',(0.,0.,-1.));
#871=DIRECTION('center_axis',(0.,0.,-1.));
#872=DIRECTION('ref_axis',(-0.707106778209871,0.707106784163224,0.));
#873=DIRECTION('center_axis',(-2.00672890760144E-8,-1.,0.));
#874=DIRECTION('ref_axis',(-0.707106781186547,1.41897168757245E-8,-0.707106781186547));
#875=DIRECTION('center_axis',(2.00672864991702E-8,1.,0.));
#876=DIRECTION('ref_axis',(0.,0.,-1.));
#877=DIRECTION('',(2.00672890760144E-8,1.,0.));
#878=DIRECTION('center_axis',(0.,0.,1.));
#879=DIRECTION('ref_axis',(-1.0033645807539E-8,-1.,0.));
#880=DIRECTION('center_axis',(0.,0.,-1.));
#881=DIRECTION('ref_axis',(-1.00336460917561E-8,-1.,0.));
#882=DIRECTION('center_axis',(0.,0.,1.));
#883=DIRECTION('ref_axis',(-1.00336460978174E-8,-1.,0.));
#884=DIRECTION('',(0.,0.,1.));
#885=DIRECTION('center_axis',(0.,0.,1.));
#886=DIRECTION('ref_axis',(1.,0.,0.));
#887=DIRECTION('',(0.,0.,1.));
#888=DIRECTION('center_axis',(-8.28590668300321E-15,-2.71051710646495E-20,
-1.));
#889=DIRECTION('ref_axis',(-1.,-2.02858567515891E-17,8.2859066830032E-15));
#890=DIRECTION('',(-0.707106781186542,-1.00920706244512E-16,0.707106781186554));
#891=DIRECTION('center_axis',(-8.21565038222616E-15,0.,-1.));
#892=DIRECTION('ref_axis',(-1.,-2.02858567515891E-17,8.21565038222616E-15));
#893=DIRECTION('center_axis',(-8.28590668300321E-15,-2.71051710646495E-20,
-1.));
#894=DIRECTION('ref_axis',(-1.,-2.02858567515891E-17,8.2859066830032E-15));
#895=DIRECTION('',(-0.707106781186542,-1.00920706244512E-16,0.707106781186554));
#896=DIRECTION('center_axis',(-7.99360577730113E-15,0.,-1.));
#897=DIRECTION('ref_axis',(-1.,-2.02858567515891E-17,7.99360577730113E-15));
#898=DIRECTION('center_axis',(-8.28590668300321E-15,-2.71051710646495E-20,
-1.));
#899=DIRECTION('ref_axis',(-1.,-2.02858567515891E-17,8.2859066830032E-15));
#900=DIRECTION('',(-0.707106781186542,-1.00920706244512E-16,0.707106781186554));
#901=DIRECTION('center_axis',(-8.21565038222616E-15,0.,-1.));
#902=DIRECTION('ref_axis',(-1.,-2.02858567515891E-17,8.21565038222616E-15));
#903=DIRECTION('center_axis',(7.99360577730113E-15,0.,1.));
#904=DIRECTION('ref_axis',(-1.,-2.02858567515891E-17,7.99360577730113E-15));
#905=DIRECTION('',(7.99360577730113E-15,0.,1.));
#906=DIRECTION('center_axis',(8.21565038222616E-15,0.,1.));
#907=DIRECTION('ref_axis',(-1.,-2.02858567515891E-17,8.21565038222616E-15));
#908=DIRECTION('',(8.21565038222616E-15,0.,1.));
#909=DIRECTION('center_axis',(8.21565038222616E-15,0.,1.));
#910=DIRECTION('ref_axis',(-1.,-2.02858567515891E-17,8.21565038222616E-15));
#911=DIRECTION('',(8.21565038222616E-15,0.,1.));
#912=DIRECTION('center_axis',(0.,0.,1.));
#913=DIRECTION('ref_axis',(1.,4.37585690881044E-17,-5.52158814331203E-36));
#914=DIRECTION('',(0.707106781186548,1.17537586560768E-16,-0.707106781186547));
#915=DIRECTION('center_axis',(0.,0.,1.));
#916=DIRECTION('ref_axis',(1.,4.37585690881044E-17,-1.21586486388083E-35));
#917=DIRECTION('center_axis',(0.,-2.16840434497101E-19,-1.));
#918=DIRECTION('ref_axis',(1.,4.37585690881044E-17,-1.21586486388083E-35));
#919=DIRECTION('center_axis',(-1.0842021724855E-19,-1.0842021724855E-19,
-1.));
#920=DIRECTION('ref_axis',(1.,4.37585690881044E-17,-1.0842021724855E-19));
#921=DIRECTION('',(0.,2.16840434497101E-19,1.));
#922=DIRECTION('center_axis',(-1.0842021724855E-19,-1.0842021724855E-19,
-1.));
#923=DIRECTION('ref_axis',(1.,4.37585690881044E-17,-1.0842021724855E-19));
#924=DIRECTION('center_axis',(-1.,2.00672890760144E-8,0.));
#925=DIRECTION('ref_axis',(-2.00672890760144E-8,-1.,0.));
#926=DIRECTION('',(0.,0.,1.));
#927=DIRECTION('center_axis',(0.,0.,1.));
#928=DIRECTION('ref_axis',(-1.16479755285503E-8,1.,0.));
#929=DIRECTION('',(0.,0.,1.));
#930=DIRECTION('center_axis',(-1.16479747425512E-8,1.,0.));
#931=DIRECTION('ref_axis',(-1.,-1.16479747425512E-8,0.));
#932=CARTESIAN_POINT('',(0.,0.,0.));
#933=CARTESIAN_POINT('Origin',(34.9124413334934,50.7035823970661,-0.799999237060795));
#934=CARTESIAN_POINT('',(29.9124553602372,50.6917389498744,0.));
#935=CARTESIAN_POINT('',(32.4227050730021,46.3675458020643,-6.39679281766448E-17));
#936=CARTESIAN_POINT('Origin',(34.9124413334934,50.7035823970661,-2.31759056390501E-13));
#937=CARTESIAN_POINT('',(29.9124553602373,50.6917389498743,5.));
#938=CARTESIAN_POINT('',(29.9124553602372,50.6917389498744,-0.799999237060738));
#939=CARTESIAN_POINT('',(34.9242847806855,45.7035964238098,4.99999999999993));
#940=CARTESIAN_POINT('Origin',(34.9124413334935,50.703582397066,4.99999999999977));
#941=CARTESIAN_POINT('',(34.9242847806855,45.7035964238099,2.5));
#942=CARTESIAN_POINT('',(34.9242847806855,45.7035964238098,4.99999999999993));
#943=CARTESIAN_POINT('Ctrl Pts',(34.9242847806855,45.7035964238099,2.49999999999997));
#944=CARTESIAN_POINT('Ctrl Pts',(34.9242847806855,45.7035964238099,2.18556168488373));
#945=CARTESIAN_POINT('Ctrl Pts',(34.8613093152062,45.70220913028,1.850268186026));
#946=CARTESIAN_POINT('Ctrl Pts',(34.6057457955273,45.711359742464,1.2341530921329));
#947=CARTESIAN_POINT('Ctrl Pts',(34.4131361642827,45.7235556967796,0.95336618893365));
#948=CARTESIAN_POINT('Ctrl Pts',(33.9577514154673,45.7898701715502,0.498139796027333));
#949=CARTESIAN_POINT('Ctrl Pts',(33.6620322188265,45.8513431712271,0.302355414541197));
#950=CARTESIAN_POINT('Ctrl Pts',(33.038397002423,46.0564642411963,0.0537033938505323));
#951=CARTESIAN_POINT('Ctrl Pts',(32.7113696221689,46.2017956799349,-4.24912624103275E-15));
#952=CARTESIAN_POINT('Ctrl Pts',(32.4227050730021,46.3675458020643,4.48859699408999E-16));
#953=CARTESIAN_POINT('Origin',(34.8690697307429,69.0139106217278,14.0888292358454));
#954=CARTESIAN_POINT('',(34.857226283551,74.0138965949839,1.47767124433314));
#955=CARTESIAN_POINT('',(32.575813581882,73.4569924615899,5.54027310140093E-16));
#956=CARTESIAN_POINT('Ctrl Pts',(32.575813581882,73.4569924615899,1.11022302462516E-15));
#957=CARTESIAN_POINT('Ctrl Pts',(32.867193738105,73.6073856704026,-1.71113106880895E-15));
#958=CARTESIAN_POINT('Ctrl Pts',(33.1947074794671,73.7362700626295,0.0548314259215593));
#959=CARTESIAN_POINT('Ctrl Pts',(33.8157289665818,73.9123430536179,0.303527910251366));
#960=CARTESIAN_POINT('Ctrl Pts',(34.1084951277696,73.9612126612761,0.498050829006028));
#961=CARTESIAN_POINT('Ctrl Pts',(34.5475328792752,74.0079178811424,0.93538942809406));
#962=CARTESIAN_POINT('Ctrl Pts',(34.7299216713926,74.0135950490477,1.19358028284017));
#963=CARTESIAN_POINT('Ctrl Pts',(34.857226283551,74.0138965949839,1.47767124433314));
#964=CARTESIAN_POINT('',(34.8572262835511,74.0138965949839,5.));
#965=CARTESIAN_POINT('',(34.8572262835512,74.0138965949839,14.0888292358454));
#966=CARTESIAN_POINT('',(29.8690837574866,69.0020671745361,5.));
#967=CARTESIAN_POINT('Origin',(34.8690697307428,69.0139106217278,4.99999999999972));
#968=CARTESIAN_POINT('',(29.8690837574865,69.0020671745361,0.));
#969=CARTESIAN_POINT('',(29.8690837574867,69.0020671745361,14.0888292358454));
#970=CARTESIAN_POINT('Origin',(34.8690697307427,69.0139106217278,-2.8421709430404E-13));
#971=CARTESIAN_POINT('Origin',(32.7864540709753,74.0089915649545,29.7776569458122));
#972=CARTESIAN_POINT('',(35.075813581882,74.0144143618614,2.5));
#973=CARTESIAN_POINT('Origin',(32.575813581882,74.008492621653,2.5));
#974=CARTESIAN_POINT('',(35.075813581882,74.0144143618614,5.));
#975=CARTESIAN_POINT('',(35.075813581882,74.0144143618614,14.8888284729061));
#976=CARTESIAN_POINT('',(21.3916996251839,73.982000854728,5.));
#977=CARTESIAN_POINT('Origin',(10.0758135818819,40.6588844643872,0.));
#978=CARTESIAN_POINT('',(32.575813581882,39.0083944341709,0.));
#979=CARTESIAN_POINT('',(32.4401374272651,39.0080730585948,0.));
#980=CARTESIAN_POINT('',(21.4746037555257,38.9820990419347,0.));
#981=CARTESIAN_POINT('',(32.575813581882,0.00935179468358514,0.));
#982=CARTESIAN_POINT('',(32.575813581882,20.3341181295354,0.));
#983=CARTESIAN_POINT('',(-12.4241864181182,0.00935224619767361,0.));
#984=CARTESIAN_POINT('Origin',(10.075813581882,0.00935179468359051,0.));
#985=CARTESIAN_POINT('',(-12.4241844856571,96.3084169351562,0.));
#986=CARTESIAN_POINT('',(-12.4241850440247,68.4836509255287,0.));
#987=CARTESIAN_POINT('',(-4.92418457301689,103.808416784652,0.));
#988=CARTESIAN_POINT('Origin',(-4.92418448565707,96.3084167846515,0.));
#989=CARTESIAN_POINT('',(25.075817660534,103.808417134091,0.));
#990=CARTESIAN_POINT('',(17.5758152679858,103.808417046731,0.));
#991=CARTESIAN_POINT('',(32.575813581882,96.3084212127427,0.));
#992=CARTESIAN_POINT('Origin',(25.075817660534,96.3084212127427,0.));
#993=CARTESIAN_POINT('',(32.575813581882,20.3341181295354,0.));
#994=CARTESIAN_POINT('',(29.9381265767104,39.8540394013385,0.));
#995=CARTESIAN_POINT('',(32.4341538802026,41.5341662558394,0.));
#996=CARTESIAN_POINT('',(9.61091901428944,42.3189622557589,2.4980018054066E-15));
#997=CARTESIAN_POINT('Origin',(7.11091901428945,42.3189622557589,2.45636844198316E-14));
#998=CARTESIAN_POINT('',(-4.03135390893696,98.658425244045,1.14491749414469E-13));
#999=CARTESIAN_POINT('Origin',(-6.53135390893696,98.658425244045,1.3759826611448E-13));
#1000=CARTESIAN_POINT('',(4.12581358188211,0.00935179468359407,0.));
#1001=CARTESIAN_POINT('Origin',(10.0758135818821,0.0093517946835936,0.));
#1002=CARTESIAN_POINT('',(30.6470955829286,42.4231017437225,-1.71668235182665E-13));
#1003=CARTESIAN_POINT('Origin',(28.1470955829286,42.4231017437225,-1.49741330446318E-13));
#1004=CARTESIAN_POINT('Origin',(32.4282403778562,44.0306884513099,7.49999999999993));
#1005=CARTESIAN_POINT('',(32.4401374272651,39.0080730585948,9.99999999999993));
#1006=CARTESIAN_POINT('',(34.9401304138932,39.0139947821906,7.49999999999993));
#1007=CARTESIAN_POINT('Origin',(32.4401374272651,39.0080730585948,7.49999999999993));
#1008=CARTESIAN_POINT('',(34.9242762310168,45.7072058648103,7.49999999999993));
#1009=CARTESIAN_POINT('',(34.9282333644843,44.0366101749058,7.49999999999993));
#1010=CARTESIAN_POINT('',(32.4242746947199,45.704893582215,9.99999999999993));
#1011=CARTESIAN_POINT('Origin',(32.4242832443887,45.7012841412145,7.49999999999993));
#1012=CARTESIAN_POINT('',(32.4282403778562,44.0306884513099,9.99999999999993));
#1013=CARTESIAN_POINT('Origin',(29.9242988074293,45.6917529766181,4.99999999999993));
#1014=CARTESIAN_POINT('',(34.9242847806855,45.7035964238098,4.99999999999993));
#1015=CARTESIAN_POINT('',(29.9242988074293,45.6917529766181,4.99999999999993));
#1016=CARTESIAN_POINT('',(29.9242988074293,45.6917529766181,4.99999999999993));
#1017=CARTESIAN_POINT('',(29.9242817080918,45.6989718586192,9.99999999999993));
#1018=CARTESIAN_POINT('',(29.9242988074293,45.6917529766181,4.99999999999993));
#1019=CARTESIAN_POINT('',(29.9242817080918,45.6989718586192,9.99999999999993));
#1020=CARTESIAN_POINT('Origin',(34.9321990476206,42.3624050440007,4.99999999999984));
#1021=CARTESIAN_POINT('',(34.9401304138932,39.0139947821906,5.));
#1022=CARTESIAN_POINT('',(34.9401304138932,39.0139947821906,4.99999999999993));
#1023=CARTESIAN_POINT('',(34.9401304138932,39.0139947821907,2.5));
#1024=CARTESIAN_POINT('',(34.9401304138932,39.0139947821907,17.388828472906));
#1025=CARTESIAN_POINT('',(34.9341468668307,41.5400879794352,2.5));
#1026=CARTESIAN_POINT('Origin',(32.4341538802026,41.5341662558394,2.5));
#1027=CARTESIAN_POINT('Origin',(32.4401374272651,39.0080730585948,2.5));
#1028=CARTESIAN_POINT('Origin',(29.9401444406371,39.002151334999,9.99999999999993));
#1029=CARTESIAN_POINT('',(29.9401444406371,39.002151334999,9.99999999999993));
#1030=CARTESIAN_POINT('',(29.9401444406371,39.002151334999,9.99999999999993));
#1031=CARTESIAN_POINT('',(29.9401444406367,39.002151334999,5.));
#1032=CARTESIAN_POINT('',(29.9401444406371,39.002151334999,4.99999999999992));
#1033=CARTESIAN_POINT('',(21.4746037555257,38.9820990419347,5.));
#1034=CARTESIAN_POINT('Origin',(29.9242817080918,45.6989718586192,9.99999999999993));
#1035=CARTESIAN_POINT('',(29.9401444406371,39.002151334999,9.99999999999993));
#1036=CARTESIAN_POINT('Origin',(29.9322130743644,42.3505615968091,4.99999999999984));
#1037=CARTESIAN_POINT('',(29.9381265767105,39.8540394013385,5.));
#1038=CARTESIAN_POINT('Origin',(32.8693582013171,39.0090897521612,29.7776569458122));
#1039=CARTESIAN_POINT('',(35.075813581882,39.0143161743792,5.));
#1040=CARTESIAN_POINT('',(21.4746037555257,38.9820990419347,5.));
#1041=CARTESIAN_POINT('',(35.075813581882,39.0143161743792,2.5));
#1042=CARTESIAN_POINT('',(35.075813581882,39.0143161743792,14.8888284729061));
#1043=CARTESIAN_POINT('Origin',(32.575813581882,39.0083944341709,2.5));
#1044=CARTESIAN_POINT('Origin',(29.9401444406366,39.002151334999,-1.59999847412132));
#1045=CARTESIAN_POINT('',(29.9381265767105,39.8540394013385,5.));
#1046=CARTESIAN_POINT('Origin',(10.0758135818819,40.6588844643872,5.));
#1047=CARTESIAN_POINT('',(35.075813581882,96.3084212127427,5.));
#1048=CARTESIAN_POINT('',(35.075813581882,96.3084212127427,5.));
#1049=CARTESIAN_POINT('',(25.075817660534,106.308417134091,5.));
#1050=CARTESIAN_POINT('Origin',(25.075817660534,96.3084212127427,5.));
#1051=CARTESIAN_POINT('',(-4.92418460213682,106.308416784652,5.));
#1052=CARTESIAN_POINT('',(-4.92418460213682,106.308416784652,5.));
#1053=CARTESIAN_POINT('',(-14.9241844856571,96.3084169853244,5.));
#1054=CARTESIAN_POINT('Origin',(-4.92418448565707,96.3084167846515,5.));
#1055=CARTESIAN_POINT('',(-14.9241864181182,0.00935229636588986,5.));
#1056=CARTESIAN_POINT('',(-14.9241844856571,96.3084169853244,5.));
#1057=CARTESIAN_POINT('',(35.075813581882,0.00935179468358527,5.));
#1058=CARTESIAN_POINT('Origin',(10.075813581882,0.00935179468359051,5.));
#1059=CARTESIAN_POINT('',(35.075813581882,96.3084212127427,5.));
#1060=CARTESIAN_POINT('',(-5.28135390893692,98.658425244045,5.00000000000013));
#1061=CARTESIAN_POINT('Origin',(-6.53135390893692,98.658425244045,5.00000000000014));
#1062=CARTESIAN_POINT('',(8.36091901428949,42.3189622557589,5.00000000000001));
#1063=CARTESIAN_POINT('Origin',(7.11091901428949,42.3189622557589,5.00000000000002));
#1064=CARTESIAN_POINT('',(29.3970955829287,42.4231017437225,4.99999999999985));
#1065=CARTESIAN_POINT('Origin',(28.1470955829287,42.4231017437225,4.99999999999986));
#1066=CARTESIAN_POINT('Origin',(35.075813581882,0.00935179468358527,0.));
#1067=CARTESIAN_POINT('',(35.075813581882,96.3084212127427,2.5));
#1068=CARTESIAN_POINT('',(35.075813581882,20.3341181295354,2.5));
#1069=CARTESIAN_POINT('',(35.075813581882,96.3084212127427,0.));
#1070=CARTESIAN_POINT('Origin',(35.075813581882,0.00935179468358527,0.));
#1071=CARTESIAN_POINT('',(35.075813581882,0.00935179468358527,2.5));
#1072=CARTESIAN_POINT('',(35.075813581882,0.00935179468358527,0.));
#1073=CARTESIAN_POINT('',(35.075813581882,20.3341181295354,2.5));
#1074=CARTESIAN_POINT('Origin',(32.575813581882,20.3341181295354,2.5));
#1075=CARTESIAN_POINT('Origin',(32.575813581882,96.3084212127427,2.5));
#1076=CARTESIAN_POINT('Origin',(32.575813581882,20.3341181295354,2.5));
#1077=CARTESIAN_POINT('Origin',(32.575813581882,0.00935179468358514,2.5));
#1078=CARTESIAN_POINT('Origin',(25.075817660534,96.3084212127427,2.5));
#1079=CARTESIAN_POINT('',(25.075817660534,106.308417134091,2.5));
#1080=CARTESIAN_POINT('Origin',(25.075817660534,103.808417134091,2.5));
#1081=CARTESIAN_POINT('Origin',(25.075817660534,96.3084212127427,2.5));
#1082=CARTESIAN_POINT('Origin',(17.5758152679858,103.808417046731,2.5));
#1083=CARTESIAN_POINT('',(-4.92418460213682,106.308416784652,2.5));
#1084=CARTESIAN_POINT('Origin',(-4.92418457301689,103.808416784652,2.5));
#1085=CARTESIAN_POINT('',(17.5758152388659,106.308417046731,2.5));
#1086=CARTESIAN_POINT('Origin',(-4.92418448565707,96.3084167846515,2.5));
#1087=CARTESIAN_POINT('',(-14.9241844856571,96.3084169853244,2.5));
#1088=CARTESIAN_POINT('Origin',(-12.4241844856571,96.3084169351562,2.5));
#1089=CARTESIAN_POINT('Origin',(-4.92418448565707,96.3084167846515,2.5));
#1090=CARTESIAN_POINT('Origin',(-12.4241850440247,68.4836509255287,2.5));
#1091=CARTESIAN_POINT('',(-14.9241864181182,0.00935229636588986,2.5));
#1092=CARTESIAN_POINT('Origin',(-12.4241864181182,0.00935224619767361,2.5));
#1093=CARTESIAN_POINT('',(-14.9241850440247,68.4836509756969,2.5));
#1094=CARTESIAN_POINT('Origin',(10.075813581882,0.00935179468359051,2.5));
#1095=CARTESIAN_POINT('Origin',(10.075813581882,0.00935179468359051,2.5));
#1096=CARTESIAN_POINT('Origin',(10.075813581882,0.00935179468359051,0.));
#1097=CARTESIAN_POINT('',(-14.9241864181182,0.00935229636588986,0.));
#1098=CARTESIAN_POINT('Origin',(25.075817660534,96.3084212127427,0.));
#1099=CARTESIAN_POINT('',(25.075817660534,106.308417134091,0.));
#1100=CARTESIAN_POINT('Origin',(7.11091901428946,42.3189622557589,0.625000000000013));
#1101=CARTESIAN_POINT('',(8.36091901428946,42.3189622557589,1.25));
#1102=CARTESIAN_POINT('',(8.98591901428946,42.3189622557589,0.624999999999998));
#1103=CARTESIAN_POINT('Origin',(7.11091901428946,42.3189622557589,1.25000000000001));
#1104=CARTESIAN_POINT('Origin',(28.1470955829286,42.4231017437225,0.624999999999845));
#1105=CARTESIAN_POINT('',(29.3970955829286,42.4231017437225,1.24999999999984));
#1106=CARTESIAN_POINT('',(30.0220955829286,42.4231017437225,0.624999999999829));
#1107=CARTESIAN_POINT('Origin',(28.1470955829286,42.4231017437225,1.24999999999984));
#1108=CARTESIAN_POINT('Origin',(-6.53135390893695,98.658425244045,0.625000000000133));
#1109=CARTESIAN_POINT('',(-5.28135390893695,98.658425244045,1.25000000000013));
#1110=CARTESIAN_POINT('',(-4.65635390893695,98.658425244045,0.625000000000118));
#1111=CARTESIAN_POINT('Origin',(-6.53135390893695,98.658425244045,1.25000000000014));
#1112=CARTESIAN_POINT('Origin',(28.1470955829286,42.4231017437225,-1.55431223447522E-13));
#1113=CARTESIAN_POINT('',(29.3970955829286,42.4231017437225,-1.65423230669148E-13));
#1114=CARTESIAN_POINT('Origin',(7.11091901428945,42.3189622557589,1.77635683940025E-14));
#1115=CARTESIAN_POINT('',(8.36091901428945,42.3189622557589,7.49400541621981E-15));
#1116=CARTESIAN_POINT('Origin',(-6.53135390893696,98.658425244045,1.33226762955019E-13));
#1117=CARTESIAN_POINT('',(-5.28135390893696,98.658425244045,1.22957199977236E-13));
#1118=CARTESIAN_POINT('Origin',(10.0758135818821,0.0093517946835936,-0.5));
#1119=CARTESIAN_POINT('',(5.12581358188211,0.00935179468359278,-1.));
#1120=CARTESIAN_POINT('',(4.62581358188211,0.00935179468359269,-0.5));
#1121=CARTESIAN_POINT('Origin',(10.0758135818821,0.0093517946835936,-1.));
#1122=CARTESIAN_POINT('Origin',(10.0758135818821,0.0093517946835936,4.44089209850063E-15));
#1123=CARTESIAN_POINT('',(5.12581358188211,0.00935179468359399,-5.));
#1124=CARTESIAN_POINT('Origin',(10.0758135818821,0.0093517946835936,-5.));
#1125=CARTESIAN_POINT('',(5.12581358188211,0.00935179468359399,4.44089209850063E-15));
#1126=CARTESIAN_POINT('Origin',(10.0758135818821,0.00935179468359348,-5.));
#1127=CARTESIAN_POINT('Origin',(-14.9241844856571,96.3084169853244,0.));
#1128=CARTESIAN_POINT('',(-14.9241844856571,96.3084169853244,0.));
#1129=CARTESIAN_POINT('Origin',(-4.92418448565707,96.3084167846515,0.));
#1130=CARTESIAN_POINT('',(-4.92418460213682,106.308416784652,0.));
#1131=CARTESIAN_POINT('Origin',(25.075817660534,106.308417134091,0.));
#1132=UNCERTAINTY_MEASURE_WITH_UNIT(LENGTH_MEASURE(0.01),#1136,
'DISTANCE_ACCURACY_VALUE',
'Maximum model space distance between geometric entities at asserted c
onnectivities');
#1133=UNCERTAINTY_MEASURE_WITH_UNIT(LENGTH_MEASURE(0.01),#1136,
'DISTANCE_ACCURACY_VALUE',
'Maximum model space distance between geometric entities at asserted c
onnectivities');
#1134=(
GEOMETRIC_REPRESENTATION_CONTEXT(3)
GLOBAL_UNCERTAINTY_ASSIGNED_CONTEXT((#1132))
GLOBAL_UNIT_ASSIGNED_CONTEXT((#1136,#1138,#1139))
REPRESENTATION_CONTEXT('','3D')
);
#1135=(
GEOMETRIC_REPRESENTATION_CONTEXT(3)
GLOBAL_UNCERTAINTY_ASSIGNED_CONTEXT((#1133))
GLOBAL_UNIT_ASSIGNED_CONTEXT((#1136,#1138,#1139))
REPRESENTATION_CONTEXT('','3D')
);
#1136=(
LENGTH_UNIT()
NAMED_UNIT(*)
SI_UNIT(.MILLI.,.METRE.)
);
#1137=(
LENGTH_UNIT()
NAMED_UNIT(*)
SI_UNIT($,.METRE.)
);
#1138=(
NAMED_UNIT(*)
PLANE_ANGLE_UNIT()
SI_UNIT($,.RADIAN.)
);
#1139=(
NAMED_UNIT(*)
SI_UNIT($,.STERADIAN.)
SOLID_ANGLE_UNIT()
);
#1140=SHAPE_DEFINITION_REPRESENTATION(#1141,#1142);
#1141=PRODUCT_DEFINITION_SHAPE('',$,#1144);
#1142=SHAPE_REPRESENTATION('',(#658),#1134);
#1143=PRODUCT_DEFINITION_CONTEXT('part definition',#1148,'design');
#1144=PRODUCT_DEFINITION('left_upper_top','left_upper_top',#1145,#1143);
#1145=PRODUCT_DEFINITION_FORMATION('',$,#1150);
#1146=PRODUCT_RELATED_PRODUCT_CATEGORY('left_upper_top',
'left_upper_top',(#1150));
#1147=APPLICATION_PROTOCOL_DEFINITION('international standard',
'automotive_design',2009,#1148);
#1148=APPLICATION_CONTEXT(
'Core Data for Automotive Mechanical Design Process');
#1149=PRODUCT_CONTEXT('part definition',#1148,'mechanical');
#1150=PRODUCT('left_upper_top','left_upper_top',$,(#1149));
#1151=PRESENTATION_STYLE_ASSIGNMENT((#1153));
#1152=PRESENTATION_STYLE_ASSIGNMENT((#1154));
#1153=SURFACE_STYLE_USAGE(.BOTH.,#1155);
#1154=SURFACE_STYLE_USAGE(.BOTH.,#1156);
#1155=SURFACE_SIDE_STYLE('',(#1157));
#1156=SURFACE_SIDE_STYLE('',(#1158));
#1157=SURFACE_STYLE_FILL_AREA(#1159);
#1158=SURFACE_STYLE_FILL_AREA(#1160);
#1159=FILL_AREA_STYLE('Steel - Satin',(#1161));
#1160=FILL_AREA_STYLE('Nylon 12 (with Formlabs Fuse 1 3D Printer)',(#1162));
#1161=FILL_AREA_STYLE_COLOUR('Steel - Satin',#1163);
#1162=FILL_AREA_STYLE_COLOUR(
'Nylon 12 (with Formlabs Fuse 1 3D Printer)',#1164);
#1163=COLOUR_RGB('Steel - Satin',0.627450980392157,0.627450980392157,0.627450980392157);
#1164=COLOUR_RGB('Nylon 12 (with Formlabs Fuse 1 3D Printer)',0.247058823529412,
0.247058823529412,0.247058823529412);
ENDSEC;
END-ISO-10303-21;
